<?xml version="1.0" encoding="utf-8" ?>
<svg baseProfile="full" height="300mm" version="1.1" viewBox="0,0,200,300" width="200mm" xmlns="http://www.w3.org/2000/svg" xmlns:ev="http://www.w3.org/2001/xml-events" xmlns:xlink="http://www.w3.org/1999/xlink"><defs /><rect fill="#222222" height="300" width="200" x="0" y="0" /><text fill="#FFFFFF" style="font-size:12px; font-family:Arial; font-weight:bold;" x="10" y="20">Over 10km Runs</text><text fill="#FFFFFF" style="font-size:4px; font-family:Arial" x="10" y="280">Runner</text><text fill="#FFFFFF" style="font-size:9px; font-family:Arial" x="10" y="290">Ennui</text><text fill="#FFFFFF" style="font-size:4px; font-family:Arial" x="65" y="280">SPECIAL TRACKS</text><rect fill="yellow" height="2.6" width="2.6" x="65" y="283" /><text fill="#FFFFFF" style="font-size:3px; font-family:Arial" x="70" y="285.5">Over 20.0 km</text><rect fill="red" height="2.6" width="2.6" x="65" y="287" /><text fill="#FFFFFF" style="font-size:3px; font-family:Arial" x="70" y="289.5">Over 40.0 km</text><text fill="#FFFFFF" style="font-size:4px; font-family:Arial" x="120" y="280">STATISTICS</text><text fill="#FFFFFF" style="font-size:3px; font-family:Arial" x="120" y="285">Number: 9</text><text fill="#FFFFFF" style="font-size:3px; font-family:Arial" x="120" y="290">Weekly: 1.8</text><text fill="#FFFFFF" style="font-size:3px; font-family:Arial" x="141" y="285">Total: 100.1 km</text><text fill="#FFFFFF" style="font-size:3px; font-family:Arial" x="141" y="290">Avg: 11.1 km</text><text fill="#FFFFFF" style="font-size:3px; font-family:Arial" x="167" y="285">Min: 10.0 km</text><text fill="#FFFFFF" style="font-size:3px; font-family:Arial" x="167" y="290">Max: 15.0 km</text><polyline fill="none" points="65.1167767503066,34.161929447669536 65.47344782034634,34.804090984907816 65.75878467637813,35.53302762696694 66.01558784680674,35.966916728022625 66.12972258921945,36.24460506437754 66.11545574641787,36.45287096420361 65.97278731834376,36.57435926620383 65.85865257598925,36.79998012569558 65.87291941879084,37.04295603939681 65.54478203441249,37.25122078090499 65.50198150594952,37.424774501429056 65.64464993396541,37.59832801204175 65.85865257598925,37.71981534465158 65.95852047554217,37.71981534465158 66.32945838832529,37.633038689004024 66.41505944519304,37.6503940243565 66.50066050194437,37.737170669512125 66.91439894319046,39.00410371544422 67.0,39.351206708175596 67.0,39.55946810099704 66.92866578605026,39.61153340205783 66.64332893001847,39.69830886174168 65.07397622190183,40.37515564728528 64.01822985470062,40.756965246764594 63.946895640692674,40.8263850647927 64.00396301195724,41.06935416368651 63.9183619551477,41.156128742266446 63.44755614263704,41.329677741916385 62.34900924703106,41.815613824961474 61.935270805843174,41.937097588699544 61.364597093779594,42.21477437696012 61.06499339500442,42.44038637190533 60.85099075298058,42.63128855235118 60.52285336854402,43.01309215150832 60.32311756932177,43.3601854515 59.8808454425307,44.73119578276237 59.52417437254917,46.622821454686346 59.39577278733486,47.12609381209768 59.43857331573963,47.31698976198095 59.738177014514804,48.011154713094584 59.82377807126613,48.549130241779494 59.738177014514804,48.61854629221489 59.15323645970784,48.80944025775534 59.03910171735333,48.89621015827288 59.09616908850148,49.00033396955405 59.23883751651738,49.156519544980256 59.4813738441444,49.573013582179556 59.4813738441444,49.677136902697384 59.43857331573963,49.86802946084936 59.4671070012846,50.16304473331547 59.55270805809414,50.33658284577541 59.68110964336665,50.510120748440386 59.980713342141826,50.701012199162506 60.09484808455454,51.2216239565314 60.023513870546594,50.857195924560074 60.19471598410746,51.25633133991505 60.25178335537203,51.343099761681515 60.6940554822213,51.30839239923807 60.87952443858376,51.3951607895433 61.05072655220283,51.620758358883904 61.03645970945945,51.69017292429635 60.96512549533509,51.72488019436423 59.79524438572116,52.05459884207812 59.50990752968937,52.14136678140494 59.28163804492215,52.28019537530781 58.411360634083394,52.50579155408195 58.31149273447227,52.54049862701504 58.29722589167068,52.59255922070588 58.29722589167068,52.71403386602469 58.43989431968657,53.078457185212756 58.653896961710416,53.408172724623 58.75376486132154,53.65112053240591 59.18177014531102,55.19556484041095 59.26737120212056,55.71616030183213 59.22457067371579,55.8376323045959 59.12470277416287,55.97645732478122 59.010568031691946,56.028516672726255 58.76803170412313,56.097929107330856 57.12734478205675,56.392931579990545 54.3738441215246,56.94822870794451 54.15984147955896,56.94822870794451 53.14689564076252,56.61852129723411 52.80449141346617,56.56646216318768 51.834346103074495,56.809404627318145 51.12100396305323,57.034993690263946 48.281902245711535,58.978515553317266 47.58282694849186,59.51644999247219 45.55693527078256,60.90465858967218 44.88639365922427,61.40788089214766 42.48956406873185,64.02807886835944 42.104359313088935,64.40982557689131 41.99022457067622,64.4618818675226 41.89035667106509,64.4618818675226 41.37675033026608,64.37512137257727 41.24834874505177,64.32306505038287 39.93579920742195,62.55313886901422 39.793130779406056,62.396967864522594 39.75033025100129,62.36226317375258 39.70752972259652,62.379615520185325 38.83725231181597,63.07370765734231 38.209511228546035,63.52486574750219 36.92549537651939,64.51393813941104 36.468956406926736,64.89568355641677 35.41321003960911,65.67652329421253 34.328929986804724,66.5441180235357 32.80237780715106,67.67198333608394 32.28877146629384,67.88020365596458 31.86076618230436,68.12312698096503 31.718097754288465,68.17518192574789 31.57542932627257,68.17518192574789 31.44702774111647,68.12312698096503 31.347159841447137,68.00166536984034 31.21875825629104,67.35965229017893 31.133157199481502,67.30759704984666 31.076089828216936,67.34230054551153 30.8620871862513,67.63727992010536 30.22007926023798,68.36604989512125 30.148745046230033,68.52221440864378 30.163011889031623,68.67837875236 30.662351387087256,70.22266145366302 30.961955085862428,70.77790510802879 31.361426684248727,71.28109281569778 31.661030383082107,71.5413616279111 32.23170409514569,71.94043955723464 33.073447820323054,72.59978327192948 32.95931307791034,72.59978327192948 32.673976221936755,72.80799644775107 32.48850726551609,73.10296459673555 31.104623513878323,74.09197102861071 30.448348745063413,74.68190144712571 29.820607661793474,75.09832146024564 29.60660501982784,75.1850754776533 29.29273447819287,75.39328490570188 29.178599735780153,75.51474026603682 28.921796565351542,75.87910573073896 28.522324966965243,76.33022359696042 28.179920739727095,76.6251845125953 27.823249669803772,76.85074245117721 27.552179656515364,77.05894946475746 27.038573315774556,77.5447646559769 26.38229854690144,78.27348436195462 26.096961690927856,78.63784282856795 24.92708058131393,80.77192385883245 24.45627476880327,81.04952556490025 24.327873183588963,81.10157582508691 24.142404227226507,81.04952556490025 23.42906208714703,80.54637207764608 23.229326287982985,80.44227113608213 22.98678996041417,80.37287046649726 22.37331572000403,80.32081994225155 21.74557463673409,80.40757080550247 21.588639365974814,80.47697145835264 21.503038309165277,80.63312280466198 21.046499339514412,80.66782308074471 20.932364597101696,80.7025233484892 20.276089828286786,80.96277508939966 19.548480845463928,81.32712673446804 18.935006605053786,81.55267728971376 18.692470277426764,81.60472736755037 18.093262879760005,81.62207738934376 17.25151915458264,81.72617747583718 17.351387054193765,81.74352748294768 17.394187582598533,81.79557749164815 17.465521796548273,82.17727697902592 17.49405548220966,82.94067291113606 17.422721268143505,83.01007234011195 16.22430647298461,83.13152126024943 14.92602377809817,83.32236935582478 14.312549537688028,83.35706898229546 14.169881109613925,83.30501953940256 14.112813738465775,83.23562025288993 14.055746367259417,83.07947173561843 14.055746367259417,82.7671741918748 14.169881109613925,82.14257706758508 14.127080581209157,82.10787714770413 14.070013210061006,82.1946269316104 14.098546895664185,82.35077641077805 14.29828269482823,82.90597318405344 14.355350066034589,83.23562025288993 14.29828269482823,83.65201546910976 14.141347424068954,84.06840947835008 14.084280052804388,84.36335450458864 14.127080581209157,85.02264119715255 14.055746367259417,85.12673881935189 13.542140026460402,85.23083636615775 13.385204755642917,85.36963297784678 13.156935270817485,85.43903123342898 13.142668428015895,85.50842945548357 13.199735799222253,85.83807055233046 13.142668428015895,85.82072103978135 13.085601056809537,85.5257790057367 13.085601056809537,85.21348678022332 13.0,85.05734041290998 13.042800528404769,85.09203962031461 13.114134742470924,85.24818594993849 13.171202113619074,85.30023468879517 13.34240422717994,85.33493383749737 13.542140026460402,85.21348678022332 13.64200792601332,85.02264119715255 13.656274768873118,84.8838442501874 13.699075297219679,83.77346384647535 13.68480845441809,83.42646821013477 13.599207397608552,83.01007234011195 13.798943196830805,81.9690773843904 13.841743725235574,81.60472736755037 13.856010568037163,80.96277508939966 13.784676354087424,80.65047294374381 13.827476882375777,80.30346976335568 13.813210039632395,80.1299678588257 13.770409511227626,80.1299678588257 13.813210039632395,79.88706484033901 13.798943196830805,79.66151166975033 13.727608982822858,79.50535926716111 13.513606340799015,79.47065871025552 14.940290620841552,79.50535926716111 15.810568031738512,79.59211062290706 16.352708058140706,79.540059815743 17.993394980148878,79.55741008691257 18.977807133458555,79.50535926716111 19.648348745075054,79.43595814490982 20.005019815056585,79.34920669488201 20.433025099046063,79.1410030011175 20.433025099046063,79.0369010410941 20.26182298542699,78.60314206204202 20.26182298542699,78.51639010905637 20.276089828286786,78.48168931317923 20.80396301188739,78.25613393571984 20.903830911498517,78.30818520813773 21.174900924728718,78.89809831029561 21.20343461027369,78.91544865899778 21.289035667083226,78.8113465354545 21.260501981538255,78.77664581083809 21.20343461027369,78.8113465354545 21.217701453133486,78.93279900556081 21.303302509943023,79.07160170278803 21.51730515185045,79.31450610025786 21.77410832233727,79.38390728118247 21.74557463673409,79.45330842860858 22.230647291929927,79.26245519252552 22.587318361969665,79.07160170278803 22.958256274752785,78.98485003273527 23.08665785996709,78.98485003273527 23.18652575952001,79.01955070710392 23.643064729170874,79.40125757116766 23.742932628840208,79.36655698914547 24.09960369882174,79.1410030011175 24.242272126837634,79.12365267970017 24.74161162483506,79.1410030011175 24.96988110966049,79.0369010410941 25.112549537676387,78.8633976066485 25.28375165129546,78.49903971218737 25.65468956407858,77.92647543924977 25.783091149292886,77.61416669204482 25.768824306491297,77.38860995232244 25.726023778086528,77.26715617647278 25.569088507269043,77.11100117095339 25.183883751684334,76.90279423285392 24.898546895594336,76.83339185311343 24.75587846763665,76.83339185311343 24.541875825612806,76.86809304714552 24.427741083258297,76.85074245117721 24.39920739765512,76.76398943980166 24.37067371199373,75.89645644412667 24.313606340787373,75.84440429772076 24.6845442536287,75.37593413157447 25.02694848080864,74.89011160461814 25.298018494038843,74.3869365407736 25.569088507269043,74.02256729069632 25.897225891705602,73.36323010751221 26.054161162523087,73.03356038090715 26.196829590480775,72.53037881290948 26.724702774139587,71.12493130196526 27.067107001319528,70.51763491233578 27.438044914160855,69.97974167982466 27.70911492733285,69.38979194717831 28.137120211322326,68.78248822051683 28.479524438560475,67.72403844437213 28.67926023772452,67.49846617224102 28.779128137393855,67.42905924798106 28.87899603700498,67.41170751169557 29.064464993425645,67.56787306290062 29.449669748952147,68.0190170348651 29.52100396307651,68.05372035864275 29.635138705431018,68.0190170348651 30.134478203428444,67.56787306290062 31.646763540280517,66.04091371891263 31.960634081973694,65.53770765113586 32.37437252304517,65.190667956369 32.85944517829921,64.58334647254378 33.05918097757967,64.39247347574565 33.43011889036279,64.11483957296878 33.686922060733195,63.85455730171816 34.2290620871936,63.38604802459304 34.81400264200056,63.03900313019403 35.15640686923871,62.77871890900133 35.39894319680752,62.55313886901422 35.55587846762501,62.36226317375258 35.941083223209716,62.223444326999015 36.240686922101304,62.03256819356466 36.597357992082834,61.720224882505136 36.83989431965165,61.40788089214766 37.3107001321041,61.078183720775996 37.538969616929535,60.88730606503668 38.223778071347624,60.45349226759572 38.551915455725975,60.17585074946692 39.12258916773135,59.828798096918035 39.77886393654626,59.360275685437955 39.85019815067062,59.342922974188696 39.92153236462036,59.360275685437955 40.06420079257805,59.2561593864375 40.67767503298819,58.995868308644276 41.205548216647,58.735576758990646 42.090092470287345,58.24969793725177 42.446763540268876,58.006757909897715 42.61796565388795,57.919993514806265 42.77490092476364,57.902640629486996 42.831968295853585,57.97205215814756 42.9603698811261,58.23234509176109 43.24570673709968,58.579401602677535 43.6309114927426,59.32557026084396 43.78784676356008,59.51644999247219 43.887714663113,59.53380268273759 44.101717305136845,59.39498110167915 44.358520475565456,59.37762839462084 44.50118890352314,59.32557026084396 45.81373844121117,58.683518392412225 47.21188903565053,57.78117037359334 48.16776750329882,57.32999423785077 48.42457067372743,57.017640698031755 48.43883751652902,56.96558170863136 48.08216644648928,56.271460046991706 48.09643328934908,56.097929107330856 48.23910171724856,55.9243979579187 49.75138705415884,55.160858409202774 50.25072655221447,54.9352664018661 51.263672391010914,54.397314800313325 51.72021136066178,54.24113492561446 53.08982826949796,53.928774666492245 53.97437252308009,53.633767131192144 55.38678996037925,53.25199177405739 55.90039630117826,53.078457185212756 56.85627476882655,52.85286190621264 58.55402906209929,52.31490250281058 60.53712021140382,51.84635557375441 61.06499339500442,51.638112003332935 60.77965653897263,51.3778071156994 60.53712021140382,51.360453439716366 60.22324966976885,51.3951607895433 60.1519154557609,51.360453439716366 60.08058124175295,51.15220916463295 60.05204755614977,50.80513470164442 60.12338177015772,51.15220916463295 60.10911492735613,51.2216239565314 59.92364597093547,50.73571970834746 59.8808454425307,50.666304681508336 59.609775429358706,50.475413184729405 59.4671070012846,50.23246000352083 59.43857331573963,50.024214092380134 59.45284015854122,49.538305791909806 59.03910171735333,48.913564132046304 59.03910171735333,48.86150220436684 59.03910171735333,48.826794242078904 59.09616908850148,48.79208627139451 59.78097754291957,48.549130241779494 59.8808454425307,48.479714157787384 59.68110964336665,47.9417383690452 59.36723910178989,47.29963559517637 59.29590488772374,46.98726023451309 59.85231175698573,44.817968147981446 60.037780713348184,43.984951276826905 60.16618229856249,43.56844102870673 60.43725231179269,43.03044683646294 60.76538969617104,42.68335273927369" stroke="#4DD2FF" stroke-linecap="round" stroke-linejoin="round" stroke-width="0.5"><title>2025-12-28 13.0km</title><desc>16860075286</desc></polyline><polyline fill="none" points="124.07769617321901,36.46375095707481 124.80827212997247,37.96192347741453 125.37185929657426,39.33312285815191 125.26749130268581,39.688617532592616 125.30923850019462,39.94254193166853 124.82914572861046,40.19646602369903 124.74565133359283,40.37421270550112 124.78739853110164,40.526566884465865 125.03788171627093,40.85666722639871 125.33011209894903,41.03441334946547 125.43448009272106,41.05980564051424 125.99806725943927,40.90745184835396 126.16505604947452,40.98362875828752 126.74951681483071,42.634121688097366 127.0,43.421275286833406 127.0,43.59901923954021 126.91650560486596,43.64980319842289 126.56165442592464,43.751371079240926 125.89369926555082,44.00529056665255 124.07769617321901,44.7416553440853 121.99033629684709,45.50340929382946 121.51024352526292,45.63036801677663 120.19520680315327,46.18898548648576 119.50637804414146,46.3921187435044 118.4835717047099,46.8745594414504 117.39814456901513,47.585522660810966 116.08310784690548,48.093352058465825 116.56320061848965,47.91561190894572 116.7510630072793,47.91561190894572 116.85543100116774,48.093352058465825 116.89717819879297,48.271092057577334 116.62582141475286,48.77891979772539 115.77000386558939,51.851251442567445 115.66563587170094,52.51141601323616 115.41515268653166,53.93330188807158 115.2690374951344,54.339553227313445 114.91418631619308,55.02510058073676 114.45496714347973,55.65986465384776 114.30885195208248,55.78681723833142 114.20448395831045,55.81220774597023 114.14186316193081,55.736036213696934 113.97487437189557,55.40595925472735 113.97487437189557,55.35517813812476 114.05836876691319,55.38056869796128 114.87243911868427,56.11689359876618 114.93505991494749,56.4723598685523 115.12292230385356,57.056338862894336 115.37340548890643,57.437193854217185 115.66563587170094,57.7926578897459 115.93699265562464,58.32585281532374 115.95786625437904,58.42741360003129 115.87437185936142,58.65592518624908 115.89524545811582,58.93521678728575 115.97873985313345,59.23989811047795 116.1248550445307,59.54457899178669 116.22922303830273,59.69691926668747 116.60494781611487,59.97620948370604 116.83455740241334,60.6617384422716 116.81368380365893,60.484008927072864 116.68844221101608,60.077769470517524 116.77193660615012,60.23010935878847 117.0432933899574,60.8902475979703 117.08504058758263,60.915637488797074 117.16853498260025,60.8902475979703 117.3146501739975,60.83946780706174 117.33552377275191,60.864857704073074 117.21028218010906,60.96641726128291 114.41321994585451,61.70272258303885 113.76613838423509,61.95662037143484 112.80595284118317,62.235907584326924 111.47004252031911,62.56597381166648 110.63509856979363,62.6929222226172 110.09238500194624,62.81987055679201 110.36374178586993,62.76909123233054 110.5307305760216,62.81987055679201 110.78121376119088,63.17532548440795 110.92732895247173,63.27688392470009 111.03169694624376,63.302273527064244 111.76227290299721,63.17532548440795 113.76613838423509,62.61675318524067 114.03749516815878,62.59136350003246 114.16273676080164,62.66753254653304 114.26710475457367,62.89603952046309 114.45496714347973,63.378442315908615 114.72632392740343,63.75928584560461 114.9559335137019,64.39402352746401 115.47777348291129,66.17127883415378 115.68650947045535,67.0599008492718 115.74913026671857,67.41534860299726 115.70738306920975,67.51690499353572 115.64476227294654,67.59307225426892 115.39427908777725,67.69462855892198 108.38074990338646,69.0402449612302 108.10939311946277,69.01485605222115 106.7734827985987,68.5578551665676 106.20989563199691,68.43091029960488 105.20796289131977,68.65941100481723 104.24777734826785,68.98946714025806 103.68419018178247,69.11641166971822 102.55701584857889,69.85268842760706 101.38809431775007,70.71590616813046 99.82257441047113,71.75684049108531 97.71434093546122,73.30553810985293 94.56242752226535,75.51431660169328 90.72168534994125,79.72870309719292 90.45032856590115,79.9571915155102 90.34596057212912,80.00796668577823 90.17897178209387,80.03335426640115 89.44839582534041,79.93180392579234 89.30228063405957,79.85564113802684 88.86393505998421,79.32250085101987 87.17317356006242,77.06298652369878 87.0896791650448,76.98682269606797 86.96443757251836,76.96143474736891 86.35910320840776,77.49458102547214 84.43873212230392,78.91629781971278 82.49748743721284,80.41416760676657 81.8295322767226,80.89653018044191 79.11596443760209,83.00368001758761 77.9679165056441,83.81606949161505 77.63393892545719,84.17148889879172 76.67375338240527,84.78077791244141 76.04754541942384,85.03464781334333 75.50483185146004,85.59316051570931 75.35871666029561,85.64393432413635 75.25434866652358,85.64393432413635 75.0038654813543,85.54238669501501 74.85775029007345,85.39006515929941 74.69076149980538,84.90771290124394 74.60726710478775,84.34919837691996 74.54464630852453,84.22226305074582 74.48202551226132,84.19687597626762 74.14804793195799,84.55229473930376 73.8975647467887,84.73000389544177 73.58446076547261,85.03464781334333 73.12524159264285,85.64393432413635 73.0,85.92319005112222 73.10436799388845,85.64393432413635 73.50096637033857,85.18696960661327 73.77232315437868,84.75539090545499 74.16892153082881,84.27303719041811 74.5028991108993,84.01916636929673 74.60726710478775,84.04455346525356 74.7116350986762,84.39997248594591 74.98299188248347,85.23774351325119 75.10823347512633,85.36467822591658 75.19172787014395,85.39006515929941 75.44221105531324,85.26313046191353 76.08929261693265,84.67922986613121 76.81986857356969,84.39997248594591 77.48782373405993,83.99377927035675 80.22226517205127,81.9120267158869 80.6397371472558,81.65815304205171 81.91302667185664,80.56649274968368 84.06300734449178,79.14478712141863 86.46347120217979,77.24070201412542 86.86006957874633,76.96143474736891 87.0688055662904,76.85988292202819 87.23579435644206,76.85988292202819 87.42365674523171,77.03759858425474 87.98724391194992,77.77384758352127 88.25860069587361,78.2054406250827 89.1144182451535,79.27172551510739 89.427522226586,79.62715260924597 89.57363741786685,79.72870309719292 89.78237340552732,79.75409071153263 90.17897178209387,79.77947832272912 90.42945496726315,79.72870309719292 91.28527251642663,78.78935921128141 92.43332044838462,77.69768401359033 94.4371859296225,75.46354034540127 95.68960185546894,74.65111857595912 97.00463857746217,73.63558694634412 97.21337456512265,73.50864514752175 99.05025125620887,72.21383441837679 100.59489756484982,71.19829100782226 101.22110552759841,70.66512875222543 103.4963277928764,69.0656338671397 104.62350212607998,68.65941100481723 105.12446849641856,68.5578551665676 105.70892926177476,68.32935435086256 106.06378044071607,68.25318735708424 106.87785079237074,68.40552131705044 108.35987630463205,68.91330038582964 108.52686509478372,68.91330038582964 109.44530344032682,68.73557785137382 111.36567452654708,68.22779835303663 114.78894472355023,67.66923948735348 115.24816389637999,67.51690499353572 115.35253189026844,67.36457038926892 115.43602628528606,67.08528999451664 115.45689988404047,66.8060092285159 115.43602628528606,66.62828491140681 114.6845767297782,64.11473918365664 114.24623115570284,63.149935866647866 114.12098956317641,62.66753254653304 114.10011596453842,62.515194425868685 114.14186316193081,62.46441502770176 114.30885195208248,62.38824590752483 115.45689988404047,62.159738381247735 117.8991109393537,61.47421431107796 118.44182450720109,61.2457057905558 118.56706609984394,61.271095638439874 118.14959412440658,61.34726516371302 118.1913413220318,61.29648548329715 118.33745651331265,61.29648548329715 118.27483571716584,61.271095638439874 118.08697332825977,61.321875325083965 118.23308851954062,61.321875325083965 118.27483571716584,61.1949260856054 118.14959412440658,61.1949260856054 117.8782373405993,60.94102737653884 117.64862775418442,60.83946780706174 117.46076536527835,60.814077907038154 117.12678778509144,60.8902475979703 116.93892539618537,60.8902475979703 116.87630459992215,60.83946780706174 116.83455740241334,60.76329809766321 116.7093158098869,60.10315945961338 116.83455740241334,60.50939886698325 116.79281020478811,60.560178737694514 116.77193660615012,60.560178737694514 116.7093158098869,60.484008927072864 116.50057982222643,59.90003946128127 116.1248550445307,59.54457899178669 115.89524545811582,59.112947612899006 115.85349826060701,58.88443652386195 115.89524545811582,58.24968219449511 115.45689988404047,57.564145364493015 115.14379590260796,57.13250991643872 114.99768071132712,56.75165437272517 114.85156551992986,56.21845545149699 114.85156551992986,56.091503127870965 114.9559335137019,55.989941213832935 115.85349826060701,55.65986465384776 116.04136064939667,55.50752145126171 115.70738306920975,54.745803780897404 115.66563587170094,54.49189727702469 115.79087746422738,53.98408334846317 115.89524545811582,53.273141786005 116.14572864328511,52.409852368262364 116.27097023581155,51.77507847402012 116.4588326246012,51.114911589131225 116.60494781611487,50.35317798984761 116.93892539618537,49.28674631011381 117.23115577886347,48.72813707901514 117.41901816776954,48.499614692569594 118.04522613063455,47.83943751307379 118.73405488987919,47.356999031311716 119.25589485885575,47.10308359574992 120.00734441436362,46.8491678534192 120.59180517971981,46.595251803970314 121.80247390805744,46.16359381550865 122.42868187092245,45.85889352488448 122.5747970623197,45.75732666309341 122.6165442597121,45.60497627835139 122.53304986469448,45.42723402312549 122.42868187092245,45.32566695267451 122.17819868575316,45.224099833052605 122.01120989571791,44.94479000076535 121.42674913036171,43.421275286833406 121.38500193273649,43.24353118360159 121.3641283340985,42.96421871770872 121.46849632787053,42.837258383093285 121.69810591416899,42.7356900601153 123.57672980288044,42.02471042437537 124.01507537683938,41.61843526615121 124.95438732125331,41.05980564051424 125.14224971004296,40.932844154696795 125.2048705064226,40.83127491084451 125.2048705064226,40.67892095292336 125.10050251265056,40.47578217049886 125.05875531502534,40.247250805288786 125.35098569781985,39.917149505519774 125.39273289521225,39.790187329112086 125.30923850019462,39.51087027057656 125.35098569781985,39.231552840647055 125.33011209894903,39.028412658313755 124.80827212997247,38.190457329226774 124.55778894468676,37.68260398750135 124.16119056823663,36.79385768460634 123.63935059914365,35.77814301892067 123.43061461148318,35.32106981668039 123.28449942020234,34.86399561983126 122.8879010436358,34.07680994887778" stroke="#4DD2FF" stroke-linecap="round" stroke-linejoin="round" stroke-width="0.5"><title>2025-12-25 10.0km</title><desc>16835124706</desc></polyline><polyline fill="none" points="180.06728538288735,36.63242815078411 180.3596287702676,37.24208996118978 180.71461716934573,37.80094506670139 180.9025522042066,38.25818904735206 181.0069605569588,38.76623674778966 180.98607888631523,38.86784614047792 180.75638051051646,39.248880925253616 180.9025522042066,40.061752823443385 180.8399071925087,40.36657897445548 180.75638051051646,40.44278544311237 180.65197215776425,40.49358974020288 180.0464037123602,40.62060042915982 180.00464037118945,40.67140468326397 180.00464037118945,40.74761104141362 180.17169373552315,40.798415264784126 180.3596287702676,40.77301315458317 181.1531322505325,40.44278544311237 182.1763341067126,39.88393736447324 182.51044083526358,39.75692623014038 182.78190255223308,39.96014400816057 183.24129930394702,40.59519829752389 183.3665893272264,40.62060042915982 183.72157772618812,40.54439402499702 183.8886310904054,40.59519829752389 184.03480278421193,40.84921947584371 184.45243619498797,42.297134328153334 184.7030162414303,42.957583403316676 184.78654292342253,43.33861077162146 184.7447795823682,43.64343216875568 184.82830626447685,43.948253123729955 185.03712296986487,44.2022702483664 185.09976798144635,44.354680375763564 185.37122969829943,45.21833567619615 185.53828306263313,45.59935894492082 186.06032482604496,46.488410551755805 186.22737819026224,46.86943151737796 186.56148491881322,47.42826101729588 186.81206496513914,47.75847775046714 187.0,48.266502480444615 186.95823665894568,48.393508471112 186.85382830630988,48.44431084585085 185.35034802777227,48.62211906074663 184.9118329465855,48.74912483636581 184.03480278421193,48.90153166586242 183.8886310904054,49.00313615743653 183.8886310904054,49.3079493373225 183.80510440841317,49.434954698444926 183.59628770302515,49.48575682149385 182.51044083526358,49.638163116629585 181.98839907185175,49.765168278157944 181.77958236658014,49.89217336292495 181.75870069605298,50.069980352622224 182.19721577735618,50.933612162654754 182.9280742459232,52.635464458406204 182.94895591645036,52.787868469167734 182.80278422276024,52.91487172701454 181.63341067289002,53.194278624185245 181.0487238978967,53.42288399099198 180.58932714618277,53.52448629643186 180.44315545237623,53.499085724688484 180.4222737819655,53.397483406966785 180.61020881670993,53.60068799321016 180.88167053367943,54.286502021190245 181.34106728539336,55.83592547351145 181.424593967502,55.9883271632134 181.34106728539336,55.75972458724573 180.77726218104362,54.769110551060294 180.65197215776425,54.66750884740031 180.4640371230198,54.642108413769165 180.1299303943524,54.6929092779319 178.73085846868344,55.09931574866641 178.3758700696053,55.12471612695663 178.08352668222506,55.175516874413006 175.34802784223575,56.03912770195166 174.55452436197083,56.19152924415539 174.4083526681643,56.26772997392982 174.24129930394702,56.5471324132086 174.55452436197083,57.131336312842905 174.72157772618812,57.61393830945599 174.97215777263045,58.09653919779521 174.97215777263045,58.24893924800563 174.90951276104897,58.223539247279405 174.84686774935108,58.121939213815494 174.5127610209165,57.46153779869201 174.26218097447418,56.62333301387844 174.26218097447418,56.496331997259404 174.3039443155285,56.4201313504891 174.7424593968317,56.11532848684874 174.6380510441959,56.1407287424081 174.11600928066764,56.521732206703746 173.09280742472038,56.85193465037446 172.94663573091384,56.95353529791464 172.92575406038668,56.97893545216357 172.967517401441,57.05513589634211 173.3433874710463,57.46153779869201 173.6566125289537,58.02033913115156 173.6566125289537,58.121939213815494 173.59396751737222,58.2743392456905 173.57308584684506,58.50293908614549 173.59396751737222,58.756938617356354 173.69837587012444,59.0363377470494 173.9280742459232,59.34113637395785 174.3039443155285,59.620534727029735 174.5127610209165,60.38252834713785 174.55452436197083,60.38252834713785 174.55452436197083,60.306329109473154 174.42923433869146,59.84913310314005 174.5127610209165,59.92533250656561 174.76334106724244,60.611125894487486 175.03480278421193,60.5603264610254 175.0556844548555,60.58572617925529 174.47099767974578,60.81432350551768 173.88631090486888,60.96672158490401 173.15545243630186,61.22071813822549 172.09048723895103,61.47471438461798 170.52436194906477,61.9827059564268 169.54292343382258,62.21130176309089 169.2714617169695,62.36369882943109 169.18793503474444,62.516095785278594 169.31322505802382,62.77009046607418 169.3758700696053,62.846288810440456 169.54292343382258,62.897087691293564 171.23433874710463,62.36369882943109 171.65197215776425,62.3128998195898 171.86078886303585,62.38909832968784 171.96519721590448,62.56689474597806 172.15313225064892,63.04948426032206 172.44547563802917,63.40507582495047 172.61252900224645,63.76066678800271 173.21809744776692,65.94499807539978 173.42691415315494,66.91016048211895 173.42691415315494,67.2657455146691 173.30162412987556,67.34194222911901 171.77726218104362,67.64672881051956 170.90023201867007,67.72292538685724 170.16937354998663,67.84991961927153 167.78886310907546,68.30709822064091 166.51508120645303,68.6118834023946 165.9930394431576,68.68807962872961 165.3665893272264,68.5864846540644 164.05104408354964,68.12930666049942 163.80046403722372,68.10390785381605 161.2946635731496,68.91666814213386 159.5197215777589,70.18659980037773 158.37122969841585,70.89775817726331 158.05800464039203,71.17714116696152 155.8863109049853,72.67564359206881 154.82134570775088,73.48838620143943 153.00464037118945,74.70749422276276 152.27378190250602,75.2408517585427 151.31322505802382,76.25676713026769 148.3689095127629,79.53306075157889 148.13921113696415,79.73624006961472 147.97215777263045,79.78703486846644 147.5127610209165,79.71084266561957 147.13689095131122,79.63465043519682 146.96983758709393,79.53306075157889 146.15545243618544,78.440968552095 144.98607888631523,76.94250723029836 144.7772621809272,76.73932521167444 144.69373549893498,76.71392744551122 144.42227378184907,76.99330270425708 143.35730858473107,77.75523334066384 139.49419953592587,80.75213371400605 138.93039443169255,81.10769532955601 137.2807424593484,82.37755333258247 135.17169373563956,84.0283572676999 134.58700696064625,84.46010385044792 133.73085846868344,84.81565919396235 133.22969837579876,85.32359435566468 133.10440835275222,85.37438780434604 133.04176334105432,85.19661068025744 133.08352668222506,85.0696269282198 133.4802784222411,84.61248478553898 133.8561484919628,84.30772280480596 134.1276102088159,84.15534164880228 134.85846867749933,83.87597590910445 135.10904872394167,83.72359444011818 137.8236658932874,81.69183096378401 139.7030162413139,80.14259811659576 140.05800464050844,79.8886244292953 140.47563805105165,79.68544525858306 141.45707656617742,78.99971410726721 142.68909512762912,77.9838119930937 143.14849187945947,77.67904040137364 144.58932714618277,76.6123363503284 144.75638051040005,76.58693856881291 144.88167053379584,76.6123363503284 144.96519721578807,76.71392744551122 145.54988399066497,77.52665443976002 147.07424593972974,79.4568684566766 147.32482598617207,79.58385559949966 147.86774941999465,79.63465043519682 148.0556844548555,79.60925301884708 148.1600928074913,79.53306075157889 149.41299303958658,78.21239039680222 150.33178654289804,77.2980752903095 152.25290023209527,75.16465790774964 152.9837587006623,74.68209621113783 154.63341067289002,73.4629880424327 155.17633410682902,73.10741349461023 157.9118329467019,71.1263442873751 159.0394431555178,70.36438962018292 160.41763341077603,69.34844576689648 161.3990719257854,68.71347836474888 163.0069605568424,68.10390785381605 163.967517401441,67.9261161218601 164.65661252907012,68.0785090442223 165.8468677494675,68.53568714839639 166.24361948959995,68.56108590278018 167.32946635736153,68.40869333028968 169.22969837591518,67.90071729074407 170.4408352668397,67.67212767231103 171.4013921113219,67.57053220663511 172.34106728539336,67.39274002338061 172.69605568458792,67.2911444225756 172.92575406038668,67.18954877265787 173.0719257540768,67.06255414118641 173.15545243630186,66.85936257128196 173.1763341067126,66.55457484797807 173.11368909513112,66.0973924343125 172.65429234341718,64.52264539693715 172.19489559170324,63.20188071887242 172.13225058012176,62.87168825240224 172.13225058012176,62.94788655998127 172.46635730855633,63.58287138164451 172.65429234341718,64.06545856308367 173.21809744776692,66.17358957231045 173.30162412987556,67.01175626712211 173.23897911829408,67.24034660375037 173.09280742472038,67.34194222911901 171.44315545249265,67.72292538685724 167.58004640368745,68.45949086672044 166.13921113696415,68.76427582744509 165.76334106735885,68.76427582744509 164.3433874710463,68.28169943550893 163.8631090488052,68.18010426440742 161.46171693736687,68.865870716254 158.935034802882,70.61837481615657 157.8074245939497,71.35493014888198 157.3271461717086,71.73590603230696 155.0719257540768,73.36139537584677 153.23433874710463,74.5805041338026 152.25290023209527,75.2916476438404 151.2714617169695,76.30756277001637 148.41067285393365,79.40607357799308 148.11832946632057,79.68544525858306 147.9512761021033,79.76163747052487 147.82598607894033,79.76163747052487 147.22041763341986,79.66004784837423 146.96983758709393,79.53306075157889 146.42691415315494,78.8219315916649 146.00928074249532,78.16159521750524 144.81902552209795,76.79012073477497 144.6728538282914,76.73932521167444 143.7122969838092,77.52665443976002 141.10208816709928,79.4568684566766 140.05800464050844,80.3203795151203 138.42923433880787,81.5140507252363 137.19721577735618,82.50453871092759 136.3201856148662,83.11406745918794 134.90023201855365,84.25692909846839 134.46171693736687,84.51089750777464 133.70997679815628,84.79026240362145 133.20881670538802,85.29819762670377 133.06264501158148,85.34899108151149 133.0,85.19661068025744 133.04176334105432,85.0950236847275 133.41763341065962,84.71407201432157 134.58700696064625,84.129944778746 135.0881670534145,83.79978518841381 136.8631090488052,82.40295041436912 137.2807424593484,82.02199386505526 138.22041763341986,81.31087312559248 139.20185614854563,80.44736613627174 139.57772621815093,80.16799546843686 141.22737819026224,79.1520990008139 142.20881670538802,78.2631855639629 143.41995359631255,77.47585909473128 144.6310904873535,76.56154078429972 144.8399071925087,76.56154078429972 144.9443155452609,76.6123363503284 145.34106728539336,77.24727989001258 147.05336426920258,79.50766332303465 147.22041763341986,79.58385559949966 147.61716937355231,79.60925301884708 147.90951276104897,79.58385559949966 148.07656612538267,79.53306075157889 150.26914153131656,77.19648447733198 152.1276102088159,75.13925995136378 153.81902552209795,74.02174683076737 154.19489559170324,73.7169694940676 155.76102088170592,72.57405054496485 156.13689095142763,72.34546600929752 156.82598607894033,71.81210112609551 158.4965197215788,70.69457031514321 161.06496519723441,68.8150732780341 161.5034802784212,68.56108590278018 161.9837587006623,68.38329455751227 162.5266821346013,68.25630064729194 163.46635730855633,67.9261161218601 163.84222737816162,67.84991961927153 164.57308584696148,68.00231259685825 165.8468677494675,68.43409210008394 166.13921113696415,68.45949086672044 166.45243619487155,68.45949086672044 167.30858468683437,68.30709822064091 168.29002320196014,68.00231259685825 168.95823665894568,67.87531845649937 169.52204176341183,67.79912193550263 170.52436194906477,67.57053220663511 171.54756380512845,67.44353780533129 172.2157772622304,67.31654332735343 172.7587006961694,67.16414985252777 172.98839907185175,67.01175626712211 173.09280742472038,66.85936257128196 173.11368909513112,66.70696876487636 173.0719257540768,66.42757983283082 172.36194895592052,63.91306273076043 171.96519721590448,63.02408483985346 171.8399071926251,62.49069630034501 171.86078886303585,62.3128998195898 171.92343387473375,62.236701281843125 172.15313225064892,62.084304123403854 172.94663573091384,61.85570817855478 173.48955916473642,61.75410990107048 175.07656612526625,61.296917044426664 175.7447795823682,61.01752092008246 175.849187935004,60.915922237414634 175.78654292342253,60.78892381492187 175.68213457078673,60.71272472452256 175.30626450118143,60.5603264610254 174.76334106724244,60.6619253156241 174.65893271460664,60.6619253156241 174.59628770302515,60.611125894487486 174.42923433869146,59.89993270851846 174.4083526681643,59.97613209353585 174.5127610209165,60.280929357453715 174.5127610209165,60.40792808693368 174.4083526681643,60.331728858393035 174.22041763341986,59.6967342132848 173.7819025523495,59.31573650529026 173.5522041763179,58.88393826779793 173.48955916473642,58.55373901693383 173.53132250590716,57.94413903699024 173.19721577723976,57.38533750188071 172.94663573091384,57.05513589634211 172.67517401394434,56.62333301387844 172.50812064972706,55.96292688930407 172.50812064972706,55.83592547351145 172.61252900224645,55.734324285716866 173.57308584684506,55.3787197413767 173.6566125289537,55.353319393718266 173.69837587012444,55.27711833245121 173.67749419959728,55.15011650219094 173.36426914157346,54.413504373369506 173.3433874710463,54.13409909726761 173.4477958236821,53.85469344977173 173.5522041763179,53.16887801256962 174.03248259867541,51.5432324798021 174.53364269144367,49.434954698444926 174.7424593968317,48.90153166586242 175.01392111368477,48.41890965998755 175.30626450118143,48.06329273585288 175.5986078886781,47.75847775046714 176.392111368943,47.14884645311395 177.08120649657212,46.81862876194646 179.83758700697217,45.700965033174725 179.8793503481429,45.59935894492082 179.79582366591785,45.16753252147464 179.96287703013513,45.01512298366288 183.7424593968317,43.59262863334152 184.5359628770966,43.33861077162146 184.68213457078673,43.23700354102766 184.68213457078673,43.160798085751594 183.86774941999465,40.74761104141362 183.65893271460664,40.54439402499702 183.49187935038935,40.49358974020288 183.05336426920258,40.67140468326397 182.88631090486888,40.696806805746746 182.7610208815895,40.56979616281751 182.59396751737222,40.21416595428309 182.55220417643432,39.96014400816057 182.67749419959728,39.83313291995728 183.05336426920258,39.55370825564023 183.01160092803184,39.248880925253616 183.11600928066764,38.89324848090473 183.28306264500134,38.69002967105189 183.3039443155285,38.53761543464498 183.15777262183838,38.156579359885654 182.67749419959728,37.36910261574667 182.36426914157346,36.50541505089495 181.8004640371073,35.56551572556782 181.40371229697485,34.625612195639405" stroke="#4DD2FF" stroke-linecap="round" stroke-linejoin="round" stroke-width="0.5"><title>2025-12-17 15.0km</title><desc>16763843349</desc></polyline><polyline fill="none" points="64.94991922448389,126.21775628079195 64.7318255250575,126.3769407466607 64.64458804519381,126.58918652155262 64.68820678512566,126.7749014061119 64.90630048455205,127.01367745531024 65.25525040389039,127.19939198072825 65.84410339256283,127.06673876433342 65.9313408723101,127.06673876433342 66.08400646201335,127.17286134383176 66.5856219708221,128.68510252564738 66.73828756052535,129.2687717734807 66.91276252025273,129.7463181852363 66.93457189004403,129.8524394688866 66.91276252025273,130.01162129816657 66.82552504027262,130.06468188232975 65.1680129240267,130.7279381013941 63.597738287528045,131.25854163338954 62.594507269677706,131.7360837153683 62.50726979004685,131.78914388248813 62.441841680090874,131.9483243070863 62.441841680090874,132.2401547855843 62.376413570251316,132.4523948898568 63.20516962837428,135.31761620785983 63.684975767391734,136.27268166797876 63.92487883672584,137.12162525430904 64.29563812597189,137.91750688414322 64.84087237471249,138.95214868821495 65.14620355400257,139.69496543693822 65.14620355400257,139.8541401274706 64.99353796441574,139.96025652368553 63.79402261704672,140.25207634871185 63.161550888442434,140.43777967165806 63.0088852988556,140.570424806152 62.94345718889963,140.6500118484255 62.92164781910833,140.8887728019181 62.98707592894789,141.28670714715554 63.619547657552175,143.32942542855744 63.96849757665768,143.9395843445236 64.42649434576742,145.05378320559976 64.66639741521794,145.66393732794677 64.7318255250575,145.9292211998836 64.90630048455205,146.32714640673657 64.97172859450802,146.61895776644815 64.90630048455205,146.7781274355657 64.38287560571916,146.72507089193095 64.49192245560698,146.53937288862653 64.49192245560698,146.35367472813232 63.94668820663355,144.8946122860798 63.51050080766436,144.15181313507492 63.139741518418305,143.85999849518703 62.92164781910833,143.8334698723629 62.09289176086895,144.0722273626743 60.500807754462585,144.73544125104672 59.541195476427674,145.18642555037513 59.083198707550764,145.45170999955735 58.9087237479398,145.50476685081958 57.81825525034219,145.39865313531482 57.01130856212694,145.47823842677462 56.793214862584136,145.42518156902224 56.74959612265229,145.26601091884368 56.4224555734545,144.73544125104672 56.00807754439302,143.7273553487321 56.05169628432486,143.64776942251774 56.575121163157746,143.27636805127258 56.4224555734545,143.32942542855744 55.94264943455346,143.6742980677809 54.74313408706803,144.0987559567293 54.677705977344885,144.20487030070217 55.04846526647452,144.57627010061697 55.419224555720575,145.29253936854366 55.33198707585689,145.58435210383323 55.31017770594917,145.87616445111053 55.419224555720575,146.30061808200844 55.637318255146965,146.64548605259915 56.117124394048005,146.9903534814075 56.400646203546785,147.86578375166573 56.378836833522655,148.02495251660002 56.29159935365897,148.0780087459425 55.7681744749425,148.26370544756355 53.73990306945052,148.84732262980833 53.32552504027262,149.03301868059498 52.453150242217816,149.2982984806149 50.119547657552175,149.88191291208204 49.96688206773251,149.96149657790374 49.901453957892954,150.14719168611919 49.9450726978248,150.30635879661713 50.0541195475962,150.4389979671978 50.14135702745989,150.51858143114077 50.315831986954436,150.51858143114077 51.47172859450802,150.17371954588452 53.020193860982545,149.80232921736024 53.34733441029675,149.7758013126586 53.56542810972314,149.88191291208204 53.65266558958683,150.01455233912566 53.87075928912964,150.59816486615455 54.19789983832743,151.10219261798193 54.63408723741304,152.40204832081508 55.244749596109614,154.60382715331798 55.26655896601733,154.89562750972982 55.17932148615364,155.0282639071811 52.36591276258696,155.61186310381163 50.73021001613233,155.87713495294156 47.54604200320318,156.51378608313098 47.284329563728534,156.48725898952398 45.844911146909,156.00977075738774 45.21243941842113,155.87713495294156 44.51453957997728,156.03629790860577 42.595315024256706,156.67294857707748 40.78513731819112,157.84013667343243 40.30533117929008,158.21151340266806 38.9313408723101,159.13995247680577 37.05573505652137,160.54586702786037 35.02746365102939,161.89871969868545 33.1082390951924,163.25156403236906 32.27948303706944,164.1004032790661 30.687399030663073,165.9307017360552 29.13893376418855,167.62835622899001 28.768174474826083,167.94666498486185 28.593699515331537,167.97319069363584 27.808562197140418,167.86708783909853 27.63408723741304,167.81403639267955 27.54684975766577,167.76098493335303 25.409531502402388,164.89618709194474 25.278675282606855,164.790082750289 25.191437802859582,164.790082750289 24.711631663958542,165.21449980935722 23.970113085582852,165.7450199794548 20.45880452345591,168.45065290441562 18.539579967735335,169.88303330623603 17.950726979062892,170.3339659429621 17.601777059724554,170.57269461094984 14.744749596109614,172.80081632747897 14.504846526542678,172.9599670133175 13.763327948283404,173.19869282589934 13.196284329635091,173.7822437192226 13.043618739815429,173.7822437192226 13.021809369907714,173.72919370209274 13.0,173.67614367214264 13.087237479747273,173.49046846636338 13.50161550892517,172.9864921165281 13.806946688215248,172.72124094127503 14.003231017733924,172.61514038144378 14.570274636498652,172.42946427840798 14.919224555720575,172.243788018357 16.11873990308959,171.23582843776967 17.776252019335516,170.09523701535363 19.390145395766012,168.60980674394523 20.044426494278014,168.15887056571955 21.614701130776666,167.23046963509114 22.87964458798524,166.14290926564718 23.79563812597189,165.53281206528482 24.558966074255295,164.89618709194474 24.973344103316776,164.60440002889663 25.21324717288371,164.55134779393848 25.365912762470543,164.60440002889663 25.627625201945193,164.8166088404978 25.911147011211142,165.16144772188272 27.45961227780208,167.20394383648818 27.808562197140418,167.57530472477083 28.048465266590938,167.70793346117716 28.61550888523925,167.76098493335303 28.811793214874342,167.70793346117716 31.167205169564113,165.16144772188272 32.38852988684084,163.75556273100665 33.02100161544513,163.09240630816203 37.339256865903735,160.06838762402185 38.42972536350135,159.3786933182855 39.716478190617636,158.47678211027232 41.33037156693172,157.23001639728318 42.55169628432486,156.43420479279303 44.90710823913105,155.63839030318195 45.343295638100244,155.55880869549583 45.561389337526634,155.58533590128354 46.04119547654409,155.7179718818952 47.43699515343178,156.2485150033026 47.894991922425106,156.27504212566419 50.20678513729945,155.69144469221646 50.97011308558285,155.55880869549583 51.88610662345309,155.3200636995025 52.84571890137158,155.24048197640514 54.13247172860429,155.00173663410533 54.503231017733924,154.89562750972982 54.76494345709216,154.76299103217025 54.85218093695585,154.6834091071505 54.91760904691182,154.52424517052714 54.93941841670312,154.25897168641677 54.89579967688769,153.96717048356368 54.65589660743717,153.0652370404132 54.176090468419716,151.526636142793 53.478190630092286,149.85538501705742 53.34733441029675,149.80232921736024 53.06381260091439,149.82885711877316 51.0137318255147,150.4389979671978 50.53392568649724,150.54510924601345 50.38126009691041,150.54510924601345 50.7084006461082,150.3328866371885 50.77382875594776,150.22677525581094 50.882875605719164,149.80232921736024 51.10096930526197,149.6166338174371 52.64943457185291,149.05954667505284 53.65266558958683,148.84732262980833 55.899030694621615,148.2106492631283 56.16074313397985,148.13106496237742 56.48788368329406,147.91884001946892 56.46607431338634,147.68008671341522 56.26978998386767,147.17605110321892 56.35702746361494,147.54744587559253 56.378836833522655,147.7596711776132 56.3134087236831,147.7331430260965 56.07350565423258,147.0699381956656 55.9862681744853,146.93729698915558 55.637318255146965,146.69854261545697 55.419224555720575,146.30061808200844 55.37560581578873,146.14144806668628 55.37560581578873,145.23948246586951 54.983037156634964,144.57627010061697 54.48142164782621,143.85999849518703 54.32875605812296,143.1437245522393 54.37237479793839,142.98455224742065 54.48142164782621,142.90496605173394 54.91760904691182,142.69273605555645 55.46284329565242,142.50703464054095 55.55008077528328,142.42744827171555 55.2229402262019,141.79075628214923 55.15751211636234,141.55199630989227 55.11389337631408,141.33976500542485 55.33198707585689,140.27860540442634 55.59369951533154,139.4562031848327 55.9862681744853,137.67874269830645 56.35702746361494,136.3257407382771 56.662358643021435,135.47679407318356 56.94588045228738,135.02578982169507 57.33844911144115,134.57478464323503 57.70920840057079,134.25642748872633 58.38529886910692,133.80542072931712 61.06785137322731,132.82381457839801 62.57269789988641,132.13403465645388 66.2366720517166,130.83405891049188 66.95638126006816,130.43610561202513 67.0,130.32998461052193 66.97819063009229,130.06468188232975" stroke="#4DD2FF" stroke-linecap="round" stroke-linejoin="round" stroke-width="0.5"><title>2025-12-15 10.0km</title><desc>16746108493</desc></polyline><polyline fill="none" points="126.95671342685819,127.5704742752423 126.89178356714547,127.51781736506382 126.84849699400365,127.62313117276062 126.9783567134291,128.43931145586248 127.0,128.7025947656948 126.87014028045814,128.86056459881365 126.0909819639055,129.09751913360378 125.22525050106924,129.49244278534024 123.62364729458932,130.0979909938178 121.3943887775531,130.88783395272912 118.01803607214242,132.20423251879402 117.19559118233155,132.62547837934108 116.3731462926371,133.15203455940355 115.07454909814987,133.6785894663917 114.46853707404807,134.0471771438315 114.38196392788086,134.1788154488895 114.36032064119354,134.33678130993212 114.68496993987355,135.28457407008682 114.87975951901171,136.04807079402963 115.03126252512448,136.52196396613726 115.05290581157897,136.81156484151143 114.68496993987355,138.4701806185185 114.44689378759358,139.23366617537977 114.31703406816814,139.52326344512403 114.33867735473905,139.8391873002256 114.25210420845542,140.1287837648415 114.01402805617545,140.68164867353335 113.75430861720815,141.1292049527401 113.2997995991027,141.70839406648884 113.08336673351005,141.89268118877953 111.63326653302647,142.65615474872175 110.29138276551384,143.10370697072358 108.94949899800122,143.36697255408217 108.12705410819035,143.445952167036 107.23967935878318,143.65656432819378 106.78517034067772,143.7355438361701 106.46052104199771,143.8145233154646 105.98436873743776,144.0251351203333 103.99318637268152,144.3410524456558 103.38717434869613,144.49901093654626 102.86773547087796,144.68329569777416 102.3266533066053,144.81492757468368 101.52585170336533,144.893906662488 99.55631262518,145.34145428659394 98.77715430851094,145.36778058871278 98.75551102205645,145.63104343554005 99.27494989987463,147.57917861289752 99.42645290575456,148.23732845150516 99.64288577158004,149.6062737460161 99.72945891774725,149.97483447073319 100.24889779556543,150.94888481283851 100.53026052098721,151.8176287405222 100.85490981966723,152.4494403299177 101.11462925851811,153.05492471679463 101.82885771547444,154.52914053447603 102.0020040080417,154.73974197967618 102.47815631260164,154.81871746911202 103.2573146292707,154.84504262596602 104.27454909821972,154.55546572625462 105.07535070145968,154.45016494003357 105.4432865731651,154.50281533948146 107.32625250495039,155.05564376582333 107.52104208420496,155.05564376582333 108.51663326658309,154.92401807730494 110.24809619237203,154.47649014134367 111.46012024045922,154.2922136651614 112.3474949899828,154.05528653827787 113.38637274550274,153.92366024528746 114.5118236473063,153.6604074206989 114.57675350701902,153.6077568175824 114.62004008016083,153.52878088910074 114.64168336673174,153.37082894623745 114.44689378759358,152.370463981395 114.1655310621718,151.58069892202911 113.97074148303363,150.6593027336785 113.47294589178637,149.36934152229514 113.45130260521546,149.26403822895372 113.47294589178637,149.13240904080158 113.6028056112118,149.18506072559103 113.64609218435362,149.29036405705847 114.01402805617545,150.18544031919737 114.38196392788086,151.26479209655372 114.92304609215353,153.21287688877783 114.96633266529534,153.55510620183486 114.9014028054662,153.73938330152305 112.80200400797185,154.1869127517275 111.4168336673174,154.45016494003357 110.09659318625927,154.7923923092021 107.6509018036304,155.26624470198294 107.28296593192499,155.31889490423782 107.10981963924132,155.29256980471837 105.27014028059784,154.66076646152942 105.07535070145968,154.63444128251285 103.69018036068883,155.02931863442063 102.45651302603073,155.4241952705488 100.91983967937995,156.4508711744711 100.55190380755812,156.74044555459113 99.5130260521546,157.42489255922555 92.9334669340169,162.08434001715796 92.024448897806,163.00568788248347 91.26693386770785,163.92703185118444 89.77354709419888,165.48014572095417 88.95110220438801,166.42780298215803 88.69138276553713,166.63839292481134 88.53987975954078,166.66471665339486 88.258517034119,166.66471665339486 87.80400801601354,166.61206919315737 87.52264529059175,166.5067742345127 87.0897795590572,166.0066224860784 86.41883767547552,165.00631554456777 85.66132264526095,164.03232805665175 85.29338677355554,163.61114292943967 85.2284569137264,163.55849473121634 85.1418837675592,163.55849473121634 83.6052104209084,164.6904281877505 83.12905811611563,165.00631554456777 81.89539078157395,166.03294629089942 79.27655310626142,167.98089902408537 77.52344689378515,169.37604365577863 75.61883767531253,170.7711793535127 74.79639278561808,171.4555822784605 74.62324649293441,171.56087484541058 73.75751502998173,171.87675224071427 73.23807615239639,172.42953658048646 73.12985971942544,172.48218263493618 73.0,172.40321354851767 73.0216432865709,172.27159834076883 73.08657314628363,172.16630611741857 73.82244488981087,171.4555822784605 74.06052104209084,171.29764333280036 74.81803607218899,170.98176509782206 75.20761523046531,170.7711793535127 76.91743486968335,169.58663074868673 77.6316633267561,169.0075157534593 78.41082164330874,168.48104624015104 79.92585170350503,167.2438378761144 81.3975951904431,166.24353661536588 83.10741482966114,164.79572402421036 83.51863727450836,164.53248433757108 84.1679358718684,164.00600401012343 85.03366733470466,163.47952241021267 85.1418837675592,163.45319829677464 85.33667334681377,163.47952241021267 85.96432865737006,164.03232805665175 86.80841683375183,165.16425905122014 87.30621242488269,165.9013272348675 87.67414829670452,166.26986039156327 87.9987975951517,166.40147922498 88.66973947908264,166.42780298215803 90.09819639276247,164.97999161560438 90.50941883772612,164.50616035147686 91.0937875751406,163.87438372935867 91.65651302598417,163.21628113304905 92.9983967934968,161.84742136482964 93.75591182359494,161.37358328718983 94.5567134268349,160.71547313628253 97.15390781557653,158.95172812788223 97.97635270550381,158.4515590340452 98.86372745491099,157.71446564458893 99.8376753507182,157.13531908896402 101.35270541079808,155.95069633856474 102.28336673346348,155.34522000052675 102.82444889773615,155.2135944870097 104.23126252507791,154.6870916375192 105.09699398803059,154.50281533948146 105.65971943887416,154.52914053447603 106.91503006010316,154.92401807730494 107.6509018036304,155.00299349993293 108.45170340675395,154.89769293001154 109.230861723423,154.6870916375192 109.77194388781209,154.63444128251285 110.1615230460884,154.50281533948146 111.0705410821829,154.2922136651614 113.81923847692087,153.79203387274174 114.36032064119354,153.6077568175824 114.55511022044811,153.44980493193725 114.62004008016083,153.29185293178307 114.64168336673174,153.02859934371372 114.57675350701902,152.73902002924297 114.12224448891357,151.44907113375666 113.9274549097754,150.63297707104357 113.5811623246409,149.57994795613922 113.49458917835727,149.158734884797 113.53787575149909,149.0271056329657 113.5811623246409,148.97445390994835 113.66773547092453,149.07975734317733 113.99238476948813,150.31706887106702 114.46853707404807,151.68600109541148 114.72825651301537,152.6337183649739 114.8364729458699,153.21287688877783 114.8364729458699,153.42347960654297 114.74989979958627,153.6077568175824 114.5118236473063,153.73938330152305 113.16993987979367,154.0816117873619 107.32625250495039,155.26624470198294 107.02324649307411,155.23991959611885 105.59478957916144,154.7660671460617 105.24849699402694,154.66076646152942 104.98877755505964,154.63444128251285 104.03647294582333,154.9503432213387 102.43486973957624,155.4241952705488 102.19679358717985,155.55582065682393 99.88096192386001,157.16164396582462 99.40480961918365,157.45121740107425 98.34428857720923,158.21463643079915 95.22765531064942,160.34693058337143 95.09779559110757,160.42590404005023 94.96793587179855,160.37325507207424 94.98957915825304,160.24163259657507 95.09779559110757,160.1626590731321 95.63887775561307,159.8467646928184 96.98076152300928,158.95172812788223 98.3226452905219,157.89873922572588 99.08016032062005,157.50386707519647 99.29659318644553,157.34591801463102 99.31823647290003,157.1879688394547 99.27494989987463,157.10899420888745 98.86372745491099,156.31924632900336 98.49579158320557,155.50317051185993 97.82484969939105,154.2922136651614 97.78156312624924,154.213237984819 97.78156312624924,154.0816117873619 97.91142284567468,153.8446844312857 98.06292585167103,153.71305801106791 99.33987975947093,153.1602261775406 100.01082164328545,152.76534543737944 100.07575150299817,152.6600437857851 99.98917835671455,152.42311488358246 99.49138276546728,151.47539669777325 99.31823647290003,150.9225591852155 98.88537074148189,149.92218297686486 98.5607214429183,148.5795655817201 98.51743486977648,148.50058783017448 98.3226452905219,148.3952841168939 98.14949899795465,148.3689581805811 97.88977955910377,148.4216100499616 97.91142284567468,148.3689581805811 98.2793587174965,148.10569864288846 98.34428857720923,147.97406875471643 98.40921843680553,147.57917861289752 98.2793587174965,146.9210267856397 98.08456913824193,146.76307005119452 97.39198396797292,146.81572230871825 97.21883767528925,146.76307005119452 97.15390781557653,146.71041778090876 97.0673346692929,146.34185153264843 97.02404809615109,145.94695843171212 97.11062124255113,145.76267473961343 97.30541082157288,145.63104343554005 97.93306613224559,145.4204331834917 98.06292585167103,145.36778058871278 98.12785571150016,145.23614904594433 98.01963927852921,144.73594845803746 97.9979959919583,144.49901093654626 97.84649298596196,143.7618703324988 97.3486973948311,142.57717484941531 97.37034068140201,142.44554162021086 97.47855711425655,142.23492828800227 98.2793587174965,141.62941382356803 99.08016032062005,140.81328296879656 99.68617234472185,140.3130722236674 101.07134268549271,139.8128603297664 103.10581162327435,138.83876018699084 104.90220440877602,138.2332362807647 105.87615230469964,137.81200126626936 106.59038076153956,137.41709270016872 108.34348697401583,136.7589101655176 108.9062124248594,136.46930922013416 109.29579158313572,136.04807079402963 109.40400801610667,135.9954159334593 110.03166332654655,135.89010617414897 111.15711422846653,135.4162116272346 111.78476953902282,135.1792639670748 113.04008016036823,134.54740227969887 114.72825651301537,133.83655569025723 116.04849699395709,133.17836233500566 116.63286573137157,132.96774004121835 117.80160320631694,132.20423251879402 119.03527054109145,131.7040020009881 119.74949899804778,131.51970625747344 120.24729458917864,131.33541035796225" stroke="#4DD2FF" stroke-linecap="round" stroke-linejoin="round" stroke-width="0.5"><title>2025-12-07 12.0km</title><desc>16672159472</desc></polyline><polyline fill="none" points="184.68727272725664,126.24796523762052 184.57818181824405,126.40721392417618 184.60000000009313,126.61954532652453 184.70909090910573,126.77879374353506 184.90545454551466,126.91150066944829 185.23272727266885,126.99112478656753 185.97454545449,126.85841790874838 186.17090909089893,126.99112478656753 186.3236363637261,127.68119925793144 186.73818181827664,128.84901265265944 186.95636363641825,129.59216339685372 187.0,129.751409657576 186.97818181815092,129.85757376723632 186.93454545456916,129.91065580275608 186.58545454544947,129.9902788321051 185.51636363647413,130.49455734714866 183.59636363643222,131.15807994417264 182.76727272733115,131.5296517226816 181.3272727272706,132.08700821123784 178.68727272737306,133.0159325478162 177.8363636363065,133.44058236407 177.09454545448534,133.9183124255942 174.73818181816023,135.00647146298434 172.9709090909455,135.90884315948642 172.68727272725664,136.09462510726007 172.6436363636749,136.43964830733603 172.55636363639496,136.6254298059648 172.55636363639496,136.78467096526583 173.3200000000652,137.84627574286424 173.4290909090778,138.05859608245373 173.79999999993015,139.0405749820784 174.01818181830458,139.8633106788766 173.99636363633908,140.04908928052464 173.95272727275733,140.1287086330849 173.14545454550534,140.42064601228049 172.8618181818165,140.6595035791397 172.53454545454588,140.79220211521897 172.4036363636842,140.97797993085987 172.44727272726595,141.13721793353034 172.90545454539824,141.853787516171 173.2981818180997,142.62343372229952 173.2981818180997,142.86228889296763 173.1890909090871,143.02152552905318 171.20363636361435,143.9238642854034 170.63636363635305,144.08310015156167 169.87272727279924,144.26887518286821 168.4545454545878,144.4281107988063 167.3200000000652,144.773120903963 166.70909090910573,144.87927775026765 165.33454545447603,145.2773654670309 164.3745454546297,145.3569829238404 162.82545454555657,145.78160887214472 162.06181818188634,145.8081479667162 160.46909090911504,146.15315590344835 160.01090909098275,146.17969495302532 158.7018181817839,146.3654682104243 158.63636363635305,146.2593120826059 158.5927272727713,145.86122614612395 158.50545454549138,145.48967862088466 158.43999999994412,145.3569829238404 158.46181818190962,145.56929600064177 158.61454545462038,145.96738246643508 158.96363636374008,146.5777803122328 159.53090909100138,148.38242488839023 159.64000000001397,149.25820294032746 159.90181818185374,150.13397749938304 159.967272727401,150.79744074902555 160.03272727271542,151.0628254875628 160.14181818184443,151.27513304750028 160.5127272728132,151.8059010492725 160.6218181818258,152.09782290339353 160.73090909107123,152.60205064644106 160.9709090909455,153.29204462909547 161.27636363648344,153.90242211417353 161.62545454548672,154.5127979027311 162.03999999992084,155.49470321986882 162.19272727274802,155.70700649493665 162.3018181817606,155.8396959376987 162.47636363643687,155.91930956482247 162.78181818174198,155.94584743407904 163.80727272725198,155.94584743407904 165.40000000002328,155.60085488305776 167.4072727272287,156.23776378469483 167.62545454548672,156.23776378469483 172.18545454542618,155.20278588155634 172.70909090910573,155.09663402584556 173.5381818182068,155.04355807884713 174.52000000013504,154.85779216304945 174.86909090913832,154.7516401406756 174.95636363641825,154.69856411029468 175.04363636358175,154.56587397799012 175.04363636358175,154.2739554048312 174.91272727272008,153.84934587847965 174.47636363632046,152.09782290339353 173.84363636374474,150.37282450018392 173.82181818189565,150.16051606783003 173.90909090905916,150.08090035281202 174.04000000003725,150.1870546330756 174.14909090916626,150.47897863938124 174.62909090914764,151.965131199584 175.109090909129,153.63704080741445 175.28363636357244,154.45972181444813 175.26181818183977,154.72510212707857 175.19636363640893,154.83125416230178 174.91272727272008,154.93740614618582 173.6472727273358,155.2293238374259 170.5927272727713,155.7600822816603 167.80000000004657,156.34391508872795 167.45090909092687,156.37045290674723 166.8399999999674,156.23776378469483 165.33454545447603,155.68046859680908 162.71636363642756,156.50314194850216 159.29090909089427,158.8119184418465 157.19636363629252,160.35108928573027 153.13818181829993,163.19056581068435 152.22181818180252,164.11935857457865 151.6763636363903,164.80931637062167 151.17454545455985,165.31351492772228 149.51636363647413,167.14454205824586 148.90545454539824,167.72834460038575 148.7309090908384,167.80795391758147 148.33818181813695,167.80795391758147 147.79272727272473,167.70180815480126 147.64000000001397,167.62219879901386 146.94181818177458,166.7730305416335 145.50181818183046,164.80931637062167 145.37090909085236,164.67663234744396 145.2400000001071,164.67663234744396 143.7563636363484,165.8442490004527 142.8618181818165,166.45459159856546 142.20727272727527,167.03839597475599 140.06909090909176,168.71019083051942 139.47999999998137,169.0816990702442 138.1054545454681,170.09007541034953 137.23272727266885,170.80655052274233 136.42545454541687,171.390343330655 135.00727272732183,172.55792429110443 134.63636363635305,172.79674690481625 133.87272727268282,173.11517665236897 133.63272727269214,173.27439135301393 133.21818181825802,173.69896332382632 133.13090909086168,173.75203476239403 133.0,173.69896332382632 133.0,173.56628467106202 133.08727272727992,173.4070701819728 133.76363636367023,172.69060355296824 134.19999999995343,172.47831669561856 134.63636363635305,172.31910141784465 135.31272727274336,171.921062718553 135.74909090902656,171.60263123971527 136.5127272728132,170.91269478507456 137.21090909093618,170.48811742803082 138.14909090904985,169.66549646304338 138.78181818174198,169.26745295451838 139.87272727268282,168.4448274174065 140.1345454545226,168.2856092156144 140.68000000005122,167.83449035034573 141.31272727274336,167.46298000084062 143.23272727278527,165.95039566115884 144.14909090904985,165.28697819044464 144.71636363642756,164.83585316569952 145.21818181825802,164.5174114138208 145.39272727270145,164.4908745802677 145.50181818183046,164.54394824407063 147.00727272732183,166.56073796415876 147.5090909091523,167.19761508073134 147.81454545457382,167.51605294640467 148.0763636364136,167.59566234065278 148.6218181818258,167.62219879901386 148.8618181818165,167.59566234065278 149.9745454546064,166.3484451816039 151.19636363629252,165.07468417657947 152.4836363636423,163.6416942151991 153.09454545448534,163.0313437995792 154.40363636356778,162.1290835562686 155.03636363637634,161.62487768814026 156.5418181818677,160.5899251739902 157.5672727272613,159.8468793353968 159.77090909099206,158.36078011567588 161.21090909093618,157.2727368100459 162.97818181815092,156.15815027304052 163.04363636358175,156.0785367325152 163.0,155.99892316306068 162.4327272727387,155.94584743407904 162.2145454545971,155.8396959376987 161.99636363633908,155.49470321986882 161.77818181819748,155.0170201004803 161.4290909090778,154.5127979027311 161.25454545451794,154.1412650160637 161.05818181822542,153.6105026590667 160.68727272725664,152.86743320406822 160.33818181825336,151.99166954679822 159.8363636364229,150.293208862131 159.55272727273405,149.0724321302987 159.39999999990687,149.0724321302987 158.63636363635305,149.39089627984504 158.33090909093153,149.33781895365973 158.33090909093153,149.2847416146251 158.5709090909222,149.12550952058518 158.63636363635305,148.62127379441517 158.63636363635305,148.249730939453 158.5709090909222,147.95780396951886 158.46181818190962,147.8251097639586 158.28727272723336,147.7454932021792 157.93818181811366,147.71895434177713 157.93818181811366,147.6924154781882 158.02545454551,147.63933774150792 158.2654545455007,147.53318222946837 158.1345454545226,146.7370142537693 158.33090909093153,146.49816329809255 158.3745454546297,146.33892918328638 157.98181818192825,144.215796618475 157.98181818192825,144.00348223291803 158.02545454551,143.844246308945 158.30909090908244,143.57885284582153 158.54909090907313,143.44615599390818 159.64000000001397,143.12768322223565 160.5127272728132,142.7561310713645 161.47272727277596,142.5438152744464 162.06181818188634,142.19880166636722 162.7600000000093,142.01302488365036 162.8909090909874,141.90686665140674 163.0,141.58839164707751 163.04363636358175,141.53531243477482 163.916363636381,141.13721793353034 166.68727272725664,140.31448701015324 168.1054545454681,139.83677086584794 170.8109090909129,139.0405749820784 171.64000000001397,138.69555586914066 172.09818181826267,138.56285606596794 173.12363636365626,138.08513611042872 175.15272727271076,137.3950943396194 175.28363636357244,137.28893387468997 175.32727272738703,137.1827733584214 175.21818181825802,136.70505040003627 175.2399999999907,136.46618853109248 175.32727272738703,136.33348738049972 175.74181818182115,136.12116537264956 175.82909090910107,135.9884640135133 176.09090909094084,135.2453349201096 176.09090909094084,135.05955225368962 176.00363636366092,134.95339065950247" stroke="#4DD2FF" stroke-linecap="round" stroke-linejoin="round" stroke-width="0.5"><title>2025-12-04 10.0km</title><desc>16645549870</desc></polyline><polyline fill="none" points="67.0,215.6662913596374 66.81593523651827,215.91819046945602 66.14870046870783,216.36601043237897 66.07967618235853,216.53394269511045 66.1717085641576,216.89779551324318 66.90796761831734,218.63308570197842 66.97699190466665,218.85699316603132 66.95398380921688,219.08090041347896 66.81593523651827,219.19285395601764 65.29740093741566,219.8365857750032 65.11333617393393,219.97652723800275 65.04431188758463,220.08848034741823 65.11333617393393,220.48031580419047 65.09032807836775,220.760197867261 65.25138474651612,221.23599659802858 65.43544951011427,221.93569883750752 65.55048998724669,222.5234470845462 65.57349808269646,222.88729048975802 65.45845760544762,223.02723010872432 64.58414997870568,223.25113332310866 63.89390711556189,223.47503632113512 63.3187047294341,223.8108904119581 63.22667234763503,223.97881727464846 63.29569663410075,224.28668287332403 63.66382616106421,225.15430190353072 64.03195568814408,226.27380552543036 64.05496378359385,226.4977056002681 64.03195568814408,226.69361798804312 63.77886663831305,226.9175176569115 62.78951853432227,227.2253793480777 61.685129953199066,227.75713948681368 60.58074137195945,228.12097466742853 59.08521516842302,228.792668883616 58.118875159765594,229.12851526096347 57.773753728251904,229.32442542276112 57.68172134645283,229.40838686999632 57.61269706021994,229.60429679499066 57.52066467842087,229.99611614772584 57.49765658285469,230.22001262304548 57.84277801460121,231.143583295212 57.86578610993456,231.33949175199086 57.7047294419026,231.42345246853074 56.922454196959734,231.61936068856448 56.48530038364697,231.84325559424178 56.48530038364697,232.03916345912148 56.76139752881136,232.8787667167635 56.738389433478005,232.9627268751501 55.88708990206942,233.1866204817925 55.33489561150782,233.41051387191692 53.81636131228879,233.91427320841467 52.32083510875236,234.1381658949831 50.38815509167034,234.55796409885806 50.02002556459047,234.6699101580307 48.524499360937625,234.97776154158055 44.79718789958861,235.92929959423782 42.887515977956355,236.23714930348797 41.046868342673406,236.57298488312517 40.60971452924423,236.74090249024448 40.494674052111804,236.936806211379 40.494674052111804,237.07673733933188 40.60971452924423,237.69243329744495 40.60971452924423,237.46854404755868 40.51768214756157,236.99277867276396 40.51768214756157,237.38458552310476 40.56369833834469,237.66444715310354 40.86280357919168,238.25215547521657 41.09288453345653,238.81187630000932 41.36898167873733,240.3790874118131 41.59906263323501,240.88283158787817 41.921175969415344,241.4705317417538 42.51938645087648,243.03772485995432 43.02556455053855,244.01721517274564 43.57775884110015,245.19259807936032 43.738815509248525,245.44446506889653 43.85385598638095,245.528420671224 44.429058372508734,245.61237624307978 45.326374094584025,245.5843910558615 46.476778866606764,245.2765537729574 47.21303792076651,245.19259807936032 47.99531316582579,245.3045389973413 49.39880698767956,245.69633178446384 49.81295270554256,245.72431695823616 51.193438432062976,245.44446506889653 54.04644226678647,244.74483386603242 55.33489561150782,244.6049073718168 57.014486578525975,244.26908344074036 57.17554324679077,244.15714202210074 57.198551342240535,244.07318592259253 57.22155943757389,243.5974341174442 56.8764380060602,242.33808638565824 56.55432466987986,241.0507460697845 56.00213037931826,239.6234690928395 55.979122283752076,239.45555357597186 56.02513847465161,239.3715957718232 56.18619514279999,239.51152542844648 56.23221133358311,239.6234690928395 56.922454196959734,241.8063597313885 57.49765658285469,244.04520054940076 57.45164039207157,244.26908344074036 57.38261610572226,244.35303946914792 57.03749467409216,244.52095143470797 50.66425223695114,245.72431695823616 49.5138474649284,245.97618336942105 49.1687260332983,245.97618336942105 48.89262888790108,245.94819822612044 48.27141031110659,245.75230212853057 47.37409458879847,245.41647986137832 46.821900298353285,245.33252421852376 45.2113336174516,245.86424277604965 44.36003408615943,246.06013877893565 44.03792074986268,246.2000643938518 43.53174265031703,246.50790044905443 42.15125692379661,247.51536104131083 38.44695355789736,250.145931924897 37.181508308509365,250.98546953391633 34.25948018755298,253.08430024125846 33.56923732429277,253.75592205036082 32.76395398378372,254.73536703056016 32.119727311539464,255.37900004789117 31.268427780130878,256.330454275143 29.65786109934561,258.0374652972823 29.473796335747465,258.12141633441206 29.312739667715505,258.12141633441206 28.461440136423334,257.98149792227196 28.27737537282519,257.8975468344288 26.068598210578784,254.95923958720232 25.88453344698064,254.7633511119202 25.746484874282032,254.7913351899915 25.30933106096927,255.18311192760302 24.04388581169769,256.0785991247103 21.720068172202446,257.86956313175324 21.075841499841772,258.3173019694077 20.293566254898906,258.9889086030307 19.373242437141016,259.63252979934623 18.91308052826207,260.02429834750365 18.153813378768973,260.5559831743449 14.725607158034109,263.24237205703685 14.426501917419955,263.41027032764396 13.713250958709978,263.6621175052569 13.230080954381265,264.2217769196577 13.092032381799072,264.33370864034805 13.0,264.305725715225 13.0,264.109845145038 13.759267149609514,263.35430425095547 14.49552620376926,263.018507506873 14.817639539949596,262.794642740424 15.968044311972335,261.8991815106274 16.704303366015665,261.39548304742493 17.92373242438771,260.38808283454273 18.77503195567988,259.7724472140544 19.810396250570193,258.8769742993172 22.042181508266367,257.47779093861755 23.422667234786786,256.3024703830306 24.1819343843963,255.7987597475585 25.240306774619967,254.93125552947458 25.72347677894868,254.65141476597637 25.976565828779712,254.65141476597637 26.16063059226144,254.73536703056016 28.231359181925654,257.47779093861755 28.553472518222407,257.785612003252 28.829569663386792,257.8975468344288 29.38176395406481,257.8975468344288 29.565828717546538,257.86956313175324 30.80826587136835,256.66626071619976 31.314443971030414,256.0785991247103 31.774605879792944,255.65883993220632 32.05070302519016,255.32303203034098 32.786962079349905,254.56746247094998 33.93736685125623,253.25220587616786 34.44354495103471,252.80445724599122 40.31060928851366,248.66274137757136 43.48572645941749,246.36797502014088 44.314017895259894,245.920213079502 46.016616957844235,245.24856854521204 46.36173838947434,244.99670134256303 46.66084363020491,244.6049073718168 46.68385172565468,244.32505412976025 46.45377077127341,243.56944868674327 46.26970600779168,243.34556511900155 46.26970600779168,243.1496668197069 46.06263314874377,242.25412962668634 45.99360886239447,241.33060326900159 45.855560289812274,241.0507460697845 45.6945036216639,240.96678884410358 45.34938219003379,240.99477458934416 43.43971026840154,241.8903166527307 42.79548359604087,242.0862160174147 42.10524073289707,242.17017283722817 41.898167873965576,242.03024478725274 41.66808691958431,241.63844579740544 41.27694929705467,240.74290276007378 41.13890072423965,240.2951299425331 40.931827865424566,239.34360983040824 40.839795483625494,238.5040300138644 40.9088197699748,238.30812761864217 41.16190881980583,238.0562528668961 42.22028121014591,237.5804886996193 41.64507882413454,237.83236396880238 41.53003834700212,238.00028066271625 41.507030251435935,238.1961833183741 41.29995739250444,238.1402111479547 40.9778440563241,237.94430844493036 40.816787388175726,237.7763917104312 40.655730720143765,237.52451638037746 40.56369833834469,237.21666838267993 40.494674052111804,236.68492996810528 40.103536429582164,235.48151746827352 39.82743928418495,234.50199104895 39.55134213890415,233.69038030527008 39.298253089073114,233.1866204817925 39.20622070739046,232.8787667167635 39.160204516374506,232.48695224206313 39.36727737542242,231.7872818880569 39.55134213890415,231.56338692830468 40.03451214323286,231.08760941994842 40.9778440563241,230.30397374546737 41.2539412016049,230.13605147022463 43.14060502778739,229.43637401224987 43.80783979559783,229.07254089861817 44.82019599492196,228.70870721319807 45.832552194362506,228.14896196541667 46.98295696626883,227.75713948681368 49.1687260332983,226.9175176569115 50.89433319144882,226.16185540679726 51.216446527512744,225.88197987344756 51.423519386560656,225.5461287869839 51.607584150042385,225.43417831642728 51.72262462717481,225.4061906903953 51.74563272274099,225.37820306097274 51.40051129099447,224.6785112250218 51.07839795493055,223.83887823086116 51.05538985936437,223.64296342739544 51.101406050263904,223.55899988942838 51.26246271841228,223.39107272222464 54.09245845768601,222.0196629641432 55.726033233921044,221.29197285501868 56.00213037931826,221.09605589641433 56.117170856450684,220.95611511010793 56.508308478980325,220.87215059777373 56.99147848330904,220.59226866997778" stroke="#4DD2FF" stroke-linecap="round" stroke-linejoin="round" stroke-width="0.5"><title>2025-11-30 10.0km</title><desc>16605669845</desc></polyline><polyline fill="none" points="123.17882444849238,214.3272528573434 121.75060420006048,214.7857563385769 120.46123869798612,215.29252211867424 119.05285484192427,215.8958130361716 117.40643427788746,216.52323365592747 117.3072523160372,216.57149669877253 117.24774313915987,216.6921542549826 117.2675795314135,217.36783522153564 117.46594345476478,217.9952512136515 117.98168965557124,219.29833966428123 118.2395627561491,220.1670605714462 118.59661781822797,221.20469447725918 118.89416370319668,221.7355748546688 119.21154598076828,222.55602356958843 119.82647414319217,223.93147414294071 120.00500167428982,224.5106083908613 119.98516528191976,224.67952222992608 119.84631053567864,224.77604435947433 118.6957997798454,225.06561046814022 117.78332573233638,225.2586543072539 117.40643427788746,225.42756751325214 116.43445105315186,225.78952390198538 116.01788681407925,225.98256704096275 115.36328586691525,226.39278309127258 114.88721245073248,226.60995595312852 114.70868491963483,226.8271285785595 114.58966656564735,226.89951940126775 113.59784694877453,227.26147312068497 112.78455486276653,227.50277523571276 111.7133896764135,227.9853785905725 110.70173366717063,228.46798077861604 109.19416784937494,229.33666177662963 107.82545677793678,230.06055972042668 106.95265551505145,230.63967618522292 106.51625488360878,231.02575289501692 105.98067229043227,231.41182885812304 105.08803463506047,231.82203375065 103.00521343946457,232.6907001522486 102.92586787010077,232.78721840791695 102.92586787010077,232.8837366169755 103.26308653992601,233.51110383820196 103.48128685576376,233.6800100608816 103.77883274073247,233.6558806092653 103.52095964038745,233.6800100608816 103.30275932466611,233.6076216971851 103.67965077899862,233.6076216971851 103.50112324790098,233.6800100608816 103.44161407090724,233.6558806092653 103.75899634847883,233.6317511546804 103.58046881738119,233.75239839823917 103.40194128628355,234.0902102922846 103.52095964038745,234.06608089026122 103.48128685576376,234.13846908771666 102.94570426247083,234.59692706153146 102.1125757843256,235.07951326492184 101.02157420560252,235.85164876363706 100.66451914352365,236.06881133450952 99.57351756480057,236.5996521798661 99.41482642607298,236.93745925564144 99.39499003381934,237.20287869979802 99.45449921081308,237.66132963584096 99.9107362346258,239.22970645480382 100.14877294271719,240.3878845039435 100.74386471277103,242.052753677679 100.80337388988119,242.5353218571836 100.96206502849236,243.13853044116695 101.2596109136939,243.98301939676458 101.2992836983176,244.46558291034307 101.37862926768139,244.99640142802673 101.47781122941524,245.45483446659637 101.61666597577278,246.29931362396746 101.75552072213031,246.66123216932465 102.0729029995855,247.2161726646591 102.50930363102816,248.30192134619574 103.52095964038745,250.4492735734093 103.67965077899862,250.69054766120098 103.93752387957647,250.811184595761 104.47310647263657,250.85943934918032 105.06819824280683,250.7870572147076 106.02034507517237,250.52165583029273 106.49641849112231,250.49752841425652 108.04365709365811,250.88356672156078 108.69825804093853,250.9800761816732 109.80909601179883,250.83531197396223 110.64222449017689,250.56991065376496 111.1778070833534,250.4492735734093 112.82422764739022,250.1597442831844 113.97473840310704,250.03910695493687 114.98639441234991,249.79783207987202 115.16492194344755,249.6771945330256 115.28394029755145,249.50830184492224 115.32361308217514,249.3635365699447 115.32361308217514,249.1946436165017 114.72852131200489,247.04727789461322 114.27228428819217,245.67198659111455 114.27228428819217,245.55134655107395 114.33179346530233,245.52721853433468 114.39130264229607,245.55134655107395 114.43097542691976,245.64785858891264 114.70868491963483,246.44408112087694 115.36328586691525,248.63970862059796 115.44263143616263,249.04987811410683 115.4624678286491,249.3635365699447 115.42279504390899,249.53242938048788 115.28394029755145,249.7495770698588 115.08557637408376,249.89434206485748 114.84753966610879,249.99085200329137 113.73670169501565,250.1597442831844 110.52320613607299,250.83531197396223 108.71809443319216,251.14896762471471 108.46022133284714,251.17309496211237 108.22218462475576,251.12484028450854 107.5080745004816,250.9559488210507 106.65510962996632,250.6422928669781 106.45674570649862,250.6181654654938 105.6236172283534,250.83531197396223 104.71114318072796,251.12484028450854 104.09621501818765,251.29373160511022 103.69948717136867,251.51087737879425 102.48946723865811,252.403585300548 101.9935574302217,252.69311133683368 98.52218877081759,255.20231939807127 95.38803878123872,257.3978505839332 94.63425587234087,258.1940262578282 94.41605555661954,258.48354389761516 93.34489037026651,259.617483944603 92.49192549975123,260.6307866231218 91.75797898310702,261.3786972063681 91.5397786675021,261.5475798535772 91.3810875286581,261.5958320121863 91.14305082068313,261.5958320121863 90.54795905051287,261.5234537698998 90.36943151941523,261.4269494058535 88.54448342428077,258.99019875699014 88.32628310844302,258.7730611175939 88.20726475445554,258.7489346985967 86.6401897596661,260.0035046189587 84.33916824823245,261.6923362946691 83.8630948321661,262.07835295768746 83.10931192326825,262.65737655315024 82.77209325344302,262.8745099685475 82.29601983726025,263.28465022012824 81.54223692847881,263.79129289713455 80.70910845010076,264.5391916424269 80.05450750305317,264.9734541444195 78.90399674721994,265.91435299227305 78.54694168514106,266.1073573361937 77.81299516872969,266.3968635022611 77.41626732191071,266.80699651894975 77.19806700618938,266.9758745750878 76.99970308272168,267.0 76.8410119441105,266.92762371653225 76.82117555162404,266.80699651894975 77.19806700618938,266.61399285128573 77.75348599173594,266.1073573361937 79.6577796562342,265.0217054753157 80.37188978039194,264.3944372651895 81.02649072767235,264.0084250794753 82.09765591390897,263.11576904212416 82.55389293772168,262.80213218966674 83.44653059297707,262.05422693816945 84.89458723377902,261.08918376448855 85.8665704583982,260.3653983233962 86.14427995122969,260.1000096709322 86.71953532891348,259.73811548555386 87.51299102255143,259.03845153375005 88.06841000798158,258.70068185191485 88.34611950069666,258.62830256007146 88.50481063954066,258.70068185191485 88.76268373988569,259.0625779177353 89.45695747190621,259.9311257993686 90.17106759594753,260.9444268861407 90.48844987340271,261.25806665656273 90.62730461987667,261.35457110227435 90.82566854322795,261.40282330755144 91.32157835178077,261.4269494058535 91.51994227501564,261.3786972063681 92.17454322229605,260.7755437287851 93.28538119327277,259.47272599927965 95.03098371915985,257.59086316007597 95.54672991996631,257.1083313699346 95.98313055140898,256.77055842296977 99.19662611035164,254.5750203390926 100.06942737335339,253.89946530229645 101.37862926768139,253.05501829185232 102.05306660721544,252.52422120001575 102.48946723865811,252.2829493281024 104.33425172627904,250.9559488210507 104.37392451090273,250.88356672156078 104.33425172627904,250.85943934918032 103.87801470246632,250.83531197396223 103.73915995599236,250.7870572147076 103.5407960327575,250.59403806104092 103.28292293217964,250.1356168233906 102.86635869322345,249.53242938048788 102.60848559276201,248.7120915336709 102.13241217669565,247.7952393629821 101.75552072213031,246.87838298169663 101.51748401403893,246.05803422919416 101.43813844479155,245.45483446659637 101.21993812907021,244.537967336757 101.20010173658375,244.22430129938584 101.02157420560252,243.45219818454643 100.72402832051739,242.46293670470186 100.4463188276859,241.25651363126235 100.30746408144478,240.82219954003813 99.97024541161954,240.17072663153522 99.85122705763206,239.73641017808404 99.7917178805219,239.37447907836759 99.93057262687944,238.91603207674052 100.0297545887297,238.79538795392727 100.42648243543226,238.40932627103757 101.51748401403893,237.5165557697619 102.46963084640447,237.08223354163056 102.98537704721093,236.8892011369462 103.9573602717137,236.40661930853094 104.81032514234539,236.06881133450952 105.56410805135965,235.70687358509167 106.25838178314734,235.51383985043503 107.13118304603267,235.17603036561923 108.36103937111329,234.64518573433452 108.48005772510078,234.5486683770141 108.49989411747083,234.4038922534819 108.22218462475576,233.58349223685218 108.14283905539196,233.05264337047993 108.18251184013207,232.54592268115084 108.30153019411955,232.35288588973344 109.53138651920017,231.70138534042053 109.92811436601914,231.55660715178237 111.69355328415986,230.76032523729373 112.20929948484991,230.615546366098 112.38782701594755,230.49489722658473 112.38782701594755,230.39837786242424 112.14979030785616,230.1329493703961 111.7530624611536,229.3607917503541 111.27698904497083,228.17841960578517 111.03895233687945,227.406254424699 110.58271531306673,226.58582564677636 110.24549664335791,225.8860454948299 109.92811436601914,224.89669695579505 109.92811436601914,224.77604435947433 109.96778715064283,224.70365276667872 110.08680550463032,224.55886950225977 110.1661510738777,224.3416944087512 110.3248422127217,224.19691088184481 110.88026119826827,223.93147414294071 111.7927352457773,223.61777572377468 112.22913587721996,223.40059960627696 112.32831783895381,223.3040768115461 112.32831783895381,223.13516180838633 112.14979030785616,222.72493906284217 112.11011752323247,222.6042851536913 111.93158999225125,222.29058464852278 111.9117535998812,222.07340708689298 111.33649822208099,220.9633847480436 111.11829790624324,220.60141960703186 111.03895233687945,220.33597808651393 111.19764347560704,220.1670605714462 112.07044473860878,219.6844383120333 112.90357321675401,219.15355247879052 114.66901213501114,217.92285716136394 114.72852131200489,217.82633171751513 114.74835770437494,217.7539376039058 114.58966656564735,217.0299950241897 114.58966656564735,216.88520619309566 114.64917574264109,216.7645487536356 114.90704884310253,216.52323365592747 115.2641039051814,216.35431291389978 116.17657795280684,216.16126046217687 116.4939602301456,216.04060258505342 117.56512541661505,215.19599540262425 118.97350927267689,214.35138464576448 120.18352920527104,213.72395719823544 121.21502160700038,213.07239583798219 121.39354913798161,213.0 121.5522402767092,213.0 121.73076780780684,213.19305550960416" stroke="#4DD2FF" stroke-linecap="round" stroke-linejoin="round" stroke-width="0.5"><title>2025-11-26 10.0km</title><desc>16570876727</desc></polyline><polyline fill="none" points="183.00930331181735,213.0988236451958 183.29361950454768,213.5929411540128 183.6997854942456,214.40823243111663 184.0450265853433,215.32234302486177 184.430884275469,216.55762111378135 184.57304237177595,216.8540867439151 184.97920836147387,217.57054357416928 185.06044155929703,217.8670077345305 185.04013325984124,218.03994496287487 184.95890006201807,218.06465026928345 183.02961161127314,218.28699789228267 182.8062203170266,218.36111371283187 182.72498711908702,218.43522950648912 182.7452954185428,218.58346101321513 182.8062203170266,218.70698718664062 183.2326946061803,219.2505014626804 183.45608590042684,219.62107854927308 183.6388605957618,220.04106510158454 183.82163529098034,220.60928082786268 184.22780128067825,221.32572449134022 184.32934277807362,221.72100267875066 184.30903447850142,221.8939366452978 184.10595148371067,222.06687046546722 184.0044099864317,222.33862331577984 183.98410168697592,222.43744244442496 184.06533488479909,222.6844900570868 183.9637933874037,222.78330901851587 183.6185522961896,222.95624208603112 183.51701079891063,223.079765616043 183.51701079891063,223.2526984326687 183.84194359043613,223.69738214630343 183.84194359043613,223.82090522826184 183.74040209315717,223.94442823564168 183.51701079891063,224.11736032050976 182.4000543273287,224.85849616950145 182.27820453047752,225.0067230166751 182.29851283004973,225.1796542025695 183.00930331181735,226.88425377526437 183.07022821018472,227.15600021922728 183.00930331181735,227.3042253999738 182.7452954185428,227.45245047313801 181.08001486118883,227.99594148837787 180.3692243793048,228.3665027154202 179.536584100686,228.71235925446672 178.48055252758786,229.0335112308967 177.58698735036887,229.40407057662378 177.20112966024317,229.60170195285173 176.14509808726143,230.26870643667644 175.25153291015886,230.63926354252908 174.01272664184216,231.23215351440012 173.4440942563815,231.45448681029666 170.1744580399245,232.9367026019172 169.91045014664996,233.0108131092711 169.3824343602173,233.0849235898204 169.09811816748697,233.40606869482144 168.85441857366823,233.5789927730657 167.02667162031867,234.44361096952343 166.05187324539293,234.8388637839671 165.15830806817394,235.110599650332 161.86836355226114,236.3951643096807 160.79202367982361,236.86452245965484 160.4264742891537,237.11155263197725 160.34524109121412,237.25977059196157 160.3655493906699,237.6550179599435 160.52801578654908,238.2972933024721 160.50770748697687,238.5690245705482 160.34524109121412,238.6925386638759 160.040616599028,238.81605268255225 159.00489332538564,239.11248602287378 158.8424269296229,239.2112970406888 158.7815020311391,239.3348107458587 158.8018103307113,239.55713522709266 159.12674312235322,240.64405143157637 159.49229251302313,241.70625941030448 159.6344506093301,242.39792675428907 159.89845850260463,243.28720990000875 159.9390751015162,243.58363675535657 160.0203082995722,243.75655222244677 160.10154149739537,244.8434460945282 160.28431619273033,245.683314673297 160.48739918752108,246.20205530665407 160.95449007570278,246.96781288311468 161.36065606516786,248.17819803967723 162.33545444032643,250.25312734689214 162.5182291356614,250.50014133755758 162.66038723196834,250.57424547658593 163.16809471906163,250.62364822093514 163.91950179974083,250.57424547658593 164.85368357598782,250.30253016887582 165.38169936242048,250.20372451293224 165.86909855005797,250.30253016887582 167.3109878131654,250.7718563825183 167.51407080795616,250.8212590791809 167.8390035997145,250.79655773229024 168.1233197923284,250.7718563825183 169.09811816748697,250.47543995187152 170.621240628534,250.17902309144847 171.12894811551087,250.00611305766506 173.3628610583255,249.66029255131434 173.93149344378617,249.561486584862 174.09395983966533,249.5120835837588 174.2564262355445,249.38857602870848 174.33765943336766,249.24036686407635 174.37827603251208,248.8451418998302 174.2564262355445,248.25230302054842 173.99241834238637,247.46184850666032 173.66748555062804,246.27616100397427 173.34255275898613,245.51040083626867 173.34255275898613,245.28808283082617 173.3628610583255,245.23867879678437 173.4237859568093,245.21397677531058 173.58625235268846,245.3868908630975 174.47981752990745,248.7216339417937 174.54074242827483,249.21566532623547 174.37827603251208,249.48738207873248 174.2564262355445,249.61088957404718 173.99241834238637,249.6849940354441 171.63665560248774,250.10491880917107 170.6009323290782,250.32723157535656 169.54490075598005,250.50014133755758 168.4888691828819,250.7718563825183 167.79838700057007,250.89536310172116 167.41252931056079,250.92006443663558 166.90482182358392,250.8212590791809 165.86909855005797,250.47543995187152 165.38169936242048,250.37663437954325 164.34597608889453,250.64834958869324 162.96501172427088,251.0929736972612 161.84805525280535,251.8587129504158 160.14215809630696,252.97026482631918 159.45167591399513,253.48898696656397 158.96427672647405,253.78539902705234 157.88793685403652,254.60052997719322 154.7807670334587,256.74949599200045 153.9887433537515,257.34231022726453 153.25764457241166,258.08332560367126 152.50623749161605,258.9231397829717 151.5111308171181,259.8864517988841 150.33324944716878,261.22026094203466 149.96770005638245,261.5166617919458 149.76461706170812,261.5660618918191 149.60215066582896,261.54136184342497 149.15536807733588,261.44256161976955 148.9929016813403,261.3684614207159 148.5867356917588,260.75095871731173 148.2618029001169,260.4051563886751 147.28700452507474,259.0466415771807 146.9620717333164,258.72553675707604 146.75898873852566,258.7502371457522 144.2001430039527,260.602757790999 143.7533604153432,260.9979600224615 142.9004118371522,261.59076193734654 142.16931305581238,262.1588621591218 141.11328148283064,262.89986007595144 140.13848310767207,263.6408553067886 139.04183493577875,264.35714814357925 137.01100498763844,266.0120219964738 136.66576389654074,266.2343174635171 135.9955900136847,266.4813121434854 135.36603272974025,267.0 135.08171653700992,267.0 134.95986674015876,266.9506012132042 134.93955844070297,266.92590181538253 135.00048333907034,266.85180360382947 135.44726592767984,266.80240478123596 135.77219871932175,266.58010993192147 136.21898130793124,266.3825143072463 137.5999456726713,265.49333163321717 138.24981125607155,264.92524067765044 140.32125780312344,263.418557019555 141.33667277707718,262.50466152127774 143.04256993345916,261.3931614900648 143.85490191273857,260.80035900224175 144.44384259765502,260.3063556158886 145.4186409728136,259.6147488693241 146.04819825664163,259.071341927076 146.67775554058608,258.6761359707016 146.79960533743724,258.65143557311967 146.88083853549324,258.6761359707016 147.02299663168378,258.7996379141696 147.8556369105354,259.8123510357109 148.42426929587964,260.57805762610224 149.11475147830788,261.34376134838385 149.25690957461484,261.44256161976955 149.35845107212663,261.4672616801399 149.8255419601919,261.4919617375417 150.06924155389424,261.44256161976955 152.7702453848906,258.5773343622859 153.4607275672024,257.7869197754626 154.04966825211886,257.1694062529132 156.03988160123117,255.76146844608593 158.0097866508877,254.42762368364492 162.0714465470519,251.5128955784603 162.8634702267591,250.9447657685232 163.269636216457,250.7224536739377 163.229019617429,250.67305095339543 162.68069553154055,250.57424547658593 162.4573042371776,250.47543995187152 161.6449722580146,249.09215759208018 161.38096436462365,248.35110961980536 160.93418177613057,247.36304147740884 160.69048218231183,246.7454964628705 160.4061659895815,245.80682446730498 160.24369959381875,245.263380815275 160.14215809630696,244.5717231683666 160.0,244.0282762323477 159.6750672083581,243.28720990000875 159.65475890878588,242.9413780252944 159.69537550781388,242.76846186853072 159.9390751015162,242.6202479034837 160.77171538036782,242.42262911613216 162.8634702267591,242.0273909682437 163.51333581027575,241.8544740382349 164.8739918754436,241.63215205607412 165.7269404536346,241.48393726692302 167.49376250850037,240.98988719354384 167.61561230535153,241.01458972558612 167.59530400589574,241.0639947807067 167.47345420892816,241.08869730384322 167.39222101098858,241.0392922546307 167.18913801619783,240.22410721967753 167.14852141728625,240.14999932792853 167.04697991977446,240.10059405193897 167.20944631565362,240.00178346394387 167.81869530014228,239.87827016186202 167.92023679753765,239.80416214480647 167.92023679753765,239.7547567852016 167.43283761001658,239.03837772806583 167.351604412077,238.79134988480655 167.00636332086287,238.07496745078242 166.78297202661633,236.81511638936354 166.78297202661633,236.6668981068069 166.82358862552792,236.5433827892848 167.00636332086287,236.44457048154436 168.06239489396103,236.04932077261037 168.69195217778906,235.7528829892981 170.72278212592937,235.18470936945232 172.93638676940463,234.61653416993795 173.18008636299055,234.4930176131311 173.22070296201855,234.3447976464813 173.15977806365117,234.0977641298814 172.956695068744,233.7025098822196 172.38806268328335,232.83788855024613 172.26621288643219,232.59085321211023 172.2459045870928,232.44263186585158 172.30682948534377,232.36852115247166 172.50991248025093,232.22029964502144 173.09885316516738,231.99796718213474 173.70810214965604,231.65211620368063 174.05334324075375,231.40507943218108 174.19550133717712,231.10863491208875 174.29704283445608,231.0098199764907 174.88598351948895,230.73807865736308 175.67800719919614,230.2440026057593 175.73893209767994,230.07107570543303 175.61708230071235,229.57699804128788 175.59677400125656,229.10762315381726 175.67800719919614,228.61354316024517 175.82016529561952,228.1441660598939 176.08417318877764,227.82301268579613 176.85588856914546,227.20540862472262 177.28236285818275,226.78543679705763 177.5057541525457,226.6619155070075 177.34328775666654,225.7478556400456 176.89650516805705,224.56204215246544 176.79496367066167,224.1914740264183 176.10448148834985,222.16568972551613 175.94201509247068,221.77041239837126 175.71862379810773,221.3010195792158 175.67800719919614,220.93044553940126 175.4343076054938,220.18929544332786 174.54074242827483,218.4105242449441 174.07365154020954,217.2493735816097 173.7893353474792,216.82938129118702 173.70810214965604,216.0635107743583 173.70810214965604,215.96468856312276 173.93149344378617,215.6435160464025 174.31735113402829,215.2729317459598 174.47981752990745,215.17410915238725 175.75924039713573,214.72940688952804 176.6934221732663,214.11176325222186 177.83068694418762,213.56823530698603 178.82579361880198,213.0" stroke="#4DD2FF" stroke-linecap="round" stroke-linejoin="round" stroke-width="0.5"><title>2025-11-20 10.0km</title><desc>16570876284</desc></polyline></svg>