<?xml version="1.0" encoding="utf-8" ?>
<svg baseProfile="full" height="300mm" version="1.1" viewBox="0,0,200,300" width="200mm" xmlns="http://www.w3.org/2000/svg" xmlns:ev="http://www.w3.org/2001/xml-events" xmlns:xlink="http://www.w3.org/1999/xlink"><defs /><rect fill="#222222" height="300" width="200" x="0" y="0" /><text fill="#FFFFFF" style="font-size:12px; font-family:Arial; font-weight:bold;" x="10" y="20">Over 10km Runs</text><text fill="#FFFFFF" style="font-size:4px; font-family:Arial" x="10" y="280">Runner</text><text fill="#FFFFFF" style="font-size:9px; font-family:Arial" x="10" y="290">Ennui</text><text fill="#FFFFFF" style="font-size:4px; font-family:Arial" x="65" y="280">SPECIAL TRACKS</text><rect fill="yellow" height="2.6" width="2.6" x="65" y="283" /><text fill="#FFFFFF" style="font-size:3px; font-family:Arial" x="70" y="285.5">Over 20.0 km</text><rect fill="red" height="2.6" width="2.6" x="65" y="287" /><text fill="#FFFFFF" style="font-size:3px; font-family:Arial" x="70" y="289.5">Over 40.0 km</text><text fill="#FFFFFF" style="font-size:4px; font-family:Arial" x="120" y="280">STATISTICS</text><text fill="#FFFFFF" style="font-size:3px; font-family:Arial" x="120" y="285">Number: 7</text><text fill="#FFFFFF" style="font-size:3px; font-family:Arial" x="120" y="290">Weekly: 1.8</text><text fill="#FFFFFF" style="font-size:3px; font-family:Arial" x="141" y="285">Total: 77.1 km</text><text fill="#FFFFFF" style="font-size:3px; font-family:Arial" x="141" y="290">Avg: 11.0 km</text><text fill="#FFFFFF" style="font-size:3px; font-family:Arial" x="167" y="285">Min: 10.0 km</text><text fill="#FFFFFF" style="font-size:3px; font-family:Arial" x="167" y="290">Max: 15.0 km</text><polyline fill="none" points="60.06728538288735,36.63242815078411 60.35962877026759,37.24208996118978 60.71461716934573,37.80094506670139 60.902552204206586,38.25818904735206 61.0069605569588,38.76623674778966 60.98607888631523,38.86784614047792 60.756380510516465,39.248880925253616 60.902552204206586,40.061752823443385 60.83990719250869,40.36657897445548 60.756380510516465,40.44278544311237 60.65197215776425,40.49358974020288 60.04640371236019,40.62060042915982 60.00464037118945,40.67140468326397 60.00464037118945,40.74761104141362 60.17169373552315,40.798415264784126 60.35962877026759,40.77301315458317 61.15313225053251,40.44278544311237 62.1763341067126,39.88393736447324 62.51044083526358,39.75692623014038 62.78190255223308,39.96014400816057 63.24129930394702,40.59519829752389 63.36658932722639,40.62060042915982 63.721577726188116,40.54439402499702 63.8886310904054,40.59519829752389 64.03480278421193,40.84921947584371 64.45243619498797,42.297134328153334 64.7030162414303,42.957583403316676 64.78654292342253,43.33861077162146 64.74477958236821,43.64343216875568 64.82830626447685,43.948253123729955 65.03712296986487,44.2022702483664 65.09976798144635,44.354680375763564 65.37122969829943,45.21833567619615 65.53828306263313,45.59935894492082 66.06032482604496,46.488410551755805 66.22737819026224,46.86943151737796 66.56148491881322,47.42826101729588 66.81206496513914,47.75847775046714 67.0,48.266502480444615 66.95823665894568,48.393508471112 66.85382830630988,48.44431084585085 65.35034802777227,48.62211906074663 64.91183294658549,48.74912483636581 64.03480278421193,48.90153166586242 63.8886310904054,49.00313615743653 63.8886310904054,49.3079493373225 63.80510440841317,49.434954698444926 63.596287703025155,49.48575682149385 62.51044083526358,49.638163116629585 61.988399071851745,49.765168278157944 61.779582366580144,49.89217336292495 61.75870069605298,50.069980352622224 62.19721577735618,50.933612162654754 62.9280742459232,52.635464458406204 62.94895591645036,52.787868469167734 62.80278422276024,52.91487172701454 61.63341067289002,53.194278624185245 61.04872389789671,53.42288399099198 60.58932714618277,53.52448629643186 60.44315545237623,53.499085724688484 60.42227378196549,53.397483406966785 60.61020881670993,53.60068799321016 60.881670533679426,54.286502021190245 61.341067285393365,55.83592547351145 61.424593967502005,55.9883271632134 61.341067285393365,55.75972458724573 60.777262181043625,54.769110551060294 60.65197215776425,54.66750884740031 60.46403712301981,54.642108413769165 60.129930394352414,54.6929092779319 58.73085846868344,55.09931574866641 58.3758700696053,55.12471612695663 58.083526682225056,55.175516874413006 55.34802784223575,56.03912770195166 54.554524361970834,56.19152924415539 54.4083526681643,56.26772997392982 54.24129930394702,56.5471324132086 54.554524361970834,57.131336312842905 54.721577726188116,57.61393830945599 54.97215777263045,58.09653919779521 54.97215777263045,58.24893924800563 54.90951276104897,58.223539247279405 54.84686774935108,58.121939213815494 54.512761020916514,57.46153779869201 54.26218097447418,56.62333301387844 54.26218097447418,56.496331997259404 54.3039443155285,56.4201313504891 54.74245939683169,56.11532848684874 54.63805104419589,56.1407287424081 54.11600928066764,56.521732206703746 53.09280742472038,56.85193465037446 52.94663573091384,56.95353529791464 52.92575406038668,56.97893545216357 52.967517401441,57.05513589634211 53.3433874710463,57.46153779869201 53.6566125289537,58.02033913115156 53.6566125289537,58.121939213815494 53.59396751737222,58.2743392456905 53.57308584684506,58.50293908614549 53.59396751737222,58.756938617356354 53.69837587012444,59.0363377470494 53.9280742459232,59.34113637395785 54.3039443155285,59.620534727029735 54.512761020916514,60.38252834713785 54.554524361970834,60.38252834713785 54.554524361970834,60.306329109473154 54.42923433869146,59.84913310314005 54.512761020916514,59.92533250656561 54.763341067242436,60.611125894487486 55.034802784211934,60.5603264610254 55.05568445485551,60.58572617925529 54.47099767974578,60.81432350551768 53.88631090486888,60.96672158490401 53.15545243630186,61.22071813822549 52.09048723895103,61.47471438461798 50.52436194906477,61.9827059564268 49.54292343382258,62.21130176309089 49.2714617169695,62.36369882943109 49.18793503474444,62.516095785278594 49.31322505802382,62.77009046607418 49.3758700696053,62.846288810440456 49.54292343382258,62.897087691293564 51.23433874710463,62.36369882943109 51.65197215776425,62.3128998195898 51.86078886303585,62.38909832968784 51.96519721590448,62.56689474597806 52.15313225064892,63.04948426032206 52.445475638029166,63.40507582495047 52.61252900224645,63.76066678800271 53.21809744776692,65.94499807539978 53.42691415315494,66.91016048211895 53.42691415315494,67.2657455146691 53.30162412987556,67.34194222911901 51.777262181043625,67.64672881051956 50.90023201867007,67.72292538685724 50.16937354998663,67.84991961927153 47.788863109075464,68.30709822064091 46.51508120645303,68.6118834023946 45.99303944315761,68.68807962872961 45.36658932722639,68.5864846540644 44.05104408354964,68.12930666049942 43.80046403722372,68.10390785381605 41.29466357314959,68.91666814213386 39.5197215777589,70.18659980037773 38.371229698415846,70.89775817726331 38.05800464039203,71.17714116696152 35.886310904985294,72.67564359206881 34.82134570775088,73.48838620143943 33.00464037118945,74.70749422276276 32.273781902506016,75.2408517585427 31.313225058023818,76.25676713026769 28.36890951276291,79.53306075157889 28.13921113696415,79.73624006961472 27.972157772630453,79.78703486846644 27.512761020916514,79.71084266561957 27.136890951311216,79.63465043519682 26.969837587093934,79.53306075157889 26.155452436185442,78.440968552095 24.986078886315227,76.94250723029836 24.77726218092721,76.73932521167444 24.693735498934984,76.71392744551122 24.42227378184907,76.99330270425708 23.357308584731072,77.75523334066384 19.494199535925873,80.75213371400605 18.930394431692548,81.10769532955601 17.280742459348403,82.37755333258247 15.171693735639565,84.0283572676999 14.58700696064625,84.46010385044792 13.730858468683437,84.81565919396235 13.229698375798762,85.32359435566468 13.104408352752216,85.37438780434604 13.04176334105432,85.19661068025744 13.083526682225056,85.0696269282198 13.4802784222411,84.61248478553898 13.856148491962813,84.30772280480596 14.127610208815895,84.15534164880228 14.858468677499332,83.87597590910445 15.109048723941669,83.72359444011818 17.823665893287398,81.69183096378401 19.70301624131389,80.14259811659576 20.058004640508443,79.8886244292953 20.475638051051646,79.68544525858306 21.45707656617742,78.99971410726721 22.689095127629116,77.9838119930937 23.14849187945947,77.67904040137364 24.589327146182768,76.6123363503284 24.75638051040005,76.58693856881291 24.88167053379584,76.6123363503284 24.965197215788066,76.71392744551122 25.549883990664966,77.52665443976002 27.074245939729735,79.4568684566766 27.324825986172073,79.58385559949966 27.867749419994652,79.63465043519682 28.05568445485551,79.60925301884708 28.16009280749131,79.53306075157889 29.41299303958658,78.21239039680222 30.331786542898044,77.2980752903095 32.25290023209527,75.16465790774964 32.98375870066229,74.68209621113783 34.63341067289002,73.4629880424327 35.17633410682902,73.10741349461023 37.91183294670191,71.1263442873751 39.0394431555178,70.36438962018292 40.417633410776034,69.34844576689648 41.39907192578539,68.71347836474888 43.00696055684239,68.10390785381605 43.967517401441,67.9261161218601 44.65661252907012,68.0785090442223 45.84686774946749,68.53568714839639 46.24361948959995,68.56108590278018 47.329466357361525,68.40869333028968 49.22969837591518,67.90071729074407 50.44083526683971,67.67212767231103 51.40139211132191,67.57053220663511 52.341067285393365,67.39274002338061 52.69605568458792,67.2911444225756 52.92575406038668,67.18954877265787 53.0719257540768,67.06255414118641 53.15545243630186,66.85936257128196 53.1763341067126,66.55457484797807 53.11368909513112,66.0973924343125 52.65429234341718,64.52264539693715 52.194895591703244,63.20188071887242 52.13225058012176,62.87168825240224 52.13225058012176,62.94788655998127 52.466357308556326,63.58287138164451 52.65429234341718,64.06545856308367 53.21809744776692,66.17358957231045 53.30162412987556,67.01175626712211 53.23897911829408,67.24034660375037 53.09280742472038,67.34194222911901 51.44315545249265,67.72292538685724 47.58004640368745,68.45949086672044 46.13921113696415,68.76427582744509 45.76334106735885,68.76427582744509 44.3433874710463,68.28169943550893 43.8631090488052,68.18010426440742 41.46171693736687,68.865870716254 38.935034802882,70.61837481615657 37.80742459394969,71.35493014888198 37.32714617170859,71.73590603230696 35.0719257540768,73.36139537584677 33.23433874710463,74.5805041338026 32.25290023209527,75.2916476438404 31.271461716969498,76.30756277001637 28.410672853933647,79.40607357799308 28.118329466320574,79.68544525858306 27.951276102103293,79.76163747052487 27.825986078940332,79.76163747052487 27.220417633419856,79.66004784837423 26.969837587093934,79.53306075157889 26.42691415315494,78.8219315916649 26.00928074249532,78.16159521750524 24.819025522097945,76.79012073477497 24.67285382829141,76.73932521167444 23.71229698380921,77.52665443976002 21.102088167099282,79.4568684566766 20.058004640508443,80.3203795151203 18.429234338807873,81.5140507252363 17.197215777356178,82.50453871092759 16.320185614866205,83.11406745918794 14.900232018553652,84.25692909846839 14.461716937366873,84.51089750777464 13.709976798156276,84.79026240362145 13.208816705388017,85.29819762670377 13.06264501158148,85.34899108151149 13.0,85.19661068025744 13.04176334105432,85.0950236847275 13.417633410659619,84.71407201432157 14.58700696064625,84.129944778746 15.088167053414509,83.79978518841381 16.8631090488052,82.40295041436912 17.280742459348403,82.02199386505526 18.220417633419856,81.31087312559248 19.20185614854563,80.44736613627174 19.57772621815093,80.16799546843686 21.227378190262243,79.1520990008139 22.208816705388017,78.2631855639629 23.419953596312553,77.47585909473128 24.631090487353504,76.56154078429972 24.83990719250869,76.56154078429972 24.944315545260906,76.6123363503284 25.341067285393365,77.24727989001258 27.053364269202575,79.50766332303465 27.220417633419856,79.58385559949966 27.617169373552315,79.60925301884708 27.909512761048973,79.58385559949966 28.07656612538267,79.53306075157889 30.269141531316563,77.19648447733198 32.127610208815895,75.13925995136378 33.819025522097945,74.02174683076737 34.194895591703244,73.7169694940676 35.76102088170592,72.57405054496485 36.13689095142763,72.34546600929752 36.82598607894033,71.81210112609551 38.49651972157881,70.69457031514321 41.064965197234415,68.8150732780341 41.50348027842119,68.56108590278018 41.98375870066229,68.38329455751227 42.52668213460129,68.25630064729194 43.466357308556326,67.9261161218601 43.842227378161624,67.84991961927153 44.573085846961476,68.00231259685825 45.84686774946749,68.43409210008394 46.13921113696415,68.45949086672044 46.45243619487155,68.45949086672044 47.308584686834365,68.30709822064091 48.29002320196014,68.00231259685825 48.95823665894568,67.87531845649937 49.522041763411835,67.79912193550263 50.52436194906477,67.57053220663511 51.54756380512845,67.44353780533129 52.215777262230404,67.31654332735343 52.7587006961694,67.16414985252777 52.988399071851745,67.01175626712211 53.09280742472038,66.85936257128196 53.11368909513112,66.70696876487636 53.0719257540768,66.42757983283082 52.361948955920525,63.91306273076043 51.96519721590448,63.02408483985346 51.839907192625105,62.49069630034501 51.86078886303585,62.3128998195898 51.923433874733746,62.236701281843125 52.15313225064892,62.084304123403854 52.94663573091384,61.85570817855478 53.48955916473642,61.75410990107048 55.076566125266254,61.296917044426664 55.74477958236821,61.01752092008246 55.84918793500401,60.915922237414634 55.78654292342253,60.78892381492187 55.68213457078673,60.71272472452256 55.30626450118143,60.5603264610254 54.763341067242436,60.6619253156241 54.658932714606635,60.6619253156241 54.596287703025155,60.611125894487486 54.42923433869146,59.89993270851846 54.4083526681643,59.97613209353585 54.512761020916514,60.280929357453715 54.512761020916514,60.40792808693368 54.4083526681643,60.331728858393035 54.220417633419856,59.6967342132848 53.78190255234949,59.31573650529026 53.5522041763179,58.88393826779793 53.48955916473642,58.55373901693383 53.531322505907156,57.94413903699024 53.19721577723976,57.38533750188071 52.94663573091384,57.05513589634211 52.67517401394434,56.62333301387844 52.50812064972706,55.96292688930407 52.50812064972706,55.83592547351145 52.61252900224645,55.734324285716866 53.57308584684506,55.3787197413767 53.6566125289537,55.353319393718266 53.69837587012444,55.27711833245121 53.67749419959728,55.15011650219094 53.36426914157346,54.413504373369506 53.3433874710463,54.13409909726761 53.4477958236821,53.85469344977173 53.5522041763179,53.16887801256962 54.032482598675415,51.5432324798021 54.533642691443674,49.434954698444926 54.74245939683169,48.90153166586242 55.01392111368477,48.41890965998755 55.30626450118143,48.06329273585288 55.59860788867809,47.75847775046714 56.392111368943006,47.14884645311395 57.08120649657212,46.81862876194646 59.83758700697217,45.700965033174725 59.87935034814291,45.59935894492082 59.79582366591785,45.16753252147464 59.96287703013513,45.01512298366288 63.74245939683169,43.59262863334152 64.53596287709661,43.33861077162146 64.68213457078673,43.23700354102766 64.68213457078673,43.160798085751594 63.86774941999465,40.74761104141362 63.658932714606635,40.54439402499702 63.491879350389354,40.49358974020288 63.053364269202575,40.67140468326397 62.88631090486888,40.696806805746746 62.7610208815895,40.56979616281751 62.59396751737222,40.21416595428309 62.552204176434316,39.96014400816057 62.67749419959728,39.83313291995728 63.053364269202575,39.55370825564023 63.01160092803184,39.248880925253616 63.11600928066764,38.89324848090473 63.28306264500134,38.69002967105189 63.3039443155285,38.53761543464498 63.157772621838376,38.156579359885654 62.67749419959728,37.36910261574667 62.36426914157346,36.50541505089495 61.800464037107304,35.56551572556782 61.403712296974845,34.625612195639405" stroke="#4DD2FF" stroke-linecap="round" stroke-linejoin="round" stroke-width="0.5"><title>2025-12-17 15.0km</title><desc>16763843349</desc></polyline><polyline fill="none" points="184.9499192244839,36.217756280791946 184.7318255250575,36.37694074666069 184.6445880451938,36.58918652155262 184.68820678512566,36.774901406111894 184.90630048455205,37.013677455310244 185.2552504038904,37.19939198072825 185.84410339256283,37.06673876433342 185.9313408723101,37.06673876433342 186.08400646201335,37.172861343831755 186.5856219708221,38.68510252564738 186.73828756052535,39.268771773480694 186.91276252025273,39.746318185236305 186.93457189004403,39.85243946888659 186.91276252025273,40.011621298166574 186.82552504027262,40.06468188232975 185.1680129240267,40.7279381013941 183.59773828752805,41.25854163338954 182.5945072696777,41.736083715368295 182.50726979004685,41.78914388248813 182.44184168009087,41.948324307086295 182.44184168009087,42.24015478558431 182.37641357025132,42.452394889856805 183.20516962837428,45.31761620785983 183.68497576739173,46.27268166797876 183.92487883672584,47.12162525430904 184.2956381259719,47.91750688414322 184.8408723747125,48.95214868821495 185.14620355400257,49.69496543693822 185.14620355400257,49.8541401274706 184.99353796441574,49.96025652368553 183.79402261704672,50.25207634871185 183.16155088844243,50.43777967165806 183.0088852988556,50.570424806152005 182.94345718889963,50.65001184842549 182.92164781910833,50.888772801918094 182.9870759289479,51.28670714715554 183.61954765755218,53.32942542855744 183.96849757665768,53.93958434452361 184.42649434576742,55.05378320559976 184.66639741521794,55.66393732794677 184.7318255250575,55.929221199883614 184.90630048455205,56.327146406736574 184.97172859450802,56.61895776644815 184.90630048455205,56.77812743556569 184.38287560571916,56.725070891930955 184.49192245560698,56.53937288862653 184.49192245560698,56.35367472813232 183.94668820663355,54.89461228607979 183.51050080766436,54.15181313507492 183.1397415184183,53.85999849518703 182.92164781910833,53.83346987236291 182.09289176086895,54.07222736267431 180.50080775446258,54.73544125104672 179.54119547642767,55.186425550375134 179.08319870755076,55.45170999955735 178.9087237479398,55.50476685081958 177.8182552503422,55.39865313531482 177.01130856212694,55.478238426774624 176.79321486258414,55.42518156902224 176.7495961226523,55.266010918843676 176.4224555734545,54.73544125104672 176.00807754439302,53.72735534873209 176.05169628432486,53.64776942251774 176.57512116315775,53.276368051272584 176.4224555734545,53.32942542855744 175.94264943455346,53.67429806778091 174.74313408706803,54.09875595672929 174.67770597734489,54.20487030070217 175.04846526647452,54.576270100616966 175.41922455572058,55.29253936854366 175.3319870758569,55.584352103833226 175.31017770594917,55.876164451110526 175.41922455572058,56.30061808200844 175.63731825514697,56.64548605259915 176.117124394048,56.99035348140751 176.40064620354678,57.86578375166573 176.37883683352266,58.024952516600024 176.29159935365897,58.0780087459425 175.7681744749425,58.26370544756355 173.73990306945052,58.84732262980833 173.32552504027262,59.03301868059498 172.45315024221782,59.2982984806149 170.11954765755218,59.88191291208204 169.9668820677325,59.961496577903745 169.90145395789295,60.147191686119186 169.9450726978248,60.30635879661713 170.0541195475962,60.43899796719779 170.1413570274599,60.518581431140774 170.31583198695444,60.518581431140774 171.47172859450802,60.17371954588452 173.02019386098254,59.80232921736024 173.34733441029675,59.77580131265859 173.56542810972314,59.88191291208204 173.65266558958683,60.01455233912566 173.87075928912964,60.59816486615455 174.19789983832743,61.10219261798193 174.63408723741304,62.402048320815084 175.2447495961096,64.60382715331798 175.26655896601733,64.89562750972982 175.17932148615364,65.0282639071811 172.36591276258696,65.61186310381163 170.73021001613233,65.87713495294156 167.54604200320318,66.51378608313098 167.28432956372853,66.48725898952398 165.844911146909,66.00977075738774 165.21243941842113,65.87713495294156 164.51453957997728,66.03629790860577 162.5953150242567,66.67294857707748 160.78513731819112,67.84013667343243 160.30533117929008,68.21151340266806 158.9313408723101,69.13995247680577 157.05573505652137,70.54586702786037 155.0274636510294,71.89871969868545 153.1082390951924,73.25156403236906 152.27948303706944,74.10040327906609 150.68739903066307,75.9307017360552 149.13893376418855,77.62835622899001 148.76817447482608,77.94666498486185 148.59369951533154,77.97319069363584 147.80856219714042,77.86708783909853 147.63408723741304,77.81403639267955 147.54684975766577,77.76098493335303 145.4095315024024,74.89618709194474 145.27867528260686,74.790082750289 145.19143780285958,74.790082750289 144.71163166395854,75.21449980935722 143.97011308558285,75.74501997945481 140.4588045234559,78.45065290441562 138.53957996773534,79.88303330623603 137.9507269790629,80.3339659429621 137.60177705972455,80.57269461094984 134.7447495961096,82.80081632747897 134.50484652654268,82.95996701331751 133.7633279482834,83.19869282589934 133.1962843296351,83.7822437192226 133.04361873981543,83.7822437192226 133.02180936990771,83.72919370209274 133.0,83.67614367214264 133.08723747974727,83.49046846636338 133.50161550892517,82.9864921165281 133.80694668821525,82.72124094127503 134.00323101773392,82.61514038144378 134.57027463649865,82.42946427840798 134.91922455572058,82.24378801835701 136.1187399030896,81.23582843776967 137.77625201933552,80.09523701535363 139.390145395766,78.60980674394523 140.044426494278,78.15887056571955 141.61470113077667,77.23046963509114 142.87964458798524,76.14290926564718 143.7956381259719,75.53281206528482 144.5589660742553,74.89618709194474 144.97334410331678,74.60440002889663 145.2132471728837,74.55134779393848 145.36591276247054,74.60440002889663 145.6276252019452,74.81660884049779 145.91114701121114,75.16144772188272 147.45961227780208,77.20394383648818 147.80856219714042,77.57530472477083 148.04846526659094,77.70793346117716 148.61550888523925,77.76098493335303 148.81179321487434,77.70793346117716 151.1672051695641,75.16144772188272 152.38852988684084,73.75556273100665 153.02100161544513,73.09240630816203 157.33925686590374,70.06838762402185 158.42972536350135,69.37869331828551 159.71647819061764,68.47678211027232 161.33037156693172,67.23001639728318 162.55169628432486,66.43420479279303 164.90710823913105,65.63839030318195 165.34329563810024,65.55880869549583 165.56138933752663,65.58533590128354 166.0411954765441,65.71797188189521 167.43699515343178,66.2485150033026 167.8949919224251,66.27504212566419 170.20678513729945,65.69144469221646 170.97011308558285,65.55880869549583 171.8861066234531,65.3200636995025 172.84571890137158,65.24048197640514 174.1324717286043,65.00173663410533 174.50323101773392,64.89562750972982 174.76494345709216,64.76299103217025 174.85218093695585,64.68340910715051 174.91760904691182,64.52424517052714 174.93941841670312,64.25897168641677 174.8957996768877,63.96717048356368 174.65589660743717,63.065237040413194 174.17609046841972,61.526636142792995 173.47819063009229,59.855385017057415 173.34733441029675,59.80232921736024 173.0638126009144,59.82885711877316 171.0137318255147,60.43899796719779 170.53392568649724,60.54510924601345 170.3812600969104,60.54510924601345 170.7084006461082,60.332886637188494 170.77382875594776,60.226775255810935 170.88287560571916,59.80232921736024 171.10096930526197,59.616633817437105 172.6494345718529,59.05954667505284 173.65266558958683,58.84732262980833 175.89903069462162,58.21064926312829 176.16074313397985,58.13106496237742 176.48788368329406,57.91884001946892 176.46607431338634,57.68008671341522 176.26978998386767,57.176051103218924 176.35702746361494,57.54744587559253 176.37883683352266,57.7596711776132 176.3134087236831,57.73314302609651 176.07350565423258,57.0699381956656 175.9862681744853,56.937296989155584 175.63731825514697,56.69854261545697 175.41922455572058,56.30061808200844 175.37560581578873,56.14144806668628 175.37560581578873,55.239482465869514 174.98303715663496,54.576270100616966 174.4814216478262,53.85999849518703 174.32875605812296,53.14372455223929 174.3723747979384,52.98455224742065 174.4814216478262,52.904966051733936 174.91760904691182,52.69273605555645 175.46284329565242,52.50703464054095 175.55008077528328,52.42744827171555 175.2229402262019,51.79075628214923 175.15751211636234,51.551996309892274 175.11389337631408,51.33976500542485 175.3319870758569,50.278605404426344 175.59369951533154,49.4562031848327 175.9862681744853,47.67874269830645 176.35702746361494,46.32574073827709 176.66235864302143,45.476794073183555 176.94588045228738,45.02578982169507 177.33844911144115,44.574784643235034 177.7092084005708,44.25642748872633 178.38529886910692,43.80542072931712 181.0678513732273,42.823814578398014 182.5726978998864,42.13403465645388 186.2366720517166,40.834058910491876 186.95638126006816,40.43610561202513 187.0,40.32998461052193 186.97819063009229,40.06468188232975" stroke="#4DD2FF" stroke-linecap="round" stroke-linejoin="round" stroke-width="0.5"><title>2025-12-15 10.0km</title><desc>16746108493</desc></polyline><polyline fill="none" points="66.95671342685819,97.5704742752423 66.89178356714547,97.51781736506382 66.84849699400365,97.62313117276062 66.9783567134291,98.43931145586248 67.0,98.70259476569481 66.87014028045814,98.86056459881365 66.0909819639055,99.09751913360378 65.22525050106924,99.49244278534024 63.62364729458932,100.0979909938178 61.394388777553104,100.88783395272912 58.01803607214242,102.20423251879402 57.195591182331555,102.62547837934108 56.3731462926371,103.15203455940355 55.07454909814987,103.67858946639171 54.46853707404807,104.0471771438315 54.38196392788086,104.17881544888951 54.36032064119354,104.33678130993212 54.684969939873554,105.28457407008682 54.879759519011714,106.04807079402963 55.031262525124475,106.52196396613726 55.05290581157897,106.81156484151143 54.684969939873554,108.4701806185185 54.44689378759358,109.23366617537977 54.31703406816814,109.52326344512403 54.33867735473905,109.8391873002256 54.25210420845542,110.1287837648415 54.01402805617545,110.68164867353335 53.75430861720815,111.12920495274011 53.2997995991027,111.70839406648884 53.08336673351005,111.89268118877953 51.63326653302647,112.65615474872175 50.291382765513845,113.10370697072358 48.94949899800122,113.36697255408217 48.12705410819035,113.44595216703601 47.23967935878318,113.65656432819378 46.78517034067772,113.73554383617011 46.46052104199771,113.81452331546461 45.98436873743776,114.02513512033329 43.99318637268152,114.3410524456558 43.387174348696135,114.49901093654626 42.86773547087796,114.68329569777416 42.326653306605294,114.81492757468368 41.52585170336533,114.893906662488 39.55631262518,115.34145428659394 38.777154308510944,115.36778058871278 38.75551102205645,115.63104343554005 39.27494989987463,117.57917861289752 39.42645290575456,118.23732845150516 39.64288577158004,119.60627374601609 39.72945891774725,119.97483447073319 40.248897795565426,120.94888481283851 40.53026052098721,121.8176287405222 40.85490981966723,122.4494403299177 41.11462925851811,123.05492471679463 41.82885771547444,124.52914053447603 42.002004008041695,124.73974197967618 42.47815631260164,124.81871746911202 43.257314629270695,124.84504262596602 44.27454909821972,124.55546572625462 45.07535070145968,124.45016494003357 45.443286573165096,124.50281533948146 47.32625250495039,125.05564376582333 47.521042084204964,125.05564376582333 48.516633266583085,124.92401807730494 50.24809619237203,124.47649014134367 51.46012024045922,124.2922136651614 52.347494989982806,124.05528653827787 53.38637274550274,123.92366024528746 54.5118236473063,123.6604074206989 54.57675350701902,123.60775681758241 54.620040080160834,123.52878088910074 54.64168336673174,123.37082894623745 54.44689378759358,122.370463981395 54.165531062171794,121.58069892202911 53.970741483033635,120.65930273367849 53.47294589178637,119.36934152229514 53.45130260521546,119.26403822895372 53.47294589178637,119.13240904080158 53.60280561121181,119.18506072559103 53.64609218435362,119.29036405705847 54.01402805617545,120.18544031919737 54.38196392788086,121.26479209655372 54.92304609215353,123.21287688877783 54.96633266529534,123.55510620183486 54.901402805466205,123.73938330152305 52.802004007971846,124.1869127517275 51.416833667317405,124.45016494003357 50.09659318625927,124.79239230920211 47.650901803630404,125.26624470198294 47.28296593192499,125.31889490423782 47.10981963924132,125.29256980471837 45.27014028059784,124.66076646152942 45.07535070145968,124.63444128251285 43.69018036068883,125.02931863442063 42.456513026030734,125.42419527054881 40.91983967937995,126.4508711744711 40.55190380755812,126.74044555459113 39.5130260521546,127.42489255922555 32.933466934016906,132.08434001715796 32.024448897805996,133.00568788248347 31.26693386770785,133.92703185118444 29.773547094198875,135.48014572095417 28.951102204388008,136.42780298215803 28.691382765537128,136.63839292481134 28.53987975954078,136.66471665339486 28.258517034118995,136.66471665339486 27.80400801601354,136.61206919315737 27.522645290591754,136.5067742345127 27.089779559057206,136.0066224860784 26.418837675475515,135.00631554456777 25.661322645260952,134.03232805665175 25.29338677355554,133.61114292943967 25.228456913726404,133.55849473121634 25.141883767559193,133.55849473121634 23.605210420908406,134.6904281877505 23.12905811611563,135.00631554456777 21.89539078157395,136.03294629089942 19.276553106261417,137.98089902408537 17.52344689378515,139.37604365577863 15.618837675312534,140.7711793535127 14.796392785618082,141.4555822784605 14.623246492934413,141.56087484541058 13.757515029981732,141.87675224071427 13.238076152396388,142.42953658048646 13.12985971942544,142.48218263493618 13.0,142.40321354851767 13.021643286570907,142.27159834076883 13.086573146283627,142.16630611741857 13.822444889810868,141.4555822784605 14.06052104209084,141.29764333280036 14.818036072188988,140.98176509782206 15.207615230465308,140.7711793535127 16.917434869683348,139.58663074868673 17.631663326756097,139.0075157534593 18.410821643308736,138.48104624015104 19.92585170350503,137.2438378761144 21.3975951904431,136.24353661536588 23.10741482966114,134.79572402421036 23.518637274508364,134.53248433757108 24.167935871868394,134.00600401012343 25.03366733470466,133.47952241021267 25.141883767559193,133.45319829677464 25.336673346813768,133.47952241021267 25.96432865737006,134.03232805665175 26.808416833751835,135.16425905122014 27.306212424882688,135.9013272348675 27.674148296704516,136.26986039156327 27.9987975951517,136.40147922498 28.669739479082637,136.42780298215803 30.098196392762475,134.97999161560438 30.509418837726116,134.50616035147686 31.093787575140595,133.87438372935867 31.656513025984168,133.21628113304905 32.998396793496795,131.84742136482964 33.75591182359494,131.37358328718983 34.556713426834904,130.71547313628253 37.15390781557653,128.95172812788223 37.976352705503814,128.4515590340452 38.863727454910986,127.71446564458893 39.8376753507182,127.13531908896402 41.35270541079808,125.95069633856474 42.28336673346348,125.34522000052675 42.82444889773615,125.21359448700969 44.23126252507791,124.68709163751919 45.09699398803059,124.50281533948146 45.65971943887416,124.52914053447603 46.91503006010316,124.92401807730494 47.650901803630404,125.00299349993293 48.45170340675395,124.89769293001154 49.230861723423004,124.68709163751919 49.771943887812085,124.63444128251285 50.161523046088405,124.50281533948146 51.0705410821829,124.2922136651614 53.81923847692087,123.79203387274174 54.36032064119354,123.60775681758241 54.555110220448114,123.44980493193725 54.620040080160834,123.29185293178307 54.64168336673174,123.02859934371372 54.57675350701902,122.73902002924297 54.122244488913566,121.44907113375666 53.927454909775406,120.63297707104357 53.5811623246409,119.57994795613922 53.49458917835727,119.15873488479701 53.53787575149909,119.02710563296569 53.5811623246409,118.97445390994835 53.66773547092453,119.07975734317733 53.992384769488126,120.31706887106702 54.46853707404807,121.68600109541148 54.72825651301537,122.6337183649739 54.8364729458699,123.21287688877783 54.8364729458699,123.42347960654297 54.749899799586274,123.60775681758241 54.5118236473063,123.73938330152305 53.169939879793674,124.08161178736191 47.32625250495039,125.26624470198294 47.02324649307411,125.23991959611885 45.59478957916144,124.76606714606169 45.24849699402694,124.66076646152942 44.98877755505964,124.63444128251285 44.036472945823334,124.9503432213387 42.43486973957624,125.42419527054881 42.196793587179855,125.55582065682393 39.88096192386001,127.16164396582462 39.40480961918365,127.45121740107425 38.34428857720923,128.21463643079915 35.227655310649425,130.34693058337143 35.09779559110757,130.42590404005023 34.967935871798545,130.37325507207424 34.989579158253036,130.24163259657507 35.09779559110757,130.1626590731321 35.638877755613066,129.8467646928184 36.98076152300928,128.95172812788223 38.322645290521905,127.89873922572588 39.08016032062005,127.50386707519647 39.296593186445534,127.34591801463102 39.318236472900026,127.1879688394547 39.27494989987463,127.10899420888745 38.863727454910986,126.31924632900336 38.49579158320557,125.50317051185993 37.82484969939105,124.2922136651614 37.78156312624924,124.21323798481899 37.78156312624924,124.08161178736191 37.91142284567468,123.84468443128571 38.062925851671025,123.71305801106791 39.33987975947093,123.16022617754061 40.01082164328545,122.76534543737944 40.07575150299817,122.66004378578509 39.98917835671455,122.42311488358246 39.49138276546728,121.47539669777325 39.318236472900026,120.9225591852155 38.88537074148189,119.92218297686486 38.56072144291829,118.57956558172009 38.51743486977648,118.50058783017448 38.322645290521905,118.39528411689389 38.14949899795465,118.3689581805811 37.88977955910377,118.4216100499616 37.91142284567468,118.3689581805811 38.27935871749651,118.10569864288846 38.34428857720923,117.97406875471643 38.40921843680553,117.57917861289752 38.27935871749651,116.9210267856397 38.08456913824193,116.76307005119452 37.39198396797292,116.81572230871825 37.21883767528925,116.76307005119452 37.15390781557653,116.71041778090876 37.067334669292904,116.34185153264843 37.02404809615109,115.94695843171212 37.11062124255113,115.76267473961343 37.30541082157288,115.63104343554005 37.933066132245585,115.4204331834917 38.062925851671025,115.36778058871278 38.12785571150016,115.23614904594433 38.01963927852921,114.73594845803746 37.997995991958305,114.49901093654626 37.84649298596196,113.7618703324988 37.348697394831106,112.57717484941531 37.37034068140201,112.44554162021086 37.478557114256546,112.23492828800227 38.27935871749651,111.62941382356803 39.08016032062005,110.81328296879656 39.686172344721854,110.3130722236674 41.07134268549271,109.81286032976641 43.10581162327435,108.83876018699084 44.902204408776015,108.23323628076469 45.876152304699644,107.81200126626936 46.59038076153956,107.41709270016872 48.34348697401583,106.75891016551759 48.906212424859405,106.46930922013416 49.295791583135724,106.04807079402963 49.40400801610667,105.9954159334593 50.03166332654655,105.89010617414897 51.157114228466526,105.41621162723459 51.78476953902282,105.1792639670748 53.040080160368234,104.54740227969887 54.72825651301537,103.83655569025723 56.04849699395709,103.17836233500566 56.63286573137157,102.96774004121835 57.80160320631694,102.20423251879402 59.03527054109145,101.70400200098811 59.749498998047784,101.51970625747344 60.24729458917864,101.33541035796225" stroke="#4DD2FF" stroke-linecap="round" stroke-linejoin="round" stroke-width="0.5"><title>2025-12-07 12.0km</title><desc>16672159472</desc></polyline><polyline fill="none" points="184.68727272725664,96.24796523762052 184.57818181824405,96.40721392417618 184.60000000009313,96.61954532652453 184.70909090910573,96.77879374353506 184.90545454551466,96.91150066944829 185.23272727266885,96.99112478656753 185.97454545449,96.85841790874838 186.17090909089893,96.99112478656753 186.3236363637261,97.68119925793144 186.73818181827664,98.84901265265944 186.95636363641825,99.59216339685372 187.0,99.751409657576 186.97818181815092,99.85757376723632 186.93454545456916,99.91065580275608 186.58545454544947,99.9902788321051 185.51636363647413,100.49455734714866 183.59636363643222,101.15807994417264 182.76727272733115,101.52965172268159 181.3272727272706,102.08700821123784 178.68727272737306,103.01593254781619 177.8363636363065,103.44058236407 177.09454545448534,103.9183124255942 174.73818181816023,105.00647146298434 172.9709090909455,105.90884315948642 172.68727272725664,106.09462510726007 172.6436363636749,106.43964830733603 172.55636363639496,106.62542980596481 172.55636363639496,106.78467096526583 173.3200000000652,107.84627574286424 173.4290909090778,108.05859608245373 173.79999999993015,109.0405749820784 174.01818181830458,109.86331067887659 173.99636363633908,110.04908928052464 173.95272727275733,110.1287086330849 173.14545454550534,110.42064601228049 172.8618181818165,110.65950357913971 172.53454545454588,110.79220211521897 172.4036363636842,110.97797993085987 172.44727272726595,111.13721793353034 172.90545454539824,111.853787516171 173.2981818180997,112.62343372229952 173.2981818180997,112.86228889296763 173.1890909090871,113.02152552905318 171.20363636361435,113.9238642854034 170.63636363635305,114.08310015156167 169.87272727279924,114.26887518286821 168.4545454545878,114.4281107988063 167.3200000000652,114.77312090396299 166.70909090910573,114.87927775026765 165.33454545447603,115.2773654670309 164.3745454546297,115.3569829238404 162.82545454555657,115.78160887214472 162.06181818188634,115.8081479667162 160.46909090911504,116.15315590344835 160.01090909098275,116.17969495302532 158.7018181817839,116.3654682104243 158.63636363635305,116.2593120826059 158.5927272727713,115.86122614612395 158.50545454549138,115.48967862088466 158.43999999994412,115.3569829238404 158.46181818190962,115.56929600064177 158.61454545462038,115.96738246643508 158.96363636374008,116.57778031223279 159.53090909100138,118.38242488839023 159.64000000001397,119.25820294032746 159.90181818185374,120.13397749938304 159.967272727401,120.79744074902555 160.03272727271542,121.0628254875628 160.14181818184443,121.27513304750028 160.5127272728132,121.8059010492725 160.6218181818258,122.09782290339353 160.73090909107123,122.60205064644106 160.9709090909455,123.29204462909547 161.27636363648344,123.90242211417353 161.62545454548672,124.51279790273111 162.03999999992084,125.49470321986882 162.19272727274802,125.70700649493665 162.3018181817606,125.8396959376987 162.47636363643687,125.91930956482247 162.78181818174198,125.94584743407904 163.80727272725198,125.94584743407904 165.40000000002328,125.60085488305776 167.4072727272287,126.23776378469483 167.62545454548672,126.23776378469483 172.18545454542618,125.20278588155634 172.70909090910573,125.09663402584556 173.5381818182068,125.04355807884713 174.52000000013504,124.85779216304945 174.86909090913832,124.75164014067559 174.95636363641825,124.69856411029468 175.04363636358175,124.56587397799012 175.04363636358175,124.27395540483121 174.91272727272008,123.84934587847965 174.47636363632046,122.09782290339353 173.84363636374474,120.37282450018392 173.82181818189565,120.16051606783003 173.90909090905916,120.08090035281202 174.04000000003725,120.1870546330756 174.14909090916626,120.47897863938124 174.62909090914764,121.965131199584 175.109090909129,123.63704080741445 175.28363636357244,124.45972181444813 175.26181818183977,124.72510212707857 175.19636363640893,124.83125416230178 174.91272727272008,124.93740614618582 173.6472727273358,125.22932383742591 170.5927272727713,125.76008228166029 167.80000000004657,126.34391508872795 167.45090909092687,126.37045290674723 166.8399999999674,126.23776378469483 165.33454545447603,125.68046859680908 162.71636363642756,126.50314194850216 159.29090909089427,128.8119184418465 157.19636363629252,130.35108928573027 153.13818181829993,133.19056581068435 152.22181818180252,134.11935857457865 151.6763636363903,134.80931637062167 151.17454545455985,135.31351492772228 149.51636363647413,137.14454205824586 148.90545454539824,137.72834460038575 148.7309090908384,137.80795391758147 148.33818181813695,137.80795391758147 147.79272727272473,137.70180815480126 147.64000000001397,137.62219879901386 146.94181818177458,136.7730305416335 145.50181818183046,134.80931637062167 145.37090909085236,134.67663234744396 145.2400000001071,134.67663234744396 143.7563636363484,135.8442490004527 142.8618181818165,136.45459159856546 142.20727272727527,137.03839597475599 140.06909090909176,138.71019083051942 139.47999999998137,139.0816990702442 138.1054545454681,140.09007541034953 137.23272727266885,140.80655052274233 136.42545454541687,141.390343330655 135.00727272732183,142.55792429110443 134.63636363635305,142.79674690481625 133.87272727268282,143.11517665236897 133.63272727269214,143.27439135301393 133.21818181825802,143.69896332382632 133.13090909086168,143.75203476239403 133.0,143.69896332382632 133.0,143.56628467106202 133.08727272727992,143.4070701819728 133.76363636367023,142.69060355296824 134.19999999995343,142.47831669561856 134.63636363635305,142.31910141784465 135.31272727274336,141.921062718553 135.74909090902656,141.60263123971527 136.5127272728132,140.91269478507456 137.21090909093618,140.48811742803082 138.14909090904985,139.66549646304338 138.78181818174198,139.26745295451838 139.87272727268282,138.4448274174065 140.1345454545226,138.2856092156144 140.68000000005122,137.83449035034573 141.31272727274336,137.46298000084062 143.23272727278527,135.95039566115884 144.14909090904985,135.28697819044464 144.71636363642756,134.83585316569952 145.21818181825802,134.5174114138208 145.39272727270145,134.4908745802677 145.50181818183046,134.54394824407063 147.00727272732183,136.56073796415876 147.5090909091523,137.19761508073134 147.81454545457382,137.51605294640467 148.0763636364136,137.59566234065278 148.6218181818258,137.62219879901386 148.8618181818165,137.59566234065278 149.9745454546064,136.3484451816039 151.19636363629252,135.07468417657947 152.4836363636423,133.6416942151991 153.09454545448534,133.0313437995792 154.40363636356778,132.1290835562686 155.03636363637634,131.62487768814026 156.5418181818677,130.5899251739902 157.5672727272613,129.8468793353968 159.77090909099206,128.36078011567588 161.21090909093618,127.2727368100459 162.97818181815092,126.15815027304052 163.04363636358175,126.0785367325152 163.0,125.99892316306068 162.4327272727387,125.94584743407904 162.2145454545971,125.8396959376987 161.99636363633908,125.49470321986882 161.77818181819748,125.0170201004803 161.4290909090778,124.51279790273111 161.25454545451794,124.1412650160637 161.05818181822542,123.6105026590667 160.68727272725664,122.86743320406822 160.33818181825336,121.99166954679822 159.8363636364229,120.293208862131 159.55272727273405,119.0724321302987 159.39999999990687,119.0724321302987 158.63636363635305,119.39089627984504 158.33090909093153,119.33781895365973 158.33090909093153,119.28474161462509 158.5709090909222,119.12550952058518 158.63636363635305,118.62127379441517 158.63636363635305,118.249730939453 158.5709090909222,117.95780396951886 158.46181818190962,117.82510976395861 158.28727272723336,117.7454932021792 157.93818181811366,117.71895434177713 157.93818181811366,117.6924154781882 158.02545454551,117.63933774150792 158.2654545455007,117.53318222946837 158.1345454545226,116.7370142537693 158.33090909093153,116.49816329809255 158.3745454546297,116.33892918328638 157.98181818192825,114.215796618475 157.98181818192825,114.00348223291803 158.02545454551,113.844246308945 158.30909090908244,113.57885284582153 158.54909090907313,113.44615599390818 159.64000000001397,113.12768322223565 160.5127272728132,112.7561310713645 161.47272727277596,112.54381527444639 162.06181818188634,112.19880166636722 162.7600000000093,112.01302488365036 162.8909090909874,111.90686665140674 163.0,111.58839164707751 163.04363636358175,111.53531243477482 163.916363636381,111.13721793353034 166.68727272725664,110.31448701015324 168.1054545454681,109.83677086584794 170.8109090909129,109.0405749820784 171.64000000001397,108.69555586914066 172.09818181826267,108.56285606596794 173.12363636365626,108.08513611042872 175.15272727271076,107.39509433961939 175.28363636357244,107.28893387468997 175.32727272738703,107.1827733584214 175.21818181825802,106.70505040003627 175.2399999999907,106.46618853109248 175.32727272738703,106.33348738049972 175.74181818182115,106.12116537264956 175.82909090910107,105.9884640135133 176.09090909094084,105.2453349201096 176.09090909094084,105.05955225368962 176.00363636366092,104.95339065950247" stroke="#4DD2FF" stroke-linecap="round" stroke-linejoin="round" stroke-width="0.5"><title>2025-12-04 10.0km</title><desc>16645549870</desc></polyline><polyline fill="none" points="67.0,155.6662913596374 66.81593523651827,155.91819046945602 66.14870046870783,156.36601043237897 66.07967618235853,156.53394269511045 66.1717085641576,156.89779551324318 66.90796761831734,158.63308570197842 66.97699190466665,158.85699316603132 66.95398380921688,159.08090041347896 66.81593523651827,159.19285395601764 65.29740093741566,159.8365857750032 65.11333617393393,159.97652723800275 65.04431188758463,160.08848034741823 65.11333617393393,160.48031580419047 65.09032807836775,160.760197867261 65.25138474651612,161.23599659802858 65.43544951011427,161.93569883750752 65.55048998724669,162.5234470845462 65.57349808269646,162.88729048975802 65.45845760544762,163.02723010872432 64.58414997870568,163.25113332310866 63.89390711556189,163.47503632113512 63.3187047294341,163.8108904119581 63.22667234763503,163.97881727464846 63.29569663410075,164.28668287332403 63.66382616106421,165.15430190353072 64.03195568814408,166.27380552543036 64.05496378359385,166.4977056002681 64.03195568814408,166.69361798804312 63.77886663831305,166.9175176569115 62.78951853432227,167.2253793480777 61.685129953199066,167.75713948681368 60.58074137195945,168.12097466742853 59.08521516842302,168.792668883616 58.118875159765594,169.12851526096347 57.773753728251904,169.32442542276112 57.68172134645283,169.40838686999632 57.61269706021994,169.60429679499066 57.52066467842087,169.99611614772584 57.49765658285469,170.22001262304548 57.84277801460121,171.143583295212 57.86578610993456,171.33949175199086 57.7047294419026,171.42345246853074 56.922454196959734,171.61936068856448 56.48530038364697,171.84325559424178 56.48530038364697,172.03916345912148 56.76139752881136,172.8787667167635 56.738389433478005,172.9627268751501 55.88708990206942,173.1866204817925 55.33489561150782,173.41051387191692 53.81636131228879,173.91427320841467 52.32083510875236,174.1381658949831 50.38815509167034,174.55796409885806 50.02002556459047,174.6699101580307 48.524499360937625,174.97776154158055 44.79718789958861,175.92929959423782 42.887515977956355,176.23714930348797 41.046868342673406,176.57298488312517 40.60971452924423,176.74090249024448 40.494674052111804,176.936806211379 40.494674052111804,177.07673733933188 40.60971452924423,177.69243329744495 40.60971452924423,177.46854404755868 40.51768214756157,176.99277867276396 40.51768214756157,177.38458552310476 40.56369833834469,177.66444715310354 40.86280357919168,178.25215547521657 41.09288453345653,178.81187630000932 41.36898167873733,180.3790874118131 41.59906263323501,180.88283158787817 41.921175969415344,181.4705317417538 42.51938645087648,183.03772485995432 43.02556455053855,184.01721517274564 43.57775884110015,185.19259807936032 43.738815509248525,185.44446506889653 43.85385598638095,185.528420671224 44.429058372508734,185.61237624307978 45.326374094584025,185.5843910558615 46.476778866606764,185.2765537729574 47.21303792076651,185.19259807936032 47.99531316582579,185.3045389973413 49.39880698767956,185.69633178446384 49.81295270554256,185.72431695823616 51.193438432062976,185.44446506889653 54.04644226678647,184.74483386603242 55.33489561150782,184.6049073718168 57.014486578525975,184.26908344074036 57.17554324679077,184.15714202210074 57.198551342240535,184.07318592259253 57.22155943757389,183.5974341174442 56.8764380060602,182.33808638565824 56.55432466987986,181.0507460697845 56.00213037931826,179.6234690928395 55.979122283752076,179.45555357597186 56.02513847465161,179.3715957718232 56.18619514279999,179.51152542844648 56.23221133358311,179.6234690928395 56.922454196959734,181.8063597313885 57.49765658285469,184.04520054940076 57.45164039207157,184.26908344074036 57.38261610572226,184.35303946914792 57.03749467409216,184.52095143470797 50.66425223695114,185.72431695823616 49.5138474649284,185.97618336942105 49.1687260332983,185.97618336942105 48.89262888790108,185.94819822612044 48.27141031110659,185.75230212853057 47.37409458879847,185.41647986137832 46.821900298353285,185.33252421852376 45.2113336174516,185.86424277604965 44.36003408615943,186.06013877893565 44.03792074986268,186.2000643938518 43.53174265031703,186.50790044905443 42.15125692379661,187.51536104131083 38.44695355789736,190.145931924897 37.181508308509365,190.98546953391633 34.25948018755298,193.08430024125846 33.56923732429277,193.75592205036082 32.76395398378372,194.73536703056016 32.119727311539464,195.37900004789117 31.268427780130878,196.33045427514298 29.65786109934561,198.03746529728232 29.473796335747465,198.12141633441206 29.312739667715505,198.12141633441206 28.461440136423334,197.98149792227196 28.27737537282519,197.8975468344288 26.068598210578784,194.95923958720232 25.88453344698064,194.7633511119202 25.746484874282032,194.7913351899915 25.30933106096927,195.18311192760302 24.04388581169769,196.0785991247103 21.720068172202446,197.86956313175324 21.075841499841772,198.3173019694077 20.293566254898906,198.98890860303072 19.373242437141016,199.63252979934623 18.91308052826207,200.02429834750365 18.153813378768973,200.55598317434487 14.725607158034109,203.24237205703685 14.426501917419955,203.41027032764396 13.713250958709978,203.6621175052569 13.230080954381265,204.2217769196577 13.092032381799072,204.33370864034805 13.0,204.30572571522498 13.0,204.10984514503798 13.759267149609514,203.35430425095547 14.49552620376926,203.018507506873 14.817639539949596,202.79464274042402 15.968044311972335,201.8991815106274 16.704303366015665,201.39548304742493 17.92373242438771,200.38808283454273 18.77503195567988,199.7724472140544 19.810396250570193,198.87697429931723 22.042181508266367,197.47779093861755 23.422667234786786,196.3024703830306 24.1819343843963,195.7987597475585 25.240306774619967,194.93125552947458 25.72347677894868,194.65141476597637 25.976565828779712,194.65141476597637 26.16063059226144,194.73536703056016 28.231359181925654,197.47779093861755 28.553472518222407,197.78561200325203 28.829569663386792,197.8975468344288 29.38176395406481,197.8975468344288 29.565828717546538,197.86956313175324 30.80826587136835,196.66626071619976 31.314443971030414,196.0785991247103 31.774605879792944,195.65883993220632 32.05070302519016,195.32303203034098 32.786962079349905,194.56746247094998 33.93736685125623,193.25220587616786 34.44354495103471,192.80445724599122 40.31060928851366,188.66274137757136 43.48572645941749,186.36797502014088 44.314017895259894,185.920213079502 46.016616957844235,185.24856854521204 46.36173838947434,184.99670134256303 46.66084363020491,184.6049073718168 46.68385172565468,184.32505412976025 46.45377077127341,183.56944868674327 46.26970600779168,183.34556511900155 46.26970600779168,183.1496668197069 46.06263314874377,182.25412962668634 45.99360886239447,181.33060326900159 45.855560289812274,181.0507460697845 45.6945036216639,180.96678884410358 45.34938219003379,180.99477458934416 43.43971026840154,181.8903166527307 42.79548359604087,182.0862160174147 42.10524073289707,182.17017283722817 41.898167873965576,182.03024478725274 41.66808691958431,181.63844579740544 41.27694929705467,180.74290276007378 41.13890072423965,180.2951299425331 40.931827865424566,179.34360983040824 40.839795483625494,178.5040300138644 40.9088197699748,178.30812761864217 41.16190881980583,178.0562528668961 42.22028121014591,177.5804886996193 41.64507882413454,177.83236396880238 41.53003834700212,178.00028066271625 41.507030251435935,178.1961833183741 41.29995739250444,178.1402111479547 40.9778440563241,177.94430844493036 40.816787388175726,177.7763917104312 40.655730720143765,177.52451638037746 40.56369833834469,177.21666838267993 40.494674052111804,176.68492996810528 40.103536429582164,175.48151746827352 39.82743928418495,174.50199104895 39.55134213890415,173.69038030527008 39.298253089073114,173.1866204817925 39.20622070739046,172.8787667167635 39.160204516374506,172.48695224206313 39.36727737542242,171.7872818880569 39.55134213890415,171.56338692830468 40.03451214323286,171.08760941994842 40.9778440563241,170.30397374546737 41.2539412016049,170.13605147022463 43.14060502778739,169.43637401224987 43.80783979559783,169.07254089861817 44.82019599492196,168.70870721319807 45.832552194362506,168.14896196541667 46.98295696626883,167.75713948681368 49.1687260332983,166.9175176569115 50.89433319144882,166.16185540679726 51.216446527512744,165.88197987344756 51.423519386560656,165.5461287869839 51.607584150042385,165.43417831642728 51.72262462717481,165.4061906903953 51.74563272274099,165.37820306097274 51.40051129099447,164.6785112250218 51.07839795493055,163.83887823086116 51.05538985936437,163.64296342739544 51.101406050263904,163.55899988942838 51.26246271841228,163.39107272222464 54.09245845768601,162.0196629641432 55.726033233921044,161.29197285501868 56.00213037931826,161.09605589641433 56.117170856450684,160.95611511010793 56.508308478980325,160.87215059777373 56.99147848330904,160.59226866997778" stroke="#4DD2FF" stroke-linecap="round" stroke-linejoin="round" stroke-width="0.5"><title>2025-11-30 10.0km</title><desc>16605669845</desc></polyline><polyline fill="none" points="183.17882444849238,154.3272528573434 181.75060420006048,154.7857563385769 180.46123869798612,155.29252211867424 179.05285484192427,155.8958130361716 177.40643427788746,156.52323365592747 177.3072523160372,156.57149669877253 177.24774313915987,156.6921542549826 177.2675795314135,157.36783522153564 177.46594345476478,157.9952512136515 177.98168965557124,159.29833966428123 178.2395627561491,160.1670605714462 178.59661781822797,161.20469447725918 178.89416370319668,161.7355748546688 179.21154598076828,162.55602356958843 179.82647414319217,163.93147414294071 180.00500167428982,164.5106083908613 179.98516528191976,164.67952222992608 179.84631053567864,164.77604435947433 178.6957997798454,165.06561046814022 177.78332573233638,165.2586543072539 177.40643427788746,165.42756751325214 176.43445105315186,165.78952390198538 176.01788681407925,165.98256704096275 175.36328586691525,166.39278309127258 174.88721245073248,166.60995595312852 174.70868491963483,166.8271285785595 174.58966656564735,166.89951940126775 173.59784694877453,167.26147312068497 172.78455486276653,167.50277523571276 171.7133896764135,167.9853785905725 170.70173366717063,168.46798077861604 169.19416784937494,169.33666177662963 167.82545677793678,170.06055972042668 166.95265551505145,170.63967618522292 166.51625488360878,171.02575289501692 165.98067229043227,171.41182885812304 165.08803463506047,171.82203375065 163.00521343946457,172.6907001522486 162.92586787010077,172.78721840791695 162.92586787010077,172.8837366169755 163.263086539926,173.51110383820196 163.48128685576376,173.6800100608816 163.77883274073247,173.6558806092653 163.52095964038745,173.6800100608816 163.3027593246661,173.6076216971851 163.67965077899862,173.6076216971851 163.50112324790098,173.6800100608816 163.44161407090724,173.6558806092653 163.75899634847883,173.6317511546804 163.5804688173812,173.75239839823917 163.40194128628355,174.0902102922846 163.52095964038745,174.06608089026122 163.48128685576376,174.13846908771666 162.94570426247083,174.59692706153146 162.1125757843256,175.07951326492184 161.02157420560252,175.85164876363706 160.66451914352365,176.06881133450952 159.57351756480057,176.5996521798661 159.41482642607298,176.93745925564144 159.39499003381934,177.20287869979802 159.45449921081308,177.66132963584096 159.9107362346258,179.22970645480382 160.1487729427172,180.3878845039435 160.74386471277103,182.052753677679 160.8033738898812,182.5353218571836 160.96206502849236,183.13853044116695 161.2596109136939,183.98301939676458 161.2992836983176,184.46558291034307 161.3786292676814,184.99640142802673 161.47781122941524,185.45483446659637 161.61666597577278,186.29931362396746 161.7555207221303,186.66123216932465 162.0729029995855,187.2161726646591 162.50930363102816,188.30192134619574 163.52095964038745,190.4492735734093 163.67965077899862,190.69054766120098 163.93752387957647,190.811184595761 164.47310647263657,190.85943934918032 165.06819824280683,190.7870572147076 166.02034507517237,190.52165583029273 166.4964184911223,190.49752841425652 168.0436570936581,190.88356672156078 168.69825804093853,190.9800761816732 169.80909601179883,190.83531197396223 170.6422244901769,190.56991065376496 171.1778070833534,190.4492735734093 172.82422764739022,190.1597442831844 173.97473840310704,190.03910695493687 174.9863944123499,189.79783207987202 175.16492194344755,189.6771945330256 175.28394029755145,189.50830184492224 175.32361308217514,189.3635365699447 175.32361308217514,189.1946436165017 174.7285213120049,187.04727789461322 174.27228428819217,185.67198659111455 174.27228428819217,185.55134655107395 174.33179346530233,185.52721853433468 174.39130264229607,185.55134655107395 174.43097542691976,185.64785858891264 174.70868491963483,186.44408112087694 175.36328586691525,188.63970862059796 175.44263143616263,189.04987811410683 175.4624678286491,189.3635365699447 175.422795043909,189.53242938048788 175.28394029755145,189.7495770698588 175.08557637408376,189.89434206485748 174.8475396661088,189.99085200329137 173.73670169501565,190.1597442831844 170.523206136073,190.83531197396223 168.71809443319216,191.14896762471471 168.46022133284714,191.17309496211237 168.22218462475576,191.12484028450854 167.5080745004816,190.9559488210507 166.65510962996632,190.6422928669781 166.45674570649862,190.6181654654938 165.6236172283534,190.83531197396223 164.71114318072796,191.12484028450854 164.09621501818765,191.29373160511022 163.69948717136867,191.51087737879425 162.4894672386581,192.403585300548 161.9935574302217,192.69311133683368 158.5221887708176,195.20231939807127 155.38803878123872,197.39785058393318 154.63425587234087,198.19402625782823 154.41605555661954,198.48354389761516 153.3448903702665,199.617483944603 152.49192549975123,200.63078662312182 151.75797898310702,201.3786972063681 151.5397786675021,201.5475798535772 151.3810875286581,201.5958320121863 151.14305082068313,201.5958320121863 150.54795905051287,201.5234537698998 150.36943151941523,201.42694940585352 148.54448342428077,198.99019875699014 148.32628310844302,198.7730611175939 148.20726475445554,198.7489346985967 146.6401897596661,200.0035046189587 144.33916824823245,201.69233629466908 143.8630948321661,202.07835295768746 143.10931192326825,202.65737655315024 142.77209325344302,202.8745099685475 142.29601983726025,203.28465022012824 141.54223692847881,203.79129289713455 140.70910845010076,204.53919164242689 140.05450750305317,204.97345414441952 138.90399674721994,205.91435299227305 138.54694168514106,206.10735733619367 137.81299516872969,206.3968635022611 137.4162673219107,206.80699651894975 137.19806700618938,206.9758745750878 136.99970308272168,207.0 136.8410119441105,206.92762371653225 136.82117555162404,206.80699651894975 137.19806700618938,206.61399285128573 137.75348599173594,206.10735733619367 139.6577796562342,205.02170547531568 140.37188978039194,204.39443726518948 141.02649072767235,204.00842507947527 142.09765591390897,203.11576904212416 142.55389293772168,202.80213218966674 143.44653059297707,202.05422693816945 144.89458723377902,201.08918376448855 145.8665704583982,200.36539832339622 146.1442799512297,200.1000096709322 146.71953532891348,199.73811548555386 147.51299102255143,199.03845153375005 148.06841000798158,198.70068185191485 148.34611950069666,198.62830256007146 148.50481063954066,198.70068185191485 148.7626837398857,199.06257791773533 149.4569574719062,199.9311257993686 150.17106759594753,200.94442688614072 150.48844987340271,201.25806665656273 150.62730461987667,201.35457110227435 150.82566854322795,201.40282330755144 151.32157835178077,201.42694940585352 151.51994227501564,201.3786972063681 152.17454322229605,200.77554372878512 153.28538119327277,199.47272599927965 155.03098371915985,197.59086316007597 155.5467299199663,197.1083313699346 155.98313055140898,196.77055842296977 159.19662611035164,194.5750203390926 160.0694273733534,193.89946530229645 161.3786292676814,193.05501829185232 162.05306660721544,192.52422120001575 162.4894672386581,192.2829493281024 164.33425172627904,190.9559488210507 164.37392451090273,190.88356672156078 164.33425172627904,190.85943934918032 163.87801470246632,190.83531197396223 163.73915995599236,190.7870572147076 163.5407960327575,190.59403806104092 163.28292293217964,190.1356168233906 162.86635869322345,189.53242938048788 162.608485592762,188.7120915336709 162.13241217669565,187.7952393629821 161.7555207221303,186.87838298169663 161.51748401403893,186.05803422919416 161.43813844479155,185.45483446659637 161.21993812907021,184.537967336757 161.20010173658375,184.22430129938584 161.02157420560252,183.45219818454643 160.7240283205174,182.46293670470186 160.4463188276859,181.25651363126235 160.30746408144478,180.82219954003813 159.97024541161954,180.17072663153522 159.85122705763206,179.73641017808404 159.7917178805219,179.37447907836759 159.93057262687944,178.91603207674052 160.0297545887297,178.79538795392727 160.42648243543226,178.40932627103757 161.51748401403893,177.5165557697619 162.46963084640447,177.08223354163056 162.98537704721093,176.8892011369462 163.9573602717137,176.40661930853094 164.8103251423454,176.06881133450952 165.56410805135965,175.70687358509167 166.25838178314734,175.51383985043503 167.13118304603267,175.17603036561923 168.3610393711133,174.64518573433452 168.48005772510078,174.5486683770141 168.49989411747083,174.4038922534819 168.22218462475576,173.58349223685218 168.14283905539196,173.05264337047993 168.18251184013207,172.54592268115084 168.30153019411955,172.35288588973344 169.53138651920017,171.70138534042053 169.92811436601914,171.55660715178237 171.69355328415986,170.76032523729373 172.2092994848499,170.615546366098 172.38782701594755,170.49489722658473 172.38782701594755,170.39837786242424 172.14979030785616,170.1329493703961 171.7530624611536,169.3607917503541 171.27698904497083,168.17841960578517 171.03895233687945,167.406254424699 170.58271531306673,166.58582564677636 170.2454966433579,165.8860454948299 169.92811436601914,164.89669695579505 169.92811436601914,164.77604435947433 169.96778715064283,164.70365276667872 170.08680550463032,164.55886950225977 170.1661510738777,164.3416944087512 170.3248422127217,164.19691088184481 170.88026119826827,163.93147414294071 171.7927352457773,163.61777572377468 172.22913587721996,163.40059960627696 172.3283178389538,163.3040768115461 172.3283178389538,163.13516180838633 172.14979030785616,162.72493906284217 172.11011752323247,162.6042851536913 171.93158999225125,162.29058464852278 171.9117535998812,162.07340708689298 171.336498222081,160.9633847480436 171.11829790624324,160.60141960703186 171.03895233687945,160.33597808651393 171.19764347560704,160.1670605714462 172.07044473860878,159.6844383120333 172.903573216754,159.15355247879052 174.66901213501114,157.92285716136394 174.7285213120049,157.82633171751513 174.74835770437494,157.7539376039058 174.58966656564735,157.0299950241897 174.58966656564735,156.88520619309566 174.6491757426411,156.7645487536356 174.90704884310253,156.52323365592747 175.2641039051814,156.35431291389978 176.17657795280684,156.16126046217687 176.4939602301456,156.04060258505342 177.56512541661505,155.19599540262425 178.9735092726769,154.35138464576448 180.18352920527104,153.72395719823544 181.21502160700038,153.07239583798219 181.3935491379816,153.0 181.5522402767092,153.0 181.73076780780684,153.19305550960416" stroke="#4DD2FF" stroke-linecap="round" stroke-linejoin="round" stroke-width="0.5"><title>2025-11-26 10.0km</title><desc>16570876727</desc></polyline><polyline fill="none" points="63.00930331181735,213.0988236451958 63.29361950454768,213.5929411540128 63.69978549424559,214.40823243111663 64.0450265853433,215.32234302486177 64.430884275469,216.55762111378135 64.57304237177595,216.8540867439151 64.97920836147387,217.57054357416928 65.06044155929703,217.8670077345305 65.04013325984124,218.03994496287487 64.95890006201807,218.06465026928345 63.02961161127314,218.28699789228267 62.8062203170266,218.36111371283187 62.72498711908702,218.43522950648912 62.74529541854281,218.58346101321513 62.8062203170266,218.70698718664062 63.2326946061803,219.2505014626804 63.45608590042684,219.62107854927308 63.6388605957618,220.04106510158454 63.82163529098034,220.60928082786268 64.22780128067825,221.32572449134022 64.32934277807362,221.72100267875066 64.30903447850142,221.8939366452978 64.10595148371067,222.06687046546722 64.00440998643171,222.33862331577984 63.98410168697592,222.43744244442496 64.06533488479909,222.6844900570868 63.96379338740371,222.78330901851587 63.61855229618959,222.95624208603112 63.51701079891063,223.079765616043 63.51701079891063,223.2526984326687 63.84194359043613,223.69738214630343 63.84194359043613,223.82090522826184 63.74040209315717,223.94442823564168 63.51701079891063,224.11736032050976 62.40005432732869,224.85849616950145 62.278204530477524,225.0067230166751 62.29851283004973,225.1796542025695 63.00930331181735,226.88425377526437 63.07022821018472,227.15600021922728 63.00930331181735,227.3042253999738 62.74529541854281,227.45245047313801 61.08001486118883,227.99594148837787 60.3692243793048,228.3665027154202 59.536584100686014,228.71235925446672 58.48055252758786,229.0335112308967 57.58698735036887,229.40407057662378 57.20112966024317,229.60170195285173 56.14509808726143,230.26870643667644 55.25153291015886,230.63926354252908 54.012726641842164,231.23215351440012 53.444094256381504,231.45448681029666 50.1744580399245,232.9367026019172 49.910450146649964,233.0108131092711 49.3824343602173,233.0849235898204 49.09811816748697,233.40606869482144 48.85441857366823,233.5789927730657 47.026671620318666,234.44361096952343 46.051873245392926,234.8388637839671 45.15830806817394,235.110599650332 41.868363552261144,236.3951643096807 40.792023679823615,236.86452245965484 40.4264742891537,237.11155263197725 40.34524109121412,237.25977059196157 40.36554939066991,237.6550179599435 40.528015786549076,238.2972933024721 40.50770748697687,238.5690245705482 40.34524109121412,238.6925386638759 40.040616599028,238.81605268255225 39.00489332538564,239.11248602287378 38.84242692962289,239.2112970406888 38.7815020311391,239.3348107458587 38.801810330711305,239.55713522709266 39.12674312235322,240.64405143157637 39.49229251302313,241.70625941030448 39.63445060933009,242.39792675428907 39.898458502604626,243.28720990000875 39.93907510151621,243.58363675535657 40.02030829957221,243.75655222244677 40.101541497395374,244.8434460945282 40.28431619273033,245.683314673297 40.48739918752108,246.20205530665407 40.95449007570278,246.96781288311468 41.36065606516786,248.17819803967723 42.33545444032643,250.25312734689214 42.518229135661386,250.50014133755758 42.66038723196834,250.57424547658593 43.16809471906163,250.62364822093514 43.91950179974083,250.57424547658593 44.853683575987816,250.30253016887582 45.38169936242048,250.20372451293224 45.86909855005797,250.30253016887582 47.31098781316541,250.7718563825183 47.51407080795616,250.8212590791809 47.83900359971449,250.79655773229024 48.1233197923284,250.7718563825183 49.09811816748697,250.47543995187152 50.621240628534,250.17902309144847 51.128948115510866,250.00611305766506 53.36286105832551,249.66029255131434 53.93149344378617,249.561486584862 54.09395983966533,249.5120835837588 54.256426235544495,249.38857602870848 54.33765943336766,249.24036686407635 54.378276032512076,248.8451418998302 54.256426235544495,248.25230302054842 53.99241834238637,247.46184850666032 53.667485550628044,246.27616100397427 53.34255275898613,245.51040083626867 53.34255275898613,245.28808283082617 53.36286105832551,245.23867879678437 53.4237859568093,245.21397677531058 53.58625235268846,245.3868908630975 54.47981752990745,248.7216339417937 54.540742428274825,249.21566532623547 54.378276032512076,249.48738207873248 54.256426235544495,249.61088957404718 53.99241834238637,249.6849940354441 51.636655602487735,250.10491880917107 50.600932329078205,250.32723157535656 49.54490075598005,250.50014133755758 48.4888691828819,250.7718563825183 47.798387000570074,250.89536310172116 47.412529310560785,250.92006443663558 46.904821823583916,250.8212590791809 45.86909855005797,250.47543995187152 45.38169936242048,250.37663437954325 44.34597608889453,250.64834958869324 42.96501172427088,251.0929736972612 41.84805525280535,251.8587129504158 40.14215809630696,252.97026482631918 39.45167591399513,253.48898696656397 38.964276726474054,253.78539902705234 37.887936854036525,254.60052997719322 34.78076703345869,256.74949599200045 33.98874335375149,257.34231022726453 33.257644572411664,258.08332560367126 32.50623749161605,258.9231397829717 31.5111308171181,259.8864517988841 30.333249447168782,261.22026094203466 29.967700056382455,261.5166617919458 29.764617061708122,261.5660618918191 29.602150665828958,261.54136184342497 29.15536807733588,261.44256161976955 28.9929016813403,261.3684614207159 28.586735691758804,260.75095871731173 28.26180290011689,260.4051563886751 27.287004525074735,259.0466415771807 26.962071733316407,258.72553675707604 26.75898873852566,258.7502371457522 24.20014300395269,260.602757790999 23.753360415343195,260.9979600224615 22.900411837152205,261.59076193734654 22.16931305581238,262.1588621591218 21.113281482830644,262.89986007595144 20.138483107672073,263.6408553067886 19.041834935778752,264.35714814357925 17.011004987638444,266.0120219964738 16.66576389654074,266.2343174635171 15.995590013684705,266.4813121434854 15.366032729740255,267.0 15.081716537009925,267.0 14.959866740158759,266.9506012132042 14.939558440702967,266.92590181538253 15.000483339070342,266.85180360382947 15.447265927679837,266.80240478123596 15.77219871932175,266.58010993192147 16.218981307931244,266.3825143072463 17.59994567267131,265.49333163321717 18.249811256071553,264.92524067765044 20.321257803123444,263.418557019555 21.336672777077183,262.50466152127774 23.042569933459163,261.3931614900648 23.85490191273857,260.80035900224175 24.44384259765502,260.3063556158886 25.41864097281359,259.6147488693241 26.048198256641626,259.071341927076 26.677755540586077,258.6761359707016 26.799605337437242,258.65143557311967 26.88083853549324,258.6761359707016 27.02299663168378,258.7996379141696 27.855636910535395,259.8123510357109 28.42426929587964,260.57805762610224 29.11475147830788,261.34376134838385 29.256909574614838,261.44256161976955 29.358451072126627,261.4672616801399 29.825541960191913,261.4919617375417 30.069241553894244,261.44256161976955 32.770245384890586,258.5773343622859 33.46072756720241,257.7869197754626 34.04966825211886,257.1694062529132 36.03988160123117,255.76146844608593 38.00978665088769,254.42762368364492 42.07144654705189,251.5128955784603 42.86347022675909,250.9447657685232 43.269636216457,250.7224536739377 43.229019617429,250.67305095339543 42.68069553154055,250.57424547658593 42.457304237177595,250.47543995187152 41.644972258014604,249.09215759208018 41.38096436462365,248.35110961980536 40.93418177613057,247.36304147740884 40.690482182311825,246.7454964628705 40.406165989581496,245.80682446730498 40.24369959381875,245.263380815275 40.14215809630696,244.5717231683666 40.0,244.0282762323477 39.67506720835809,243.28720990000875 39.65475890878588,242.9413780252944 39.69537550781388,242.76846186853072 39.93907510151621,242.6202479034837 40.77171538036782,242.42262911613216 42.86347022675909,242.0273909682437 43.51333581027575,241.8544740382349 44.87399187544361,241.63215205607412 45.7269404536346,241.48393726692302 47.49376250850037,240.98988719354384 47.61561230535153,241.01458972558612 47.59530400589574,241.0639947807067 47.47345420892816,241.08869730384322 47.39222101098858,241.0392922546307 47.18913801619783,240.22410721967753 47.14852141728625,240.14999932792853 47.04697991977446,240.10059405193897 47.20944631565362,240.00178346394387 47.81869530014228,239.87827016186202 47.920236797537655,239.80416214480647 47.920236797537655,239.7547567852016 47.43283761001658,239.03837772806583 47.351604412076995,238.79134988480655 47.006363320862874,238.07496745078242 46.782972026616335,236.81511638936354 46.782972026616335,236.6668981068069 46.82358862552792,236.5433827892848 47.006363320862874,236.44457048154436 48.06239489396103,236.04932077261037 48.69195217778906,235.7528829892981 50.72278212592937,235.18470936945232 52.936386769404635,234.61653416993795 53.18008636299055,234.4930176131311 53.22070296201855,234.3447976464813 53.159778063651174,234.0977641298814 52.95669506874401,233.7025098822196 52.38806268328335,232.83788855024613 52.266212886432186,232.59085321211023 52.24590458709281,232.44263186585158 52.30682948534377,232.36852115247166 52.50991248025093,232.22029964502144 53.098853165167384,231.99796718213474 53.70810214965604,231.65211620368063 54.05334324075375,231.40507943218108 54.19550133717712,231.10863491208875 54.29704283445608,231.0098199764907 54.885983519488946,230.73807865736308 55.678007199196145,230.2440026057593 55.738932097679935,230.07107570543303 55.617082300712354,229.57699804128788 55.59677400125656,229.10762315381726 55.678007199196145,228.61354316024517 55.82016529561952,228.1441660598939 56.08417318877764,227.82301268579613 56.85588856914546,227.20540862472262 57.28236285818275,226.78543679705763 57.505754152545705,226.6619155070075 57.34328775666654,225.7478556400456 56.89650516805705,224.56204215246544 56.79496367066167,224.1914740264183 56.10448148834985,222.16568972551613 55.94201509247068,221.77041239837126 55.71862379810773,221.3010195792158 55.678007199196145,220.93044553940126 55.434307605493814,220.18929544332786 54.540742428274825,218.4105242449441 54.07365154020954,217.2493735816097 53.78933534747921,216.82938129118702 53.70810214965604,216.0635107743583 53.70810214965604,215.96468856312276 53.93149344378617,215.6435160464025 54.317351134028286,215.2729317459598 54.47981752990745,215.17410915238725 55.75924039713573,214.72940688952804 56.6934221732663,214.11176325222186 57.83068694418762,213.56823530698603 58.82579361880198,213.0" stroke="#4DD2FF" stroke-linecap="round" stroke-linejoin="round" stroke-width="0.5"><title>2025-11-20 10.0km</title><desc>16570876284</desc></polyline></svg>