<?xml version="1.0" encoding="utf-8" ?>
<svg baseProfile="full" height="300mm" version="1.1" viewBox="0,0,200,300" width="200mm" xmlns="http://www.w3.org/2000/svg" xmlns:ev="http://www.w3.org/2001/xml-events" xmlns:xlink="http://www.w3.org/1999/xlink"><defs /><rect fill="#222222" height="300" width="200" x="0" y="0" /><text fill="#FFFFFF" style="font-size:12px; font-family:Arial; font-weight:bold;" x="10" y="20">Over 10km Runs</text><text fill="#FFFFFF" style="font-size:4px; font-family:Arial" x="10" y="280">Runner</text><text fill="#FFFFFF" style="font-size:9px; font-family:Arial" x="10" y="290">Ennui</text><text fill="#FFFFFF" style="font-size:4px; font-family:Arial" x="65" y="280">SPECIAL TRACKS</text><rect fill="yellow" height="2.6" width="2.6" x="65" y="283" /><text fill="#FFFFFF" style="font-size:3px; font-family:Arial" x="70" y="285.5">Over 20.0 km</text><rect fill="red" height="2.6" width="2.6" x="65" y="287" /><text fill="#FFFFFF" style="font-size:3px; font-family:Arial" x="70" y="289.5">Over 40.0 km</text><text fill="#FFFFFF" style="font-size:4px; font-family:Arial" x="120" y="280">STATISTICS</text><text fill="#FFFFFF" style="font-size:3px; font-family:Arial" x="120" y="285">Number: 8</text><text fill="#FFFFFF" style="font-size:3px; font-family:Arial" x="120" y="290">Weekly: 1.6</text><text fill="#FFFFFF" style="font-size:3px; font-family:Arial" x="141" y="285">Total: 87.1 km</text><text fill="#FFFFFF" style="font-size:3px; font-family:Arial" x="141" y="290">Avg: 10.9 km</text><text fill="#FFFFFF" style="font-size:3px; font-family:Arial" x="167" y="285">Min: 10.0 km</text><text fill="#FFFFFF" style="font-size:3px; font-family:Arial" x="167" y="290">Max: 15.0 km</text><polyline fill="none" points="64.07769617321901,36.46375095707481 64.80827212997247,37.96192347741453 65.37185929657426,39.33312285815191 65.26749130268581,39.688617532592616 65.30923850019462,39.94254193166853 64.82914572861046,40.19646602369903 64.74565133359283,40.37421270550112 64.78739853110164,40.526566884465865 65.03788171627093,40.85666722639871 65.33011209894903,41.03441334946547 65.43448009272106,41.05980564051424 65.99806725943927,40.90745184835396 66.16505604947452,40.98362875828752 66.74951681483071,42.634121688097366 67.0,43.421275286833406 67.0,43.59901923954021 66.91650560486596,43.64980319842289 66.56165442592464,43.751371079240926 65.89369926555082,44.00529056665255 64.07769617321901,44.7416553440853 61.99033629684709,45.50340929382946 61.51024352526292,45.63036801677663 60.19520680315327,46.18898548648576 59.50637804414146,46.3921187435044 58.4835717047099,46.8745594414504 57.39814456901513,47.585522660810966 56.08310784690548,48.093352058465825 56.563200618489645,47.91561190894572 56.7510630072793,47.91561190894572 56.855431001167744,48.093352058465825 56.89717819879297,48.271092057577334 56.62582141475286,48.77891979772539 55.77000386558939,51.851251442567445 55.66563587170094,52.51141601323616 55.415152686531655,53.93330188807158 55.2690374951344,54.339553227313445 54.91418631619308,55.02510058073676 54.454967143479735,55.65986465384776 54.30885195208248,55.78681723833142 54.20448395831045,55.81220774597023 54.141863161930814,55.736036213696934 53.97487437189557,55.40595925472735 53.97487437189557,55.35517813812476 54.05836876691319,55.38056869796128 54.87243911868427,56.11689359876618 54.93505991494749,56.4723598685523 55.12292230385356,57.056338862894336 55.37340548890643,57.437193854217185 55.66563587170094,57.7926578897459 55.936992655624636,58.32585281532374 55.95786625437904,58.42741360003129 55.87437185936142,58.65592518624908 55.895245458115824,58.93521678728575 55.97873985313345,59.23989811047795 56.124855044530705,59.54457899178669 56.229223038302734,59.69691926668747 56.60494781611487,59.97620948370604 56.83455740241334,60.6617384422716 56.81368380365893,60.484008927072864 56.68844221101608,60.077769470517524 56.77193660615012,60.23010935878847 57.0432933899574,60.8902475979703 57.085040587582625,60.915637488797074 57.16853498260025,60.8902475979703 57.31465017399751,60.83946780706174 57.33552377275191,60.864857704073074 57.21028218010906,60.96641726128291 54.41321994585451,61.70272258303885 53.76613838423509,61.95662037143484 52.80595284118317,62.235907584326924 51.47004252031911,62.56597381166648 50.63509856979363,62.6929222226172 50.09238500194624,62.81987055679201 50.363741785869934,62.76909123233054 50.5307305760216,62.81987055679201 50.781213761190884,63.17532548440795 50.927328952471726,63.27688392470009 51.031696946243756,63.302273527064244 51.76227290299721,63.17532548440795 53.76613838423509,62.61675318524067 54.037495168158785,62.59136350003246 54.162736760801636,62.66753254653304 54.267104754573666,62.89603952046309 54.454967143479735,63.378442315908615 54.72632392740343,63.75928584560461 54.95593351370189,64.39402352746401 55.47777348291129,66.17127883415378 55.68650947045535,67.0599008492718 55.749130266718566,67.41534860299726 55.707383069209754,67.51690499353572 55.64476227294654,67.59307225426892 55.39427908777725,67.69462855892198 48.38074990338646,69.0402449612302 48.109393119462766,69.01485605222115 46.77348279859871,68.5578551665676 46.209895631996915,68.43091029960488 45.20796289131977,68.65941100481723 44.247777348267846,68.98946714025806 43.68419018178247,69.11641166971822 42.557015848578885,69.85268842760706 41.388094317750074,70.71590616813046 39.822574410471134,71.75684049108531 37.71434093546122,73.30553810985293 34.56242752226535,75.51431660169328 30.721685349941254,79.72870309719292 30.450328565901145,79.9571915155102 30.345960572129115,80.00796668577823 30.178971782093868,80.03335426640115 29.448395825340413,79.93180392579234 29.30228063405957,79.85564113802684 28.863935059984215,79.32250085101987 27.173173560062423,77.06298652369878 27.0896791650448,76.98682269606797 26.964437572518364,76.96143474736891 26.35910320840776,77.49458102547214 24.438732122303918,78.91629781971278 22.49748743721284,80.41416760676657 21.829532276722603,80.89653018044191 19.115964437602088,83.00368001758761 17.967916505644098,83.81606949161505 17.633938925457187,84.17148889879172 16.673753382405266,84.78077791244141 16.04754541942384,85.03464781334333 15.50483185146004,85.59316051570931 15.358716660295613,85.64393432413635 15.254348666523583,85.64393432413635 15.003865481354296,85.54238669501501 14.857750290073454,85.39006515929941 14.690761499805376,84.90771290124394 14.607267104787752,84.34919837691996 14.544646308524534,84.22226305074582 14.482025512261316,84.19687597626762 14.14804793195799,84.55229473930376 13.897564746788703,84.73000389544177 13.584460765472613,85.03464781334333 13.125241592642851,85.64393432413635 13.0,85.92319005112222 13.104367993888445,85.64393432413635 13.500966370338574,85.18696960661327 13.772323154378682,84.75539090545499 14.168921530828811,84.27303719041811 14.502899110899307,84.01916636929673 14.607267104787752,84.04455346525356 14.711635098676197,84.39997248594591 14.982991882483475,85.23774351325119 15.108233475126326,85.36467822591658 15.19172787014395,85.39006515929941 15.442211055313237,85.26313046191353 16.089292616932653,84.67922986613121 16.819868573569693,84.39997248594591 17.48782373405993,83.99377927035675 20.222265172051266,81.9120267158869 20.6397371472558,81.65815304205171 21.91302667185664,80.56649274968368 24.06300734449178,79.14478712141863 26.46347120217979,77.24070201412542 26.860069578746334,76.96143474736891 27.068805566290393,76.85988292202819 27.235794356442057,76.85988292202819 27.42365674523171,77.03759858425474 27.987243911949918,77.77384758352127 28.25860069587361,78.2054406250827 29.1144182451535,79.27172551510739 29.427522226586007,79.62715260924597 29.57363741786685,79.72870309719292 29.782373405527323,79.75409071153263 30.178971782093868,79.77947832272912 30.429454967263155,79.72870309719292 31.28527251642663,78.78935921128141 32.43332044838462,77.69768401359033 34.4371859296225,75.46354034540127 35.689601855468936,74.65111857595912 37.004638577462174,73.63558694634412 37.21337456512265,73.50864514752175 39.05025125620887,72.21383441837679 40.594897564849816,71.19829100782226 41.22110552759841,70.66512875222543 43.4963277928764,69.0656338671397 44.623502126079984,68.65941100481723 45.12446849641856,68.5578551665676 45.708929261774756,68.32935435086256 46.06378044071607,68.25318735708424 46.87785079237074,68.40552131705044 48.35987630463205,68.91330038582964 48.526865094783716,68.91330038582964 49.445303440326825,68.73557785137382 51.36567452654708,68.22779835303663 54.78894472355023,67.66923948735348 55.24816389637999,67.51690499353572 55.35253189026844,67.36457038926892 55.43602628528606,67.08528999451664 55.45689988404047,66.8060092285159 55.43602628528606,66.62828491140681 54.6845767297782,64.11473918365664 54.246231155702844,63.149935866647866 54.12098956317641,62.66753254653304 54.10011596453842,62.515194425868685 54.141863161930814,62.46441502770176 54.30885195208248,62.38824590752483 55.45689988404047,62.159738381247735 57.899110939353704,61.47421431107796 58.44182450720109,61.2457057905558 58.56706609984394,61.271095638439874 58.149594124406576,61.34726516371302 58.1913413220318,61.29648548329715 58.337456513312645,61.29648548329715 58.27483571716584,61.271095638439874 58.08697332825977,61.321875325083965 58.233088519540615,61.321875325083965 58.27483571716584,61.1949260856054 58.149594124406576,61.1949260856054 57.8782373405993,60.94102737653884 57.64862775418442,60.83946780706174 57.46076536527835,60.814077907038154 57.12678778509144,60.8902475979703 56.93892539618537,60.8902475979703 56.87630459992215,60.83946780706174 56.83455740241334,60.76329809766321 56.7093158098869,60.10315945961338 56.83455740241334,60.50939886698325 56.79281020478811,60.560178737694514 56.77193660615012,60.560178737694514 56.7093158098869,60.484008927072864 56.50057982222643,59.90003946128127 56.124855044530705,59.54457899178669 55.895245458115824,59.112947612899006 55.85349826060701,58.88443652386195 55.895245458115824,58.24968219449511 55.45689988404047,57.564145364493015 55.14379590260796,57.13250991643872 54.99768071132712,56.75165437272517 54.85156551992986,56.21845545149699 54.85156551992986,56.091503127870965 54.95593351370189,55.989941213832935 55.85349826060701,55.65986465384776 56.041360649396665,55.50752145126171 55.707383069209754,54.745803780897404 55.66563587170094,54.49189727702469 55.79087746422738,53.98408334846317 55.895245458115824,53.273141786005 56.14572864328511,52.409852368262364 56.270970235811546,51.77507847402012 56.4588326246012,51.114911589131225 56.60494781611487,50.35317798984761 56.93892539618537,49.28674631011381 57.23115577886347,48.72813707901514 57.419018167769536,48.499614692569594 58.045226130634546,47.83943751307379 58.73405488987919,47.356999031311716 59.255894858855754,47.10308359574992 60.007344414363615,46.8491678534192 60.59180517971981,46.595251803970314 61.802473908057436,46.16359381550865 62.428681870922446,45.85889352488448 62.5747970623197,45.75732666309341 62.6165442597121,45.60497627835139 62.533049864694476,45.42723402312549 62.428681870922446,45.32566695267451 62.17819868575316,45.224099833052605 62.01120989571791,44.94479000076535 61.42674913036171,43.421275286833406 61.385001932736486,43.24353118360159 61.364128334098496,42.96421871770872 61.468496327870525,42.837258383093285 61.69810591416899,42.7356900601153 63.576729802880436,42.02471042437537 64.01507537683938,41.61843526615121 64.95438732125331,41.05980564051424 65.14224971004296,40.932844154696795 65.2048705064226,40.83127491084451 65.2048705064226,40.67892095292336 65.10050251265056,40.47578217049886 65.05875531502534,40.247250805288786 65.35098569781985,39.917149505519774 65.39273289521225,39.790187329112086 65.30923850019462,39.51087027057656 65.35098569781985,39.231552840647055 65.33011209894903,39.028412658313755 64.80827212997247,38.190457329226774 64.55778894468676,37.68260398750135 64.16119056823663,36.79385768460634 63.639350599143654,35.77814301892067 63.43061461148318,35.32106981668039 63.28449942020234,34.86399561983126 62.88790104363579,34.07680994887778" stroke="#4DD2FF" stroke-linecap="round" stroke-linejoin="round" stroke-width="0.5"><title>2025-12-25 10.0km</title><desc>16835124706</desc></polyline><polyline fill="none" points="180.06728538288735,36.63242815078411 180.3596287702676,37.24208996118978 180.71461716934573,37.80094506670139 180.9025522042066,38.25818904735206 181.0069605569588,38.76623674778966 180.98607888631523,38.86784614047792 180.75638051051646,39.248880925253616 180.9025522042066,40.061752823443385 180.8399071925087,40.36657897445548 180.75638051051646,40.44278544311237 180.65197215776425,40.49358974020288 180.0464037123602,40.62060042915982 180.00464037118945,40.67140468326397 180.00464037118945,40.74761104141362 180.17169373552315,40.798415264784126 180.3596287702676,40.77301315458317 181.1531322505325,40.44278544311237 182.1763341067126,39.88393736447324 182.51044083526358,39.75692623014038 182.78190255223308,39.96014400816057 183.24129930394702,40.59519829752389 183.3665893272264,40.62060042915982 183.72157772618812,40.54439402499702 183.8886310904054,40.59519829752389 184.03480278421193,40.84921947584371 184.45243619498797,42.297134328153334 184.7030162414303,42.957583403316676 184.78654292342253,43.33861077162146 184.7447795823682,43.64343216875568 184.82830626447685,43.948253123729955 185.03712296986487,44.2022702483664 185.09976798144635,44.354680375763564 185.37122969829943,45.21833567619615 185.53828306263313,45.59935894492082 186.06032482604496,46.488410551755805 186.22737819026224,46.86943151737796 186.56148491881322,47.42826101729588 186.81206496513914,47.75847775046714 187.0,48.266502480444615 186.95823665894568,48.393508471112 186.85382830630988,48.44431084585085 185.35034802777227,48.62211906074663 184.9118329465855,48.74912483636581 184.03480278421193,48.90153166586242 183.8886310904054,49.00313615743653 183.8886310904054,49.3079493373225 183.80510440841317,49.434954698444926 183.59628770302515,49.48575682149385 182.51044083526358,49.638163116629585 181.98839907185175,49.765168278157944 181.77958236658014,49.89217336292495 181.75870069605298,50.069980352622224 182.19721577735618,50.933612162654754 182.9280742459232,52.635464458406204 182.94895591645036,52.787868469167734 182.80278422276024,52.91487172701454 181.63341067289002,53.194278624185245 181.0487238978967,53.42288399099198 180.58932714618277,53.52448629643186 180.44315545237623,53.499085724688484 180.4222737819655,53.397483406966785 180.61020881670993,53.60068799321016 180.88167053367943,54.286502021190245 181.34106728539336,55.83592547351145 181.424593967502,55.9883271632134 181.34106728539336,55.75972458724573 180.77726218104362,54.769110551060294 180.65197215776425,54.66750884740031 180.4640371230198,54.642108413769165 180.1299303943524,54.6929092779319 178.73085846868344,55.09931574866641 178.3758700696053,55.12471612695663 178.08352668222506,55.175516874413006 175.34802784223575,56.03912770195166 174.55452436197083,56.19152924415539 174.4083526681643,56.26772997392982 174.24129930394702,56.5471324132086 174.55452436197083,57.131336312842905 174.72157772618812,57.61393830945599 174.97215777263045,58.09653919779521 174.97215777263045,58.24893924800563 174.90951276104897,58.223539247279405 174.84686774935108,58.121939213815494 174.5127610209165,57.46153779869201 174.26218097447418,56.62333301387844 174.26218097447418,56.496331997259404 174.3039443155285,56.4201313504891 174.7424593968317,56.11532848684874 174.6380510441959,56.1407287424081 174.11600928066764,56.521732206703746 173.09280742472038,56.85193465037446 172.94663573091384,56.95353529791464 172.92575406038668,56.97893545216357 172.967517401441,57.05513589634211 173.3433874710463,57.46153779869201 173.6566125289537,58.02033913115156 173.6566125289537,58.121939213815494 173.59396751737222,58.2743392456905 173.57308584684506,58.50293908614549 173.59396751737222,58.756938617356354 173.69837587012444,59.0363377470494 173.9280742459232,59.34113637395785 174.3039443155285,59.620534727029735 174.5127610209165,60.38252834713785 174.55452436197083,60.38252834713785 174.55452436197083,60.306329109473154 174.42923433869146,59.84913310314005 174.5127610209165,59.92533250656561 174.76334106724244,60.611125894487486 175.03480278421193,60.5603264610254 175.0556844548555,60.58572617925529 174.47099767974578,60.81432350551768 173.88631090486888,60.96672158490401 173.15545243630186,61.22071813822549 172.09048723895103,61.47471438461798 170.52436194906477,61.9827059564268 169.54292343382258,62.21130176309089 169.2714617169695,62.36369882943109 169.18793503474444,62.516095785278594 169.31322505802382,62.77009046607418 169.3758700696053,62.846288810440456 169.54292343382258,62.897087691293564 171.23433874710463,62.36369882943109 171.65197215776425,62.3128998195898 171.86078886303585,62.38909832968784 171.96519721590448,62.56689474597806 172.15313225064892,63.04948426032206 172.44547563802917,63.40507582495047 172.61252900224645,63.76066678800271 173.21809744776692,65.94499807539978 173.42691415315494,66.91016048211895 173.42691415315494,67.2657455146691 173.30162412987556,67.34194222911901 171.77726218104362,67.64672881051956 170.90023201867007,67.72292538685724 170.16937354998663,67.84991961927153 167.78886310907546,68.30709822064091 166.51508120645303,68.6118834023946 165.9930394431576,68.68807962872961 165.3665893272264,68.5864846540644 164.05104408354964,68.12930666049942 163.80046403722372,68.10390785381605 161.2946635731496,68.91666814213386 159.5197215777589,70.18659980037773 158.37122969841585,70.89775817726331 158.05800464039203,71.17714116696152 155.8863109049853,72.67564359206881 154.82134570775088,73.48838620143943 153.00464037118945,74.70749422276276 152.27378190250602,75.2408517585427 151.31322505802382,76.25676713026769 148.3689095127629,79.53306075157889 148.13921113696415,79.73624006961472 147.97215777263045,79.78703486846644 147.5127610209165,79.71084266561957 147.13689095131122,79.63465043519682 146.96983758709393,79.53306075157889 146.15545243618544,78.440968552095 144.98607888631523,76.94250723029836 144.7772621809272,76.73932521167444 144.69373549893498,76.71392744551122 144.42227378184907,76.99330270425708 143.35730858473107,77.75523334066384 139.49419953592587,80.75213371400605 138.93039443169255,81.10769532955601 137.2807424593484,82.37755333258247 135.17169373563956,84.0283572676999 134.58700696064625,84.46010385044792 133.73085846868344,84.81565919396235 133.22969837579876,85.32359435566468 133.10440835275222,85.37438780434604 133.04176334105432,85.19661068025744 133.08352668222506,85.0696269282198 133.4802784222411,84.61248478553898 133.8561484919628,84.30772280480596 134.1276102088159,84.15534164880228 134.85846867749933,83.87597590910445 135.10904872394167,83.72359444011818 137.8236658932874,81.69183096378401 139.7030162413139,80.14259811659576 140.05800464050844,79.8886244292953 140.47563805105165,79.68544525858306 141.45707656617742,78.99971410726721 142.68909512762912,77.9838119930937 143.14849187945947,77.67904040137364 144.58932714618277,76.6123363503284 144.75638051040005,76.58693856881291 144.88167053379584,76.6123363503284 144.96519721578807,76.71392744551122 145.54988399066497,77.52665443976002 147.07424593972974,79.4568684566766 147.32482598617207,79.58385559949966 147.86774941999465,79.63465043519682 148.0556844548555,79.60925301884708 148.1600928074913,79.53306075157889 149.41299303958658,78.21239039680222 150.33178654289804,77.2980752903095 152.25290023209527,75.16465790774964 152.9837587006623,74.68209621113783 154.63341067289002,73.4629880424327 155.17633410682902,73.10741349461023 157.9118329467019,71.1263442873751 159.0394431555178,70.36438962018292 160.41763341077603,69.34844576689648 161.3990719257854,68.71347836474888 163.0069605568424,68.10390785381605 163.967517401441,67.9261161218601 164.65661252907012,68.0785090442223 165.8468677494675,68.53568714839639 166.24361948959995,68.56108590278018 167.32946635736153,68.40869333028968 169.22969837591518,67.90071729074407 170.4408352668397,67.67212767231103 171.4013921113219,67.57053220663511 172.34106728539336,67.39274002338061 172.69605568458792,67.2911444225756 172.92575406038668,67.18954877265787 173.0719257540768,67.06255414118641 173.15545243630186,66.85936257128196 173.1763341067126,66.55457484797807 173.11368909513112,66.0973924343125 172.65429234341718,64.52264539693715 172.19489559170324,63.20188071887242 172.13225058012176,62.87168825240224 172.13225058012176,62.94788655998127 172.46635730855633,63.58287138164451 172.65429234341718,64.06545856308367 173.21809744776692,66.17358957231045 173.30162412987556,67.01175626712211 173.23897911829408,67.24034660375037 173.09280742472038,67.34194222911901 171.44315545249265,67.72292538685724 167.58004640368745,68.45949086672044 166.13921113696415,68.76427582744509 165.76334106735885,68.76427582744509 164.3433874710463,68.28169943550893 163.8631090488052,68.18010426440742 161.46171693736687,68.865870716254 158.935034802882,70.61837481615657 157.8074245939497,71.35493014888198 157.3271461717086,71.73590603230696 155.0719257540768,73.36139537584677 153.23433874710463,74.5805041338026 152.25290023209527,75.2916476438404 151.2714617169695,76.30756277001637 148.41067285393365,79.40607357799308 148.11832946632057,79.68544525858306 147.9512761021033,79.76163747052487 147.82598607894033,79.76163747052487 147.22041763341986,79.66004784837423 146.96983758709393,79.53306075157889 146.42691415315494,78.8219315916649 146.00928074249532,78.16159521750524 144.81902552209795,76.79012073477497 144.6728538282914,76.73932521167444 143.7122969838092,77.52665443976002 141.10208816709928,79.4568684566766 140.05800464050844,80.3203795151203 138.42923433880787,81.5140507252363 137.19721577735618,82.50453871092759 136.3201856148662,83.11406745918794 134.90023201855365,84.25692909846839 134.46171693736687,84.51089750777464 133.70997679815628,84.79026240362145 133.20881670538802,85.29819762670377 133.06264501158148,85.34899108151149 133.0,85.19661068025744 133.04176334105432,85.0950236847275 133.41763341065962,84.71407201432157 134.58700696064625,84.129944778746 135.0881670534145,83.79978518841381 136.8631090488052,82.40295041436912 137.2807424593484,82.02199386505526 138.22041763341986,81.31087312559248 139.20185614854563,80.44736613627174 139.57772621815093,80.16799546843686 141.22737819026224,79.1520990008139 142.20881670538802,78.2631855639629 143.41995359631255,77.47585909473128 144.6310904873535,76.56154078429972 144.8399071925087,76.56154078429972 144.9443155452609,76.6123363503284 145.34106728539336,77.24727989001258 147.05336426920258,79.50766332303465 147.22041763341986,79.58385559949966 147.61716937355231,79.60925301884708 147.90951276104897,79.58385559949966 148.07656612538267,79.53306075157889 150.26914153131656,77.19648447733198 152.1276102088159,75.13925995136378 153.81902552209795,74.02174683076737 154.19489559170324,73.7169694940676 155.76102088170592,72.57405054496485 156.13689095142763,72.34546600929752 156.82598607894033,71.81210112609551 158.4965197215788,70.69457031514321 161.06496519723441,68.8150732780341 161.5034802784212,68.56108590278018 161.9837587006623,68.38329455751227 162.5266821346013,68.25630064729194 163.46635730855633,67.9261161218601 163.84222737816162,67.84991961927153 164.57308584696148,68.00231259685825 165.8468677494675,68.43409210008394 166.13921113696415,68.45949086672044 166.45243619487155,68.45949086672044 167.30858468683437,68.30709822064091 168.29002320196014,68.00231259685825 168.95823665894568,67.87531845649937 169.52204176341183,67.79912193550263 170.52436194906477,67.57053220663511 171.54756380512845,67.44353780533129 172.2157772622304,67.31654332735343 172.7587006961694,67.16414985252777 172.98839907185175,67.01175626712211 173.09280742472038,66.85936257128196 173.11368909513112,66.70696876487636 173.0719257540768,66.42757983283082 172.36194895592052,63.91306273076043 171.96519721590448,63.02408483985346 171.8399071926251,62.49069630034501 171.86078886303585,62.3128998195898 171.92343387473375,62.236701281843125 172.15313225064892,62.084304123403854 172.94663573091384,61.85570817855478 173.48955916473642,61.75410990107048 175.07656612526625,61.296917044426664 175.7447795823682,61.01752092008246 175.849187935004,60.915922237414634 175.78654292342253,60.78892381492187 175.68213457078673,60.71272472452256 175.30626450118143,60.5603264610254 174.76334106724244,60.6619253156241 174.65893271460664,60.6619253156241 174.59628770302515,60.611125894487486 174.42923433869146,59.89993270851846 174.4083526681643,59.97613209353585 174.5127610209165,60.280929357453715 174.5127610209165,60.40792808693368 174.4083526681643,60.331728858393035 174.22041763341986,59.6967342132848 173.7819025523495,59.31573650529026 173.5522041763179,58.88393826779793 173.48955916473642,58.55373901693383 173.53132250590716,57.94413903699024 173.19721577723976,57.38533750188071 172.94663573091384,57.05513589634211 172.67517401394434,56.62333301387844 172.50812064972706,55.96292688930407 172.50812064972706,55.83592547351145 172.61252900224645,55.734324285716866 173.57308584684506,55.3787197413767 173.6566125289537,55.353319393718266 173.69837587012444,55.27711833245121 173.67749419959728,55.15011650219094 173.36426914157346,54.413504373369506 173.3433874710463,54.13409909726761 173.4477958236821,53.85469344977173 173.5522041763179,53.16887801256962 174.03248259867541,51.5432324798021 174.53364269144367,49.434954698444926 174.7424593968317,48.90153166586242 175.01392111368477,48.41890965998755 175.30626450118143,48.06329273585288 175.5986078886781,47.75847775046714 176.392111368943,47.14884645311395 177.08120649657212,46.81862876194646 179.83758700697217,45.700965033174725 179.8793503481429,45.59935894492082 179.79582366591785,45.16753252147464 179.96287703013513,45.01512298366288 183.7424593968317,43.59262863334152 184.5359628770966,43.33861077162146 184.68213457078673,43.23700354102766 184.68213457078673,43.160798085751594 183.86774941999465,40.74761104141362 183.65893271460664,40.54439402499702 183.49187935038935,40.49358974020288 183.05336426920258,40.67140468326397 182.88631090486888,40.696806805746746 182.7610208815895,40.56979616281751 182.59396751737222,40.21416595428309 182.55220417643432,39.96014400816057 182.67749419959728,39.83313291995728 183.05336426920258,39.55370825564023 183.01160092803184,39.248880925253616 183.11600928066764,38.89324848090473 183.28306264500134,38.69002967105189 183.3039443155285,38.53761543464498 183.15777262183838,38.156579359885654 182.67749419959728,37.36910261574667 182.36426914157346,36.50541505089495 181.8004640371073,35.56551572556782 181.40371229697485,34.625612195639405" stroke="#4DD2FF" stroke-linecap="round" stroke-linejoin="round" stroke-width="0.5"><title>2025-12-17 15.0km</title><desc>16763843349</desc></polyline><polyline fill="none" points="64.94991922448389,96.21775628079195 64.7318255250575,96.3769407466607 64.64458804519381,96.58918652155262 64.68820678512566,96.7749014061119 64.90630048455205,97.01367745531024 65.25525040389039,97.19939198072825 65.84410339256283,97.06673876433342 65.9313408723101,97.06673876433342 66.08400646201335,97.17286134383176 66.5856219708221,98.68510252564738 66.73828756052535,99.2687717734807 66.91276252025273,99.7463181852363 66.93457189004403,99.85243946888659 66.91276252025273,100.01162129816657 66.82552504027262,100.06468188232975 65.1680129240267,100.7279381013941 63.597738287528045,101.25854163338954 62.594507269677706,101.7360837153683 62.50726979004685,101.78914388248813 62.441841680090874,101.9483243070863 62.441841680090874,102.24015478558431 62.376413570251316,102.4523948898568 63.20516962837428,105.31761620785983 63.684975767391734,106.27268166797876 63.92487883672584,107.12162525430904 64.29563812597189,107.91750688414322 64.84087237471249,108.95214868821495 65.14620355400257,109.69496543693822 65.14620355400257,109.8541401274706 64.99353796441574,109.96025652368553 63.79402261704672,110.25207634871185 63.161550888442434,110.43777967165806 63.0088852988556,110.570424806152 62.94345718889963,110.65001184842549 62.92164781910833,110.8887728019181 62.98707592894789,111.28670714715554 63.619547657552175,113.32942542855744 63.96849757665768,113.93958434452361 64.42649434576742,115.05378320559976 64.66639741521794,115.66393732794677 64.7318255250575,115.92922119988361 64.90630048455205,116.32714640673657 64.97172859450802,116.61895776644815 64.90630048455205,116.7781274355657 64.38287560571916,116.72507089193095 64.49192245560698,116.53937288862653 64.49192245560698,116.35367472813232 63.94668820663355,114.89461228607979 63.51050080766436,114.15181313507492 63.139741518418305,113.85999849518703 62.92164781910833,113.83346987236291 62.09289176086895,114.07222736267431 60.500807754462585,114.73544125104672 59.541195476427674,115.18642555037513 59.083198707550764,115.45170999955735 58.9087237479398,115.50476685081958 57.81825525034219,115.39865313531482 57.01130856212694,115.47823842677462 56.793214862584136,115.42518156902224 56.74959612265229,115.26601091884368 56.4224555734545,114.73544125104672 56.00807754439302,113.72735534873209 56.05169628432486,113.64776942251774 56.575121163157746,113.27636805127258 56.4224555734545,113.32942542855744 55.94264943455346,113.67429806778091 54.74313408706803,114.09875595672929 54.677705977344885,114.20487030070217 55.04846526647452,114.57627010061697 55.419224555720575,115.29253936854366 55.33198707585689,115.58435210383323 55.31017770594917,115.87616445111053 55.419224555720575,116.30061808200844 55.637318255146965,116.64548605259915 56.117124394048005,116.99035348140751 56.400646203546785,117.86578375166573 56.378836833522655,118.02495251660002 56.29159935365897,118.0780087459425 55.7681744749425,118.26370544756355 53.73990306945052,118.84732262980833 53.32552504027262,119.03301868059498 52.453150242217816,119.2982984806149 50.119547657552175,119.88191291208204 49.96688206773251,119.96149657790374 49.901453957892954,120.14719168611919 49.9450726978248,120.30635879661713 50.0541195475962,120.43899796719779 50.14135702745989,120.51858143114077 50.315831986954436,120.51858143114077 51.47172859450802,120.17371954588452 53.020193860982545,119.80232921736024 53.34733441029675,119.77580131265859 53.56542810972314,119.88191291208204 53.65266558958683,120.01455233912566 53.87075928912964,120.59816486615455 54.19789983832743,121.10219261798193 54.63408723741304,122.40204832081508 55.244749596109614,124.60382715331798 55.26655896601733,124.89562750972982 55.17932148615364,125.0282639071811 52.36591276258696,125.61186310381163 50.73021001613233,125.87713495294156 47.54604200320318,126.51378608313098 47.284329563728534,126.48725898952398 45.844911146909,126.00977075738774 45.21243941842113,125.87713495294156 44.51453957997728,126.03629790860577 42.595315024256706,126.67294857707748 40.78513731819112,127.84013667343243 40.30533117929008,128.21151340266806 38.9313408723101,129.13995247680577 37.05573505652137,130.54586702786037 35.02746365102939,131.89871969868545 33.1082390951924,133.25156403236906 32.27948303706944,134.1004032790661 30.687399030663073,135.9307017360552 29.13893376418855,137.62835622899001 28.768174474826083,137.94666498486185 28.593699515331537,137.97319069363584 27.808562197140418,137.86708783909853 27.63408723741304,137.81403639267955 27.54684975766577,137.76098493335303 25.409531502402388,134.89618709194474 25.278675282606855,134.790082750289 25.191437802859582,134.790082750289 24.711631663958542,135.21449980935722 23.970113085582852,135.7450199794548 20.45880452345591,138.45065290441562 18.539579967735335,139.88303330623603 17.950726979062892,140.3339659429621 17.601777059724554,140.57269461094984 14.744749596109614,142.80081632747897 14.504846526542678,142.9599670133175 13.763327948283404,143.19869282589934 13.196284329635091,143.7822437192226 13.043618739815429,143.7822437192226 13.021809369907714,143.72919370209274 13.0,143.67614367214264 13.087237479747273,143.49046846636338 13.50161550892517,142.9864921165281 13.806946688215248,142.72124094127503 14.003231017733924,142.61514038144378 14.570274636498652,142.42946427840798 14.919224555720575,142.243788018357 16.11873990308959,141.23582843776967 17.776252019335516,140.09523701535363 19.390145395766012,138.60980674394523 20.044426494278014,138.15887056571955 21.614701130776666,137.23046963509114 22.87964458798524,136.14290926564718 23.79563812597189,135.53281206528482 24.558966074255295,134.89618709194474 24.973344103316776,134.60440002889663 25.21324717288371,134.55134779393848 25.365912762470543,134.60440002889663 25.627625201945193,134.8166088404978 25.911147011211142,135.16144772188272 27.45961227780208,137.20394383648818 27.808562197140418,137.57530472477083 28.048465266590938,137.70793346117716 28.61550888523925,137.76098493335303 28.811793214874342,137.70793346117716 31.167205169564113,135.16144772188272 32.38852988684084,133.75556273100665 33.02100161544513,133.09240630816203 37.339256865903735,130.06838762402185 38.42972536350135,129.3786933182855 39.716478190617636,128.47678211027232 41.33037156693172,127.23001639728318 42.55169628432486,126.43420479279303 44.90710823913105,125.63839030318195 45.343295638100244,125.55880869549583 45.561389337526634,125.58533590128354 46.04119547654409,125.71797188189521 47.43699515343178,126.2485150033026 47.894991922425106,126.27504212566419 50.20678513729945,125.69144469221646 50.97011308558285,125.55880869549583 51.88610662345309,125.3200636995025 52.84571890137158,125.24048197640514 54.13247172860429,125.00173663410533 54.503231017733924,124.89562750972982 54.76494345709216,124.76299103217025 54.85218093695585,124.68340910715051 54.91760904691182,124.52424517052714 54.93941841670312,124.25897168641677 54.89579967688769,123.96717048356368 54.65589660743717,123.0652370404132 54.176090468419716,121.526636142793 53.478190630092286,119.85538501705742 53.34733441029675,119.80232921736024 53.06381260091439,119.82885711877316 51.0137318255147,120.43899796719779 50.53392568649724,120.54510924601345 50.38126009691041,120.54510924601345 50.7084006461082,120.3328866371885 50.77382875594776,120.22677525581094 50.882875605719164,119.80232921736024 51.10096930526197,119.6166338174371 52.64943457185291,119.05954667505284 53.65266558958683,118.84732262980833 55.899030694621615,118.21064926312829 56.16074313397985,118.13106496237742 56.48788368329406,117.91884001946892 56.46607431338634,117.68008671341522 56.26978998386767,117.17605110321892 56.35702746361494,117.54744587559253 56.378836833522655,117.7596711776132 56.3134087236831,117.73314302609651 56.07350565423258,117.0699381956656 55.9862681744853,116.93729698915558 55.637318255146965,116.69854261545697 55.419224555720575,116.30061808200844 55.37560581578873,116.14144806668628 55.37560581578873,115.23948246586951 54.983037156634964,114.57627010061697 54.48142164782621,113.85999849518703 54.32875605812296,113.14372455223929 54.37237479793839,112.98455224742065 54.48142164782621,112.90496605173394 54.91760904691182,112.69273605555645 55.46284329565242,112.50703464054095 55.55008077528328,112.42744827171555 55.2229402262019,111.79075628214923 55.15751211636234,111.55199630989227 55.11389337631408,111.33976500542485 55.33198707585689,110.27860540442634 55.59369951533154,109.4562031848327 55.9862681744853,107.67874269830645 56.35702746361494,106.32574073827709 56.662358643021435,105.47679407318356 56.94588045228738,105.02578982169507 57.33844911144115,104.57478464323503 57.70920840057079,104.25642748872633 58.38529886910692,103.80542072931712 61.06785137322731,102.82381457839801 62.57269789988641,102.13403465645388 66.2366720517166,100.83405891049188 66.95638126006816,100.43610561202513 67.0,100.32998461052193 66.97819063009229,100.06468188232975" stroke="#4DD2FF" stroke-linecap="round" stroke-linejoin="round" stroke-width="0.5"><title>2025-12-15 10.0km</title><desc>16746108493</desc></polyline><polyline fill="none" points="186.9567134268582,97.5704742752423 186.89178356714547,97.51781736506382 186.84849699400365,97.62313117276062 186.9783567134291,98.43931145586248 187.0,98.70259476569481 186.87014028045814,98.86056459881365 186.0909819639055,99.09751913360378 185.22525050106924,99.49244278534024 183.62364729458932,100.0979909938178 181.3943887775531,100.88783395272912 178.01803607214242,102.20423251879402 177.19559118233155,102.62547837934108 176.3731462926371,103.15203455940355 175.07454909814987,103.67858946639171 174.46853707404807,104.0471771438315 174.38196392788086,104.17881544888951 174.36032064119354,104.33678130993212 174.68496993987355,105.28457407008682 174.8797595190117,106.04807079402963 175.03126252512448,106.52196396613726 175.05290581157897,106.81156484151143 174.68496993987355,108.4701806185185 174.44689378759358,109.23366617537977 174.31703406816814,109.52326344512403 174.33867735473905,109.8391873002256 174.25210420845542,110.1287837648415 174.01402805617545,110.68164867353335 173.75430861720815,111.12920495274011 173.2997995991027,111.70839406648884 173.08336673351005,111.89268118877953 171.63326653302647,112.65615474872175 170.29138276551384,113.10370697072358 168.94949899800122,113.36697255408217 168.12705410819035,113.44595216703601 167.23967935878318,113.65656432819378 166.78517034067772,113.73554383617011 166.4605210419977,113.81452331546461 165.98436873743776,114.02513512033329 163.99318637268152,114.3410524456558 163.38717434869613,114.49901093654626 162.86773547087796,114.68329569777416 162.3266533066053,114.81492757468368 161.52585170336533,114.893906662488 159.55631262518,115.34145428659394 158.77715430851094,115.36778058871278 158.75551102205645,115.63104343554005 159.27494989987463,117.57917861289752 159.42645290575456,118.23732845150516 159.64288577158004,119.60627374601609 159.72945891774725,119.97483447073319 160.24889779556543,120.94888481283851 160.5302605209872,121.8176287405222 160.85490981966723,122.4494403299177 161.1146292585181,123.05492471679463 161.82885771547444,124.52914053447603 162.0020040080417,124.73974197967618 162.47815631260164,124.81871746911202 163.2573146292707,124.84504262596602 164.27454909821972,124.55546572625462 165.07535070145968,124.45016494003357 165.4432865731651,124.50281533948146 167.3262525049504,125.05564376582333 167.52104208420496,125.05564376582333 168.51663326658309,124.92401807730494 170.24809619237203,124.47649014134367 171.46012024045922,124.2922136651614 172.3474949899828,124.05528653827787 173.38637274550274,123.92366024528746 174.5118236473063,123.6604074206989 174.57675350701902,123.60775681758241 174.62004008016083,123.52878088910074 174.64168336673174,123.37082894623745 174.44689378759358,122.370463981395 174.1655310621718,121.58069892202911 173.97074148303363,120.65930273367849 173.47294589178637,119.36934152229514 173.45130260521546,119.26403822895372 173.47294589178637,119.13240904080158 173.6028056112118,119.18506072559103 173.64609218435362,119.29036405705847 174.01402805617545,120.18544031919737 174.38196392788086,121.26479209655372 174.92304609215353,123.21287688877783 174.96633266529534,123.55510620183486 174.9014028054662,123.73938330152305 172.80200400797185,124.1869127517275 171.4168336673174,124.45016494003357 170.09659318625927,124.79239230920211 167.6509018036304,125.26624470198294 167.282965931925,125.31889490423782 167.10981963924132,125.29256980471837 165.27014028059784,124.66076646152942 165.07535070145968,124.63444128251285 163.69018036068883,125.02931863442063 162.45651302603073,125.42419527054881 160.91983967937995,126.4508711744711 160.55190380755812,126.74044555459113 159.5130260521546,127.42489255922555 152.9334669340169,132.08434001715796 152.024448897806,133.00568788248347 151.26693386770785,133.92703185118444 149.77354709419888,135.48014572095417 148.951102204388,136.42780298215803 148.69138276553713,136.63839292481134 148.53987975954078,136.66471665339486 148.258517034119,136.66471665339486 147.80400801601354,136.61206919315737 147.52264529059175,136.5067742345127 147.0897795590572,136.0066224860784 146.41883767547552,135.00631554456777 145.66132264526095,134.03232805665175 145.29338677355554,133.61114292943967 145.2284569137264,133.55849473121634 145.1418837675592,133.55849473121634 143.6052104209084,134.6904281877505 143.12905811611563,135.00631554456777 141.89539078157395,136.03294629089942 139.27655310626142,137.98089902408537 137.52344689378515,139.37604365577863 135.61883767531253,140.7711793535127 134.79639278561808,141.4555822784605 134.6232464929344,141.56087484541058 133.75751502998173,141.87675224071427 133.2380761523964,142.42953658048646 133.12985971942544,142.48218263493618 133.0,142.40321354851767 133.0216432865709,142.27159834076883 133.08657314628363,142.16630611741857 133.82244488981087,141.4555822784605 134.06052104209084,141.29764333280036 134.818036072189,140.98176509782206 135.2076152304653,140.7711793535127 136.91743486968335,139.58663074868673 137.6316633267561,139.0075157534593 138.41082164330874,138.48104624015104 139.92585170350503,137.2438378761144 141.3975951904431,136.24353661536588 143.10741482966114,134.79572402421036 143.51863727450836,134.53248433757108 144.1679358718684,134.00600401012343 145.03366733470466,133.47952241021267 145.1418837675592,133.45319829677464 145.33667334681377,133.47952241021267 145.96432865737006,134.03232805665175 146.80841683375183,135.16425905122014 147.3062124248827,135.9013272348675 147.67414829670452,136.26986039156327 147.9987975951517,136.40147922498 148.66973947908264,136.42780298215803 150.09819639276247,134.97999161560438 150.50941883772612,134.50616035147686 151.0937875751406,133.87438372935867 151.65651302598417,133.21628113304905 152.9983967934968,131.84742136482964 153.75591182359494,131.37358328718983 154.5567134268349,130.71547313628253 157.15390781557653,128.95172812788223 157.9763527055038,128.4515590340452 158.863727454911,127.71446564458893 159.8376753507182,127.13531908896402 161.35270541079808,125.95069633856474 162.28336673346348,125.34522000052675 162.82444889773615,125.21359448700969 164.2312625250779,124.68709163751919 165.0969939880306,124.50281533948146 165.65971943887416,124.52914053447603 166.91503006010316,124.92401807730494 167.6509018036304,125.00299349993293 168.45170340675395,124.89769293001154 169.230861723423,124.68709163751919 169.77194388781209,124.63444128251285 170.1615230460884,124.50281533948146 171.0705410821829,124.2922136651614 173.81923847692087,123.79203387274174 174.36032064119354,123.60775681758241 174.5551102204481,123.44980493193725 174.62004008016083,123.29185293178307 174.64168336673174,123.02859934371372 174.57675350701902,122.73902002924297 174.12224448891357,121.44907113375666 173.9274549097754,120.63297707104357 173.5811623246409,119.57994795613922 173.49458917835727,119.15873488479701 173.5378757514991,119.02710563296569 173.5811623246409,118.97445390994835 173.66773547092453,119.07975734317733 173.99238476948813,120.31706887106702 174.46853707404807,121.68600109541148 174.72825651301537,122.6337183649739 174.8364729458699,123.21287688877783 174.8364729458699,123.42347960654297 174.74989979958627,123.60775681758241 174.5118236473063,123.73938330152305 173.16993987979367,124.08161178736191 167.3262525049504,125.26624470198294 167.0232464930741,125.23991959611885 165.59478957916144,124.76606714606169 165.24849699402694,124.66076646152942 164.98877755505964,124.63444128251285 164.03647294582333,124.9503432213387 162.43486973957624,125.42419527054881 162.19679358717985,125.55582065682393 159.88096192386,127.16164396582462 159.40480961918365,127.45121740107425 158.34428857720923,128.21463643079915 155.22765531064942,130.34693058337143 155.09779559110757,130.42590404005023 154.96793587179855,130.37325507207424 154.98957915825304,130.24163259657507 155.09779559110757,130.1626590731321 155.63887775561307,129.8467646928184 156.98076152300928,128.95172812788223 158.3226452905219,127.89873922572588 159.08016032062005,127.50386707519647 159.29659318644553,127.34591801463102 159.31823647290003,127.1879688394547 159.27494989987463,127.10899420888745 158.863727454911,126.31924632900336 158.49579158320557,125.50317051185993 157.82484969939105,124.2922136651614 157.78156312624924,124.21323798481899 157.78156312624924,124.08161178736191 157.91142284567468,123.84468443128571 158.06292585167103,123.71305801106791 159.33987975947093,123.16022617754061 160.01082164328545,122.76534543737944 160.07575150299817,122.66004378578509 159.98917835671455,122.42311488358246 159.49138276546728,121.47539669777325 159.31823647290003,120.9225591852155 158.8853707414819,119.92218297686486 158.5607214429183,118.57956558172009 158.51743486977648,118.50058783017448 158.3226452905219,118.39528411689389 158.14949899795465,118.3689581805811 157.88977955910377,118.4216100499616 157.91142284567468,118.3689581805811 158.2793587174965,118.10569864288846 158.34428857720923,117.97406875471643 158.40921843680553,117.57917861289752 158.2793587174965,116.9210267856397 158.08456913824193,116.76307005119452 157.39198396797292,116.81572230871825 157.21883767528925,116.76307005119452 157.15390781557653,116.71041778090876 157.0673346692929,116.34185153264843 157.0240480961511,115.94695843171212 157.11062124255113,115.76267473961343 157.30541082157288,115.63104343554005 157.93306613224559,115.4204331834917 158.06292585167103,115.36778058871278 158.12785571150016,115.23614904594433 158.0196392785292,114.73594845803746 157.9979959919583,114.49901093654626 157.84649298596196,113.7618703324988 157.3486973948311,112.57717484941531 157.370340681402,112.44554162021086 157.47855711425655,112.23492828800227 158.2793587174965,111.62941382356803 159.08016032062005,110.81328296879656 159.68617234472185,110.3130722236674 161.0713426854927,109.81286032976641 163.10581162327435,108.83876018699084 164.90220440877602,108.23323628076469 165.87615230469964,107.81200126626936 166.59038076153956,107.41709270016872 168.34348697401583,106.75891016551759 168.9062124248594,106.46930922013416 169.29579158313572,106.04807079402963 169.40400801610667,105.9954159334593 170.03166332654655,105.89010617414897 171.15711422846653,105.41621162723459 171.78476953902282,105.1792639670748 173.04008016036823,104.54740227969887 174.72825651301537,103.83655569025723 176.0484969939571,103.17836233500566 176.63286573137157,102.96774004121835 177.80160320631694,102.20423251879402 179.03527054109145,101.70400200098811 179.74949899804778,101.51970625747344 180.24729458917864,101.33541035796225" stroke="#4DD2FF" stroke-linecap="round" stroke-linejoin="round" stroke-width="0.5"><title>2025-12-07 12.0km</title><desc>16672159472</desc></polyline><polyline fill="none" points="64.68727272725664,156.24796523762052 64.57818181824405,156.40721392417618 64.60000000009313,156.61954532652453 64.70909090910573,156.77879374353506 64.90545454551466,156.9115006694483 65.23272727266885,156.99112478656753 65.97454545449,156.85841790874838 66.17090909089893,156.99112478656753 66.32363636372611,157.68119925793144 66.73818181827664,158.84901265265944 66.95636363641825,159.59216339685372 67.0,159.751409657576 66.97818181815092,159.85757376723632 66.93454545456916,159.91065580275608 66.58545454544947,159.9902788321051 65.51636363647413,160.49455734714866 63.596363636432216,161.15807994417264 62.76727272733115,161.5296517226816 61.32727272727061,162.08700821123784 58.687272727373056,163.0159325478162 57.83636363630649,163.44058236407 57.09454545448534,163.9183124255942 54.73818181816023,165.00647146298434 52.9709090909455,165.90884315948642 52.68727272725664,166.09462510726007 52.64363636367489,166.43964830733603 52.55636363639496,166.6254298059648 52.55636363639496,166.78467096526583 53.32000000006519,167.84627574286424 53.429090909077786,168.05859608245373 53.79999999993015,169.0405749820784 54.01818181830458,169.8633106788766 53.99636363633908,170.04908928052464 53.95272727275733,170.1287086330849 53.145454545505345,170.42064601228049 52.86181818181649,170.6595035791397 52.53454545454588,170.79220211521897 52.4036363636842,170.97797993085987 52.447272727265954,171.13721793353034 52.90545454539824,171.853787516171 53.29818181809969,172.62343372229952 53.29818181809969,172.86228889296763 53.1890909090871,173.02152552905318 51.20363636361435,173.9238642854034 50.63636363635305,174.08310015156167 49.87272727279924,174.26887518286821 48.45454545458779,174.4281107988063 47.32000000006519,174.773120903963 46.709090909105726,174.87927775026765 45.33454545447603,175.2773654670309 44.3745454546297,175.3569829238404 42.82545454555657,175.78160887214472 42.06181818188634,175.8081479667162 40.46909090911504,176.15315590344835 40.01090909098275,176.17969495302532 38.70181818178389,176.3654682104243 38.63636363635305,176.2593120826059 38.5927272727713,175.86122614612395 38.505454545491375,175.48967862088466 38.43999999994412,175.3569829238404 38.46181818190962,175.56929600064177 38.614545454620384,175.96738246643508 38.96363636374008,176.5777803122328 39.53090909100138,178.38242488839023 39.64000000001397,179.25820294032746 39.90181818185374,180.13397749938304 39.967272727400996,180.79744074902555 40.03272727271542,181.0628254875628 40.14181818184443,181.27513304750028 40.51272727281321,181.8059010492725 40.6218181818258,182.09782290339353 40.730909091071226,182.60205064644106 40.9709090909455,183.29204462909547 41.27636363648344,183.90242211417353 41.62545454548672,184.5127979027311 42.03999999992084,185.49470321986882 42.192727272748016,185.70700649493665 42.30181818176061,185.8396959376987 42.47636363643687,185.91930956482247 42.78181818174198,185.94584743407904 43.807272727251984,185.94584743407904 45.40000000002328,185.60085488305776 47.4072727272287,186.23776378469483 47.62545454548672,186.23776378469483 52.18545454542618,185.20278588155634 52.709090909105726,185.09663402584556 53.538181818206795,185.04355807884713 54.52000000013504,184.85779216304945 54.86909090913832,184.7516401406756 54.956363636418246,184.69856411029468 55.043636363581754,184.56587397799012 55.043636363581754,184.2739554048312 54.912727272720076,183.84934587847965 54.47636363632046,182.09782290339353 53.843636363744736,180.37282450018392 53.82181818189565,180.16051606783003 53.90909090905916,180.08090035281202 54.04000000003725,180.1870546330756 54.14909090916626,180.47897863938124 54.629090909147635,181.965131199584 55.10909090912901,183.63704080741445 55.28363636357244,184.45972181444813 55.26181818183977,184.72510212707857 55.19636363640893,184.83125416230178 54.912727272720076,184.93740614618582 53.6472727273358,185.2293238374259 50.5927272727713,185.7600822816603 47.800000000046566,186.34391508872795 47.45090909092687,186.37045290674723 46.839999999967404,186.23776378469483 45.33454545447603,185.68046859680908 42.71636363642756,186.50314194850216 39.290909090894274,188.8119184418465 37.19636363629252,190.35108928573027 33.13818181829993,193.19056581068435 32.22181818180252,194.11935857457865 31.676363636390306,194.80931637062167 31.174545454559848,195.31351492772228 29.516363636474125,197.14454205824586 28.905454545398243,197.72834460038575 28.730909090838395,197.80795391758147 28.338181818136945,197.80795391758147 27.792727272724733,197.70180815480126 27.64000000001397,197.62219879901386 26.94181818177458,196.7730305416335 25.50181818183046,194.80931637062167 25.370909090852365,194.67663234744396 25.240000000107102,194.67663234744396 23.756363636348397,195.8442490004527 22.86181818181649,196.45459159856546 22.207272727275267,197.03839597475599 20.069090909091756,198.71019083051942 19.479999999981374,199.0816990702442 18.105454545468092,200.09007541034953 17.232727272668853,200.80655052274233 16.42545454541687,201.390343330655 15.007272727321833,202.55792429110443 14.636363636353053,202.79674690481625 13.872727272682823,203.11517665236897 13.632727272692136,203.27439135301393 13.218181818258017,203.69896332382632 13.130909090861678,203.75203476239403 13.0,203.69896332382632 13.0,203.56628467106202 13.087272727279924,203.4070701819728 13.76363636367023,202.69060355296824 14.199999999953434,202.47831669561856 14.636363636353053,202.31910141784465 15.31272727274336,201.921062718553 15.749090909026563,201.60263123971527 16.51272727281321,200.91269478507456 17.210909090936184,200.48811742803082 18.149090909049846,199.66549646304338 18.781818181741983,199.26745295451838 19.872727272682823,198.4448274174065 20.134545454522595,198.2856092156144 20.680000000051223,197.83449035034573 21.31272727274336,197.46298000084062 23.23272727278527,195.95039566115884 24.149090909049846,195.28697819044464 24.71636363642756,194.83585316569952 25.218181818258017,194.5174114138208 25.39272727270145,194.4908745802677 25.50181818183046,194.54394824407063 27.007272727321833,196.56073796415876 27.50909090915229,197.19761508073134 27.814545454573818,197.51605294640467 28.07636363641359,197.59566234065278 28.6218181818258,197.62219879901386 28.86181818181649,197.59566234065278 29.974545454606414,196.3484451816039 31.196363636292517,195.07468417657947 32.48363636364229,193.6416942151991 33.09454545448534,193.0313437995792 34.403636363567784,192.1290835562686 35.036363636376336,191.62487768814026 36.54181818186771,190.5899251739902 37.5672727272613,189.8468793353968 39.77090909099206,188.36078011567588 41.210909090936184,187.2727368100459 42.978181818150915,186.15815027304052 43.043636363581754,186.0785367325152 43.0,185.99892316306068 42.4327272727387,185.94584743407904 42.2145454545971,185.8396959376987 41.99636363633908,185.49470321986882 41.77818181819748,185.0170201004803 41.429090909077786,184.5127979027311 41.25454545451794,184.1412650160637 41.05818181822542,183.6105026590667 40.68727272725664,182.86743320406822 40.33818181825336,181.99166954679822 39.8363636364229,180.293208862131 39.552727272734046,179.0724321302987 39.39999999990687,179.0724321302987 38.63636363635305,179.39089627984504 38.33090909093153,179.33781895365973 38.33090909093153,179.2847416146251 38.570909090922214,179.12550952058518 38.63636363635305,178.62127379441517 38.63636363635305,178.249730939453 38.570909090922214,177.95780396951886 38.46181818190962,177.8251097639586 38.28727272723336,177.7454932021792 37.93818181811366,177.71895434177713 37.93818181811366,177.6924154781882 38.02545454551,177.63933774150792 38.26545454550069,177.53318222946837 38.134545454522595,176.7370142537693 38.33090909093153,176.49816329809255 38.3745454546297,176.33892918328638 37.98181818192825,174.215796618475 37.98181818192825,174.00348223291803 38.02545454551,173.844246308945 38.30909090908244,173.57885284582153 38.54909090907313,173.44615599390818 39.64000000001397,173.12768322223565 40.51272727281321,172.7561310713645 41.472727272775955,172.5438152744464 42.06181818188634,172.19880166636722 42.76000000000931,172.01302488365036 42.89090909098741,171.90686665140674 43.0,171.58839164707751 43.043636363581754,171.53531243477482 43.91636363638099,171.13721793353034 46.68727272725664,170.31448701015324 48.10545454546809,169.83677086584794 50.8109090909129,169.0405749820784 51.64000000001397,168.69555586914066 52.098181818262674,168.56285606596794 53.12363636365626,168.08513611042872 55.15272727271076,167.3950943396194 55.28363636357244,167.28893387468997 55.327272727387026,167.1827733584214 55.21818181825802,166.70505040003627 55.23999999999069,166.46618853109248 55.327272727387026,166.33348738049972 55.741818181821145,166.12116537264956 55.82909090910107,165.9884640135133 56.09090909094084,165.2453349201096 56.09090909094084,165.05955225368962 56.00363636366092,164.95339065950247" stroke="#4DD2FF" stroke-linecap="round" stroke-linejoin="round" stroke-width="0.5"><title>2025-12-04 10.0km</title><desc>16645549870</desc></polyline><polyline fill="none" points="187.0,155.6662913596374 186.81593523651827,155.91819046945602 186.14870046870783,156.36601043237897 186.07967618235853,156.53394269511045 186.1717085641576,156.89779551324318 186.90796761831734,158.63308570197842 186.97699190466665,158.85699316603132 186.95398380921688,159.08090041347896 186.81593523651827,159.19285395601764 185.29740093741566,159.8365857750032 185.11333617393393,159.97652723800275 185.04431188758463,160.08848034741823 185.11333617393393,160.48031580419047 185.09032807836775,160.760197867261 185.25138474651612,161.23599659802858 185.43544951011427,161.93569883750752 185.5504899872467,162.5234470845462 185.57349808269646,162.88729048975802 185.45845760544762,163.02723010872432 184.58414997870568,163.25113332310866 183.8939071155619,163.47503632113512 183.3187047294341,163.8108904119581 183.22667234763503,163.97881727464846 183.29569663410075,164.28668287332403 183.6638261610642,165.15430190353072 184.03195568814408,166.27380552543036 184.05496378359385,166.4977056002681 184.03195568814408,166.69361798804312 183.77886663831305,166.9175176569115 182.78951853432227,167.2253793480777 181.68512995319907,167.75713948681368 180.58074137195945,168.12097466742853 179.08521516842302,168.792668883616 178.1188751597656,169.12851526096347 177.7737537282519,169.32442542276112 177.68172134645283,169.40838686999632 177.61269706021994,169.60429679499066 177.52066467842087,169.99611614772584 177.4976565828547,170.22001262304548 177.8427780146012,171.143583295212 177.86578610993456,171.33949175199086 177.7047294419026,171.42345246853074 176.92245419695973,171.61936068856448 176.48530038364697,171.84325559424178 176.48530038364697,172.03916345912148 176.76139752881136,172.8787667167635 176.738389433478,172.9627268751501 175.88708990206942,173.1866204817925 175.33489561150782,173.41051387191692 173.8163613122888,173.91427320841467 172.32083510875236,174.1381658949831 170.38815509167034,174.55796409885806 170.02002556459047,174.6699101580307 168.52449936093763,174.97776154158055 164.7971878995886,175.92929959423782 162.88751597795635,176.23714930348797 161.0468683426734,176.57298488312517 160.60971452924423,176.74090249024448 160.4946740521118,176.936806211379 160.4946740521118,177.07673733933188 160.60971452924423,177.69243329744495 160.60971452924423,177.46854404755868 160.51768214756157,176.99277867276396 160.51768214756157,177.38458552310476 160.5636983383447,177.66444715310354 160.86280357919168,178.25215547521657 161.09288453345653,178.81187630000932 161.36898167873733,180.3790874118131 161.599062633235,180.88283158787817 161.92117596941534,181.4705317417538 162.51938645087648,183.03772485995432 163.02556455053855,184.01721517274564 163.57775884110015,185.19259807936032 163.73881550924852,185.44446506889653 163.85385598638095,185.528420671224 164.42905837250873,185.61237624307978 165.32637409458403,185.5843910558615 166.47677886660676,185.2765537729574 167.2130379207665,185.19259807936032 167.9953131658258,185.3045389973413 169.39880698767956,185.69633178446384 169.81295270554256,185.72431695823616 171.19343843206298,185.44446506889653 174.04644226678647,184.74483386603242 175.33489561150782,184.6049073718168 177.01448657852598,184.26908344074036 177.17554324679077,184.15714202210074 177.19855134224053,184.07318592259253 177.2215594375739,183.5974341174442 176.8764380060602,182.33808638565824 176.55432466987986,181.0507460697845 176.00213037931826,179.6234690928395 175.97912228375208,179.45555357597186 176.0251384746516,179.3715957718232 176.1861951428,179.51152542844648 176.2322113335831,179.6234690928395 176.92245419695973,181.8063597313885 177.4976565828547,184.04520054940076 177.45164039207157,184.26908344074036 177.38261610572226,184.35303946914792 177.03749467409216,184.52095143470797 170.66425223695114,185.72431695823616 169.5138474649284,185.97618336942105 169.1687260332983,185.97618336942105 168.89262888790108,185.94819822612044 168.2714103111066,185.75230212853057 167.37409458879847,185.41647986137832 166.82190029835328,185.33252421852376 165.2113336174516,185.86424277604965 164.36003408615943,186.06013877893565 164.03792074986268,186.2000643938518 163.53174265031703,186.50790044905443 162.1512569237966,187.51536104131083 158.44695355789736,190.145931924897 157.18150830850936,190.98546953391633 154.25948018755298,193.08430024125846 153.56923732429277,193.75592205036082 152.76395398378372,194.73536703056016 152.11972731153946,195.37900004789117 151.26842778013088,196.33045427514298 149.6578610993456,198.03746529728232 149.47379633574747,198.12141633441206 149.3127396677155,198.12141633441206 148.46144013642333,197.98149792227196 148.2773753728252,197.8975468344288 146.06859821057878,194.95923958720232 145.88453344698064,194.7633511119202 145.74648487428203,194.7913351899915 145.30933106096927,195.18311192760302 144.0438858116977,196.0785991247103 141.72006817220245,197.86956313175324 141.07584149984177,198.3173019694077 140.2935662548989,198.98890860303072 139.37324243714102,199.63252979934623 138.91308052826207,200.02429834750365 138.15381337876897,200.55598317434487 134.7256071580341,203.24237205703685 134.42650191741996,203.41027032764396 133.71325095870998,203.6621175052569 133.23008095438126,204.2217769196577 133.09203238179907,204.33370864034805 133.0,204.30572571522498 133.0,204.10984514503798 133.7592671496095,203.35430425095547 134.49552620376926,203.018507506873 134.8176395399496,202.79464274042402 135.96804431197233,201.8991815106274 136.70430336601567,201.39548304742493 137.9237324243877,200.38808283454273 138.77503195567988,199.7724472140544 139.8103962505702,198.87697429931723 142.04218150826637,197.47779093861755 143.4226672347868,196.3024703830306 144.1819343843963,195.7987597475585 145.24030677461997,194.93125552947458 145.72347677894868,194.65141476597637 145.9765658287797,194.65141476597637 146.16063059226144,194.73536703056016 148.23135918192565,197.47779093861755 148.5534725182224,197.78561200325203 148.8295696633868,197.8975468344288 149.3817639540648,197.8975468344288 149.56582871754654,197.86956313175324 150.80826587136835,196.66626071619976 151.3144439710304,196.0785991247103 151.77460587979294,195.65883993220632 152.05070302519016,195.32303203034098 152.7869620793499,194.56746247094998 153.93736685125623,193.25220587616786 154.4435449510347,192.80445724599122 160.31060928851366,188.66274137757136 163.4857264594175,186.36797502014088 164.3140178952599,185.920213079502 166.01661695784424,185.24856854521204 166.36173838947434,184.99670134256303 166.6608436302049,184.6049073718168 166.68385172565468,184.32505412976025 166.4537707712734,183.56944868674327 166.26970600779168,183.34556511900155 166.26970600779168,183.1496668197069 166.06263314874377,182.25412962668634 165.99360886239447,181.33060326900159 165.85556028981227,181.0507460697845 165.6945036216639,180.96678884410358 165.3493821900338,180.99477458934416 163.43971026840154,181.8903166527307 162.79548359604087,182.0862160174147 162.10524073289707,182.17017283722817 161.89816787396558,182.03024478725274 161.6680869195843,181.63844579740544 161.27694929705467,180.74290276007378 161.13890072423965,180.2951299425331 160.93182786542457,179.34360983040824 160.8397954836255,178.5040300138644 160.9088197699748,178.30812761864217 161.16190881980583,178.0562528668961 162.2202812101459,177.5804886996193 161.64507882413454,177.83236396880238 161.53003834700212,178.00028066271625 161.50703025143594,178.1961833183741 161.29995739250444,178.1402111479547 160.9778440563241,177.94430844493036 160.81678738817573,177.7763917104312 160.65573072014377,177.52451638037746 160.5636983383447,177.21666838267993 160.4946740521118,176.68492996810528 160.10353642958216,175.48151746827352 159.82743928418495,174.50199104895 159.55134213890415,173.69038030527008 159.2982530890731,173.1866204817925 159.20622070739046,172.8787667167635 159.1602045163745,172.48695224206313 159.36727737542242,171.7872818880569 159.55134213890415,171.56338692830468 160.03451214323286,171.08760941994842 160.9778440563241,170.30397374546737 161.2539412016049,170.13605147022463 163.1406050277874,169.43637401224987 163.80783979559783,169.07254089861817 164.82019599492196,168.70870721319807 165.8325521943625,168.14896196541667 166.98295696626883,167.75713948681368 169.1687260332983,166.9175176569115 170.89433319144882,166.16185540679726 171.21644652751274,165.88197987344756 171.42351938656066,165.5461287869839 171.60758415004238,165.43417831642728 171.7226246271748,165.4061906903953 171.745632722741,165.37820306097274 171.40051129099447,164.6785112250218 171.07839795493055,163.83887823086116 171.05538985936437,163.64296342739544 171.1014060502639,163.55899988942838 171.26246271841228,163.39107272222464 174.092458457686,162.0196629641432 175.72603323392104,161.29197285501868 176.00213037931826,161.09605589641433 176.11717085645068,160.95611511010793 176.50830847898033,160.87215059777373 176.99147848330904,160.59226866997778" stroke="#4DD2FF" stroke-linecap="round" stroke-linejoin="round" stroke-width="0.5"><title>2025-11-30 10.0km</title><desc>16605669845</desc></polyline><polyline fill="none" points="63.17882444849238,214.3272528573434 61.75060420006048,214.7857563385769 60.46123869798612,215.29252211867424 59.05285484192427,215.8958130361716 57.406434277887456,216.52323365592747 57.30725231603719,216.57149669877253 57.247743139159866,216.6921542549826 57.2675795314135,217.36783522153564 57.46594345476478,217.9952512136515 57.981689655571245,219.29833966428123 58.2395627561491,220.1670605714462 58.59661781822797,221.20469447725918 58.89416370319668,221.7355748546688 59.21154598076828,222.55602356958843 59.82647414319217,223.93147414294071 60.005001674289815,224.5106083908613 59.98516528191976,224.67952222992608 59.84631053567864,224.77604435947433 58.6957997798454,225.06561046814022 57.78332573233638,225.2586543072539 57.406434277887456,225.42756751325214 56.43445105315186,225.78952390198538 56.01788681407925,225.98256704096275 55.36328586691525,226.39278309127258 54.88721245073248,226.60995595312852 54.708684919634834,226.8271285785595 54.58966656564735,226.89951940126775 53.59784694877453,227.26147312068497 52.78455486276653,227.50277523571276 51.7133896764135,227.9853785905725 50.70173366717063,228.46798077861604 49.194167849374935,229.33666177662963 47.82545677793678,230.06055972042668 46.95265551505145,230.63967618522292 46.51625488360878,231.02575289501692 45.98067229043227,231.41182885812304 45.08803463506047,231.82203375065 43.00521343946457,232.6907001522486 42.925867870100774,232.78721840791695 42.925867870100774,232.8837366169755 43.26308653992601,233.51110383820196 43.481286855763756,233.6800100608816 43.77883274073247,233.6558806092653 43.520959640387446,233.6800100608816 43.30275932466611,233.6076216971851 43.67965077899862,233.6076216971851 43.50112324790098,233.6800100608816 43.441614070907235,233.6558806092653 43.75899634847883,233.6317511546804 43.58046881738119,233.75239839823917 43.401941286283545,234.0902102922846 43.520959640387446,234.06608089026122 43.481286855763756,234.13846908771666 42.94570426247083,234.59692706153146 42.1125757843256,235.07951326492184 41.02157420560252,235.85164876363706 40.66451914352365,236.06881133450952 39.57351756480057,236.5996521798661 39.41482642607298,236.93745925564144 39.39499003381934,237.20287869979802 39.45449921081308,237.66132963584096 39.9107362346258,239.22970645480382 40.14877294271719,240.3878845039435 40.74386471277103,242.052753677679 40.803373889881186,242.5353218571836 40.96206502849236,243.13853044116695 41.259610913693905,243.98301939676458 41.299283698317595,244.46558291034307 41.37862926768139,244.99640142802673 41.47781122941524,245.45483446659637 41.616665975772776,246.29931362396746 41.75552072213031,246.66123216932465 42.072902999585494,247.2161726646591 42.50930363102816,248.30192134619574 43.520959640387446,250.4492735734093 43.67965077899862,250.69054766120098 43.937523879576474,250.811184595761 44.47310647263657,250.85943934918032 45.06819824280683,250.7870572147076 46.02034507517237,250.52165583029273 46.49641849112231,250.49752841425652 48.04365709365811,250.88356672156078 48.698258040938526,250.9800761816732 49.80909601179883,250.83531197396223 50.642224490176886,250.56991065376496 51.1778070833534,250.4492735734093 52.82422764739022,250.1597442831844 53.97473840310704,250.03910695493687 54.98639441234991,249.79783207987202 55.16492194344755,249.6771945330256 55.28394029755145,249.50830184492224 55.32361308217514,249.3635365699447 55.32361308217514,249.1946436165017 54.72852131200489,247.04727789461322 54.27228428819217,245.67198659111455 54.27228428819217,245.55134655107395 54.331793465302326,245.52721853433468 54.39130264229607,245.55134655107395 54.43097542691976,245.64785858891264 54.708684919634834,246.44408112087694 55.36328586691525,248.63970862059796 55.44263143616263,249.04987811410683 55.462467828649096,249.3635365699447 55.42279504390899,249.53242938048788 55.28394029755145,249.7495770698588 55.08557637408376,249.89434206485748 54.84753966610879,249.99085200329137 53.736701695015654,250.1597442831844 50.523206136072986,250.83531197396223 48.718094433192164,251.14896762471471 48.46022133284714,251.17309496211237 48.222184624755755,251.12484028450854 47.5080745004816,250.9559488210507 46.65510962996632,250.6422928669781 46.45674570649862,250.6181654654938 45.623617228353396,250.83531197396223 44.71114318072796,251.12484028450854 44.09621501818765,251.29373160511022 43.69948717136867,251.51087737879425 42.48946723865811,252.403585300548 41.9935574302217,252.69311133683368 38.52218877081759,255.20231939807127 35.38803878123872,257.3978505839332 34.63425587234087,258.1940262578282 34.41605555661954,258.48354389761516 33.34489037026651,259.617483944603 32.49192549975123,260.6307866231218 31.757978983107023,261.3786972063681 31.539778667502105,261.5475798535772 31.3810875286581,261.5958320121863 31.14305082068313,261.5958320121863 30.547959050512873,261.5234537698998 30.36943151941523,261.4269494058535 28.54448342428077,258.99019875699014 28.32628310844302,258.7730611175939 28.207264754455537,258.7489346985967 26.6401897596661,260.0035046189587 24.339168248232454,261.6923362946691 23.863094832166098,262.07835295768746 23.10931192326825,262.65737655315024 22.772093253443018,262.8745099685475 22.296019837260246,263.28465022012824 21.542236928478815,263.79129289713455 20.709108450100757,264.5391916424269 20.054507503053173,264.9734541444195 18.903996747219935,265.91435299227305 18.546941685141064,266.1073573361937 17.812995168729685,266.3968635022611 17.41626732191071,266.80699651894975 17.198067006189376,266.9758745750878 16.99970308272168,267.0 16.841011944110505,266.92762371653225 16.821175551624037,266.80699651894975 17.198067006189376,266.61399285128573 17.753485991735943,266.1073573361937 19.657779656234197,265.0217054753157 20.37188978039194,264.3944372651895 21.026490727672353,264.0084250794753 22.097655913908966,263.11576904212416 22.553892937721685,262.80213218966674 23.44653059297707,262.05422693816945 24.89458723377902,261.08918376448855 25.8665704583982,260.3653983233962 26.14427995122969,260.1000096709322 26.71953532891348,259.73811548555386 27.512991022551432,259.03845153375005 28.068410007981583,258.70068185191485 28.34611950069666,258.62830256007146 28.504810639540665,258.70068185191485 28.762683739885688,259.0625779177353 29.456957471906208,259.9311257993686 30.171067595947534,260.9444268861407 30.488449873402715,261.25806665656273 30.627304619876668,261.35457110227435 30.82566854322795,261.40282330755144 31.321578351780772,261.4269494058535 31.519942275015637,261.3786972063681 32.17454322229605,260.7755437287851 33.28538119327277,259.47272599927965 35.03098371915985,257.59086316007597 35.54672991996631,257.1083313699346 35.983130551408976,256.77055842296977 39.196626110351644,254.5750203390926 40.06942737335339,253.89946530229645 41.37862926768139,253.05501829185232 42.05306660721544,252.52422120001575 42.48946723865811,252.2829493281024 44.334251726279035,250.9559488210507 44.373924510902725,250.88356672156078 44.334251726279035,250.85943934918032 43.87801470246632,250.83531197396223 43.73915995599236,250.7870572147076 43.5407960327575,250.59403806104092 43.282922932179645,250.1356168233906 42.86635869322345,249.53242938048788 42.60848559276201,248.7120915336709 42.13241217669565,247.7952393629821 41.75552072213031,246.87838298169663 41.51748401403893,246.05803422919416 41.43813844479155,245.45483446659637 41.219938129070215,244.537967336757 41.20010173658375,244.22430129938584 41.02157420560252,243.45219818454643 40.72402832051739,242.46293670470186 40.4463188276859,241.25651363126235 40.30746408144478,240.82219954003813 39.970245411619544,240.17072663153522 39.85122705763206,239.73641017808404 39.7917178805219,239.37447907836759 39.93057262687944,238.91603207674052 40.0297545887297,238.79538795392727 40.42648243543226,238.40932627103757 41.51748401403893,237.5165557697619 42.46963084640447,237.08223354163056 42.98537704721093,236.8892011369462 43.957360271713696,236.40661930853094 44.81032514234539,236.06881133450952 45.56410805135965,235.70687358509167 46.25838178314734,235.51383985043503 47.131183046032675,235.17603036561923 48.36103937111329,234.64518573433452 48.48005772510078,234.5486683770141 48.49989411747083,234.4038922534819 48.222184624755755,233.58349223685218 48.14283905539196,233.05264337047993 48.182511840132065,232.54592268115084 48.30153019411955,232.35288588973344 49.53138651920017,231.70138534042053 49.928114366019145,231.55660715178237 51.69355328415986,230.76032523729373 52.20929948484991,230.615546366098 52.38782701594755,230.49489722658473 52.38782701594755,230.39837786242424 52.149790307856165,230.1329493703961 51.753062461153604,229.3607917503541 51.27698904497083,228.17841960578517 51.03895233687945,227.406254424699 50.58271531306673,226.58582564677636 50.24549664335791,225.8860454948299 49.928114366019145,224.89669695579505 49.928114366019145,224.77604435947433 49.967787150642835,224.70365276667872 50.08680550463032,224.55886950225977 50.1661510738777,224.3416944087512 50.324842212721705,224.19691088184481 50.88026119826827,223.93147414294071 51.792735245777294,223.61777572377468 52.22913587721996,223.40059960627696 52.32831783895381,223.3040768115461 52.32831783895381,223.13516180838633 52.149790307856165,222.72493906284217 52.110117523232475,222.6042851536913 51.93158999225125,222.29058464852278 51.911753599881195,222.07340708689298 51.33649822208099,220.9633847480436 51.11829790624324,220.60141960703186 51.03895233687945,220.33597808651393 51.19764347560704,220.1670605714462 52.070444738608785,219.6844383120333 52.90357321675401,219.15355247879052 54.669012135011144,217.92285716136394 54.72852131200489,217.82633171751513 54.74835770437494,217.7539376039058 54.58966656564735,217.0299950241897 54.58966656564735,216.88520619309566 54.64917574264109,216.7645487536356 54.90704884310253,216.52323365592747 55.2641039051814,216.35431291389978 56.17657795280684,216.16126046217687 56.4939602301456,216.04060258505342 57.56512541661505,215.19599540262425 58.97350927267689,214.35138464576448 60.18352920527104,213.72395719823544 61.21502160700038,213.07239583798219 61.39354913798161,213.0 61.5522402767092,213.0 61.73076780780684,213.19305550960416" stroke="#4DD2FF" stroke-linecap="round" stroke-linejoin="round" stroke-width="0.5"><title>2025-11-26 10.0km</title><desc>16570876727</desc></polyline><polyline fill="none" points="183.00930331181735,213.0988236451958 183.29361950454768,213.5929411540128 183.6997854942456,214.40823243111663 184.0450265853433,215.32234302486177 184.430884275469,216.55762111378135 184.57304237177595,216.8540867439151 184.97920836147387,217.57054357416928 185.06044155929703,217.8670077345305 185.04013325984124,218.03994496287487 184.95890006201807,218.06465026928345 183.02961161127314,218.28699789228267 182.8062203170266,218.36111371283187 182.72498711908702,218.43522950648912 182.7452954185428,218.58346101321513 182.8062203170266,218.70698718664062 183.2326946061803,219.2505014626804 183.45608590042684,219.62107854927308 183.6388605957618,220.04106510158454 183.82163529098034,220.60928082786268 184.22780128067825,221.32572449134022 184.32934277807362,221.72100267875066 184.30903447850142,221.8939366452978 184.10595148371067,222.06687046546722 184.0044099864317,222.33862331577984 183.98410168697592,222.43744244442496 184.06533488479909,222.6844900570868 183.9637933874037,222.78330901851587 183.6185522961896,222.95624208603112 183.51701079891063,223.079765616043 183.51701079891063,223.2526984326687 183.84194359043613,223.69738214630343 183.84194359043613,223.82090522826184 183.74040209315717,223.94442823564168 183.51701079891063,224.11736032050976 182.4000543273287,224.85849616950145 182.27820453047752,225.0067230166751 182.29851283004973,225.1796542025695 183.00930331181735,226.88425377526437 183.07022821018472,227.15600021922728 183.00930331181735,227.3042253999738 182.7452954185428,227.45245047313801 181.08001486118883,227.99594148837787 180.3692243793048,228.3665027154202 179.536584100686,228.71235925446672 178.48055252758786,229.0335112308967 177.58698735036887,229.40407057662378 177.20112966024317,229.60170195285173 176.14509808726143,230.26870643667644 175.25153291015886,230.63926354252908 174.01272664184216,231.23215351440012 173.4440942563815,231.45448681029666 170.1744580399245,232.9367026019172 169.91045014664996,233.0108131092711 169.3824343602173,233.0849235898204 169.09811816748697,233.40606869482144 168.85441857366823,233.5789927730657 167.02667162031867,234.44361096952343 166.05187324539293,234.8388637839671 165.15830806817394,235.110599650332 161.86836355226114,236.3951643096807 160.79202367982361,236.86452245965484 160.4264742891537,237.11155263197725 160.34524109121412,237.25977059196157 160.3655493906699,237.6550179599435 160.52801578654908,238.2972933024721 160.50770748697687,238.5690245705482 160.34524109121412,238.6925386638759 160.040616599028,238.81605268255225 159.00489332538564,239.11248602287378 158.8424269296229,239.2112970406888 158.7815020311391,239.3348107458587 158.8018103307113,239.55713522709266 159.12674312235322,240.64405143157637 159.49229251302313,241.70625941030448 159.6344506093301,242.39792675428907 159.89845850260463,243.28720990000875 159.9390751015162,243.58363675535657 160.0203082995722,243.75655222244677 160.10154149739537,244.8434460945282 160.28431619273033,245.683314673297 160.48739918752108,246.20205530665407 160.95449007570278,246.96781288311468 161.36065606516786,248.17819803967723 162.33545444032643,250.25312734689214 162.5182291356614,250.50014133755758 162.66038723196834,250.57424547658593 163.16809471906163,250.62364822093514 163.91950179974083,250.57424547658593 164.85368357598782,250.30253016887582 165.38169936242048,250.20372451293224 165.86909855005797,250.30253016887582 167.3109878131654,250.7718563825183 167.51407080795616,250.8212590791809 167.8390035997145,250.79655773229024 168.1233197923284,250.7718563825183 169.09811816748697,250.47543995187152 170.621240628534,250.17902309144847 171.12894811551087,250.00611305766506 173.3628610583255,249.66029255131434 173.93149344378617,249.561486584862 174.09395983966533,249.5120835837588 174.2564262355445,249.38857602870848 174.33765943336766,249.24036686407635 174.37827603251208,248.8451418998302 174.2564262355445,248.25230302054842 173.99241834238637,247.46184850666032 173.66748555062804,246.27616100397427 173.34255275898613,245.51040083626867 173.34255275898613,245.28808283082617 173.3628610583255,245.23867879678437 173.4237859568093,245.21397677531058 173.58625235268846,245.3868908630975 174.47981752990745,248.7216339417937 174.54074242827483,249.21566532623547 174.37827603251208,249.48738207873248 174.2564262355445,249.61088957404718 173.99241834238637,249.6849940354441 171.63665560248774,250.10491880917107 170.6009323290782,250.32723157535656 169.54490075598005,250.50014133755758 168.4888691828819,250.7718563825183 167.79838700057007,250.89536310172116 167.41252931056079,250.92006443663558 166.90482182358392,250.8212590791809 165.86909855005797,250.47543995187152 165.38169936242048,250.37663437954325 164.34597608889453,250.64834958869324 162.96501172427088,251.0929736972612 161.84805525280535,251.8587129504158 160.14215809630696,252.97026482631918 159.45167591399513,253.48898696656397 158.96427672647405,253.78539902705234 157.88793685403652,254.60052997719322 154.7807670334587,256.74949599200045 153.9887433537515,257.34231022726453 153.25764457241166,258.08332560367126 152.50623749161605,258.9231397829717 151.5111308171181,259.8864517988841 150.33324944716878,261.22026094203466 149.96770005638245,261.5166617919458 149.76461706170812,261.5660618918191 149.60215066582896,261.54136184342497 149.15536807733588,261.44256161976955 148.9929016813403,261.3684614207159 148.5867356917588,260.75095871731173 148.2618029001169,260.4051563886751 147.28700452507474,259.0466415771807 146.9620717333164,258.72553675707604 146.75898873852566,258.7502371457522 144.2001430039527,260.602757790999 143.7533604153432,260.9979600224615 142.9004118371522,261.59076193734654 142.16931305581238,262.1588621591218 141.11328148283064,262.89986007595144 140.13848310767207,263.6408553067886 139.04183493577875,264.35714814357925 137.01100498763844,266.0120219964738 136.66576389654074,266.2343174635171 135.9955900136847,266.4813121434854 135.36603272974025,267.0 135.08171653700992,267.0 134.95986674015876,266.9506012132042 134.93955844070297,266.92590181538253 135.00048333907034,266.85180360382947 135.44726592767984,266.80240478123596 135.77219871932175,266.58010993192147 136.21898130793124,266.3825143072463 137.5999456726713,265.49333163321717 138.24981125607155,264.92524067765044 140.32125780312344,263.418557019555 141.33667277707718,262.50466152127774 143.04256993345916,261.3931614900648 143.85490191273857,260.80035900224175 144.44384259765502,260.3063556158886 145.4186409728136,259.6147488693241 146.04819825664163,259.071341927076 146.67775554058608,258.6761359707016 146.79960533743724,258.65143557311967 146.88083853549324,258.6761359707016 147.02299663168378,258.7996379141696 147.8556369105354,259.8123510357109 148.42426929587964,260.57805762610224 149.11475147830788,261.34376134838385 149.25690957461484,261.44256161976955 149.35845107212663,261.4672616801399 149.8255419601919,261.4919617375417 150.06924155389424,261.44256161976955 152.7702453848906,258.5773343622859 153.4607275672024,257.7869197754626 154.04966825211886,257.1694062529132 156.03988160123117,255.76146844608593 158.0097866508877,254.42762368364492 162.0714465470519,251.5128955784603 162.8634702267591,250.9447657685232 163.269636216457,250.7224536739377 163.229019617429,250.67305095339543 162.68069553154055,250.57424547658593 162.4573042371776,250.47543995187152 161.6449722580146,249.09215759208018 161.38096436462365,248.35110961980536 160.93418177613057,247.36304147740884 160.69048218231183,246.7454964628705 160.4061659895815,245.80682446730498 160.24369959381875,245.263380815275 160.14215809630696,244.5717231683666 160.0,244.0282762323477 159.6750672083581,243.28720990000875 159.65475890878588,242.9413780252944 159.69537550781388,242.76846186853072 159.9390751015162,242.6202479034837 160.77171538036782,242.42262911613216 162.8634702267591,242.0273909682437 163.51333581027575,241.8544740382349 164.8739918754436,241.63215205607412 165.7269404536346,241.48393726692302 167.49376250850037,240.98988719354384 167.61561230535153,241.01458972558612 167.59530400589574,241.0639947807067 167.47345420892816,241.08869730384322 167.39222101098858,241.0392922546307 167.18913801619783,240.22410721967753 167.14852141728625,240.14999932792853 167.04697991977446,240.10059405193897 167.20944631565362,240.00178346394387 167.81869530014228,239.87827016186202 167.92023679753765,239.80416214480647 167.92023679753765,239.7547567852016 167.43283761001658,239.03837772806583 167.351604412077,238.79134988480655 167.00636332086287,238.07496745078242 166.78297202661633,236.81511638936354 166.78297202661633,236.6668981068069 166.82358862552792,236.5433827892848 167.00636332086287,236.44457048154436 168.06239489396103,236.04932077261037 168.69195217778906,235.7528829892981 170.72278212592937,235.18470936945232 172.93638676940463,234.61653416993795 173.18008636299055,234.4930176131311 173.22070296201855,234.3447976464813 173.15977806365117,234.0977641298814 172.956695068744,233.7025098822196 172.38806268328335,232.83788855024613 172.26621288643219,232.59085321211023 172.2459045870928,232.44263186585158 172.30682948534377,232.36852115247166 172.50991248025093,232.22029964502144 173.09885316516738,231.99796718213474 173.70810214965604,231.65211620368063 174.05334324075375,231.40507943218108 174.19550133717712,231.10863491208875 174.29704283445608,231.0098199764907 174.88598351948895,230.73807865736308 175.67800719919614,230.2440026057593 175.73893209767994,230.07107570543303 175.61708230071235,229.57699804128788 175.59677400125656,229.10762315381726 175.67800719919614,228.61354316024517 175.82016529561952,228.1441660598939 176.08417318877764,227.82301268579613 176.85588856914546,227.20540862472262 177.28236285818275,226.78543679705763 177.5057541525457,226.6619155070075 177.34328775666654,225.7478556400456 176.89650516805705,224.56204215246544 176.79496367066167,224.1914740264183 176.10448148834985,222.16568972551613 175.94201509247068,221.77041239837126 175.71862379810773,221.3010195792158 175.67800719919614,220.93044553940126 175.4343076054938,220.18929544332786 174.54074242827483,218.4105242449441 174.07365154020954,217.2493735816097 173.7893353474792,216.82938129118702 173.70810214965604,216.0635107743583 173.70810214965604,215.96468856312276 173.93149344378617,215.6435160464025 174.31735113402829,215.2729317459598 174.47981752990745,215.17410915238725 175.75924039713573,214.72940688952804 176.6934221732663,214.11176325222186 177.83068694418762,213.56823530698603 178.82579361880198,213.0" stroke="#4DD2FF" stroke-linecap="round" stroke-linejoin="round" stroke-width="0.5"><title>2025-11-20 10.0km</title><desc>16570876284</desc></polyline></svg>