<?xml version="1.0" encoding="utf-8" ?>
<svg baseProfile="full" height="300mm" version="1.1" viewBox="0,0,200,300" width="200mm" xmlns="http://www.w3.org/2000/svg" xmlns:ev="http://www.w3.org/2001/xml-events" xmlns:xlink="http://www.w3.org/1999/xlink"><defs /><rect fill="#222222" height="300" width="200" x="0" y="0" /><text fill="#FFFFFF" style="font-size:12px; font-family:Arial; font-weight:bold;" x="10" y="20">Over 10km Runs</text><text fill="#FFFFFF" style="font-size:4px; font-family:Arial" x="10" y="280">Runner</text><text fill="#FFFFFF" style="font-size:9px; font-family:Arial" x="10" y="290">Ennui</text><text fill="#FFFFFF" style="font-size:4px; font-family:Arial" x="65" y="280">SPECIAL TRACKS</text><rect fill="yellow" height="2.6" width="2.6" x="65" y="283" /><text fill="#FFFFFF" style="font-size:3px; font-family:Arial" x="70" y="285.5">Over 20.0 km</text><rect fill="red" height="2.6" width="2.6" x="65" y="287" /><text fill="#FFFFFF" style="font-size:3px; font-family:Arial" x="70" y="289.5">Over 40.0 km</text><text fill="#FFFFFF" style="font-size:4px; font-family:Arial" x="120" y="280">STATISTICS</text><text fill="#FFFFFF" style="font-size:3px; font-family:Arial" x="120" y="285">Number: 2</text><text fill="#FFFFFF" style="font-size:3px; font-family:Arial" x="120" y="290">Weekly: 1.0</text><text fill="#FFFFFF" style="font-size:3px; font-family:Arial" x="141" y="285">Total: 20.0 km</text><text fill="#FFFFFF" style="font-size:3px; font-family:Arial" x="141" y="290">Avg: 10.0 km</text><text fill="#FFFFFF" style="font-size:3px; font-family:Arial" x="167" y="285">Min: 10.0 km</text><text fill="#FFFFFF" style="font-size:3px; font-family:Arial" x="167" y="290">Max: 10.0 km</text><polyline fill="none" points="146.35764889698476,38.65450571468682 143.50120840012096,39.571512677153805 140.92247739597224,40.585044237348484 138.10570968384854,41.791626072343206 134.8128685557749,43.04646731185494 134.6145046320744,43.14299339754507 134.49548627831973,43.384308509965194 134.535159062827,44.735670443071285 134.93188690952957,45.990502427303 135.9633793111425,48.59667932856246 136.4791255122982,50.3341211428924 137.19323563645594,52.40938895451836 137.78832740639336,53.471149709337624 138.42309196153656,55.112047139176866 139.65294828638434,57.86294828588143 140.01000334857963,59.021216781722615 139.97033056383952,59.35904445985216 139.69262107135728,59.55208871894865 137.3915995596908,60.13122093628044 135.56665146467276,60.51730861450778 134.8128685557749,60.855135026504286 132.86890210630372,61.57904780397075 132.0357736281585,61.9651340819255 130.7265717338305,62.78556618254515 129.77442490146495,63.21991190625704 129.41736983926967,63.65425715711899 129.1793331312947,63.799038802535506 127.19569389754906,64.52294624136994 125.56910972553305,65.00555047142552 123.426779352827,65.97075718114502 121.40346733434126,66.93596155723208 118.38833569874987,68.67332355325925 115.65091355587356,70.12111944085336 113.9053110301029,71.27935237044585 113.03250976721756,72.05150579003384 111.96134458086453,72.82365771624609 110.17606927012093,73.64406750130001 106.01042687892914,75.38140030449722 105.85173574020155,75.5744368158339 105.85173574020155,75.76747323395102 106.52617307985201,77.02220767640392 106.96257371152751,77.36002012176323 107.55766548146494,77.31176121853059 107.04191928077489,77.36002012176323 106.60551864933223,77.21524339437019 107.35930155799724,77.21524339437019 107.00224649580196,77.36002012176323 106.88322814181447,77.31176121853059 107.51799269695766,77.26350230936077 107.16093763476238,77.50479679647833 106.80388257256709,78.18042058456922 107.04191928077489,78.13216178052244 106.96257371152751,78.27693817543332 105.89140852494165,79.19385412306292 104.2251515686512,80.15902652984369 102.04314841120504,81.70329752727412 101.3290382870473,82.13762266901904 99.14703512960114,83.1993043597322 98.82965285214595,83.87491851128289 98.78998006763868,84.40575739959604 98.90899842162617,85.32265927168191 99.8214724692516,88.45941290960764 100.29754588543437,90.77576900788699 101.48772942554206,94.10550735535799 101.60674777976237,95.07064371436718 101.92413005698472,96.2770608823339 102.51922182738781,97.96603879352915 102.59856739663519,98.93116582068615 102.75725853536278,99.99280285605346 102.95562245883048,100.90966893319273 103.23333195154555,102.59862724793493 103.51104144426063,103.3224643386493 104.14580599917099,104.4323453293182 105.01860726205632,106.60384269239148 107.04191928077489,110.8985471468186 107.35930155799724,111.38109532240196 107.87504775915295,111.62236919152201 108.94621294527315,111.71887869836064 110.13639648561366,111.5741144294152 112.04069015034474,111.04331166058546 112.99283698224463,110.99505682851304 116.08731418731622,111.76713344312157 117.39651608187705,111.96015236334642 119.61819202359766,111.67062394792447 121.28444898035377,111.13982130752993 122.3556141667068,110.8985471468186 125.64845529478043,110.31948856636882 127.94947680621408,110.07821390987374 129.97278882469982,109.59566415974405 130.3298438868951,109.35438906605123 130.5678805951029,109.01660368984449 130.6472261643503,108.7270731398894 130.6472261643503,108.38928723300342 129.45704262400977,104.09455578922643 128.54456857638434,101.34397318222909 128.54456857638434,101.1026931021479 128.66358693060465,101.05443706866936 128.78260528459214,101.1026931021479 128.86195085383952,101.29571717782528 129.41736983926967,102.88816224175389 130.7265717338305,107.27941724119592 130.88526287232526,108.09975622821366 130.9249356572982,108.7270731398894 130.84559008781798,109.06485876097577 130.5678805951029,109.49915413971758 130.17115274816751,109.78868412971497 129.69507933221757,109.98170400658273 127.47340339003131,110.31948856636882 121.04641227214597,111.67062394792447 117.43618886638433,112.29793524942943 116.92044266569428,112.34618992422475 116.44436924951151,112.24968056901707 115.0161490009632,111.9118976421014 113.31021925993264,111.28458573395619 112.91349141299725,111.2363309309876 111.24723445670679,111.67062394792447 109.42228636145592,112.24968056901707 108.1924300363753,112.58746321022045 107.39897434273735,113.0217547575885 104.97893447731622,114.807170601096 103.9871148604434,115.38622267366736 97.04437754163519,120.40463879614254 90.77607756247744,124.79570116786635 89.26851174468175,126.38805251565645 88.83211111323908,126.96708779523033 86.68978074053302,129.23496788920602 84.98385099950247,131.26157324624364 83.51595796621405,132.75739441273618 83.07955733500421,133.09515970715438 82.7621750573162,133.19166402437259 82.28610164136626,133.19166402437259 81.09591810102575,133.04690753979958 80.73886303883046,132.85389881170704 77.08896684856154,127.98039751398028 76.65256621688604,127.5461222351878 76.41452950891107,127.49786939719343 73.2803795193322,130.00700923791737 68.67833649646491,133.38467258933815 67.7261896643322,134.1567059153749 66.2186238465365,135.3147531063005 65.54418650688604,135.749019937095 64.59203967452049,136.56930044025648 63.08447385695763,137.5825857942691 61.418216900201514,139.07838328485377 60.10901500610635,139.94690828883904 57.80799349443987,141.8287059845461 57.09388337028213,142.21471467238734 55.62599033745937,142.79372700452222 54.83253464382142,143.6139930378995 54.39613401237875,143.9517491501756 53.99940616544336,144.0 53.68202388822101,143.8552474330645 53.642351103248075,143.6139930378995 54.39613401237875,143.22798570257146 55.506971983471885,142.21471467238734 59.315559312468395,140.04341095063137 60.74377956078388,138.78887453037896 62.05298145534471,138.01685015895055 64.19531182781793,136.2315380842483 65.10778587544337,135.60426437933347 66.89306118595414,134.1084538763389 69.78917446755804,132.1783675289771 71.7331409167964,130.73079664679244 72.28855990245938,130.2000193418644 73.43907065782696,129.47623097110773 75.02598204510286,128.0769030675001 76.13682001596317,127.4013637038297 76.69223900139332,127.25660512014292 77.00962127908133,127.4013637038297 77.52536747977138,128.12515583547065 78.91391494381242,129.8622515987372 80.34213519189507,131.88885377228144 80.97689974680543,132.51613331312547 81.25460923975334,132.7091422045487 81.6513370864559,132.8056466151029 82.64315670356154,132.85389881170704 83.03988455003127,132.75739441273618 84.3490864445921,131.55108745757025 86.57076238654554,128.9454519985593 90.0619674383197,125.18172632015194 91.09345983993262,124.21666273986921 91.96626110281795,123.54111684593954 98.39325222070329,119.15004067818518 100.13885474670678,117.7989306045929 102.75725853536278,116.11003658370464 104.10613321443088,115.04844240003149 104.97893447731622,114.56589865620481 108.66850345255807,111.9118976421014 108.74784902180545,111.76713344312157 108.66850345255807,111.71887869836064 107.75602940493263,111.67062394792447 107.47831991198473,111.5741144294152 107.081592065515,111.18807612208184 106.56584586435929,110.27123364678118 105.7327173864469,109.06485876097577 105.21697118552402,107.4241830673418 104.2648243533913,105.5904787259642 103.51104144426063,103.75676596339326 103.03496802807786,102.11606845838833 102.8762768895831,100.90966893319273 102.43987625814043,99.07593467351398 102.4002034731675,98.44860259877169 102.04314841120504,96.90439636909286 101.44805664103478,94.92587340940372 100.8926376553718,92.5130272625247 100.61492816288956,91.64439908007625 99.94049082323909,90.34145326307043 99.70245411526412,89.47282035616809 99.5834357610438,88.74895815673517 99.86114525375888,87.83206415348104 100.0595091774594,87.59077590785455 100.85296487086453,86.81865254207514 103.03496802807786,85.03311153952382 104.93926169280894,84.16446708326112 105.97075409442186,83.77840227389243 107.91472054342739,82.81323861706187 109.62065028469078,82.13762266901904 111.1282161027193,81.41374717018334 112.51676356629469,81.02767970087007 114.26236609206535,80.35206073123845 116.72207874222659,79.29037146866904 116.96011545020156,79.09733675402822 116.99978823494166,78.8077845069638 116.44436924951151,77.16698447370436 116.28567811078392,76.10528674095985 116.36502368026413,75.09184536230168 116.6030603882391,74.70577177946689 119.06277303840034,73.40277068084106 119.85622873203829,73.11321430356475 123.38710656831972,71.52065047458746 124.41859896969981,71.23109273219598 124.7756540318951,70.98979445316945 124.7756540318951,70.79675572484848 124.29958061571233,70.26589874079218 123.50612492230721,68.72158350070822 122.55397808994167,66.35683921157033 122.0779046737589,64.812508849398 121.16543062613346,63.17165129355271 120.49099328671582,61.77209098965977 119.85622873203829,59.7933939115901 119.85622873203829,59.55208871894865 119.93557430128567,59.40730553335743 120.17361100926064,59.117739004519535 120.3323021477554,58.68338881750242 120.64968442544341,58.39382176368963 121.76052239653654,57.86294828588143 123.58547049155459,57.23555144754937 124.45827175443992,56.80119921255391 124.65663567790762,56.60815362309222 124.65663567790762,56.27032361677266 124.29958061571233,55.449878125684336 124.22023504646495,55.208570307382615 123.8631799845025,54.58116929704556 123.82350719976239,54.14681417378597 122.67299644416198,51.92676949608722 122.23659581248648,51.202839214063715 122.0779046737589,50.671956173027866 122.39528695121408,50.3341211428924 124.14088947721757,49.368876624066615 125.80714643350802,48.30710495758103 129.3380242700223,45.84571432272787 129.45704262400977,45.65266343503026 129.49671540874988,45.507875207811594 129.1793331312947,44.059990048379404 129.1793331312947,43.77041238619131 129.29835148528218,43.52909750727122 129.81409768620506,43.04646731185494 130.5282078103628,42.70862582779955 132.35315590561368,42.32252092435374 132.9879204602912,42.08120517010684 135.1302508332301,40.3919908052485 137.94701854535379,38.702769291528966 140.36705841054209,37.44791439647088 142.43004321400076,36.14479167596437 142.78709827596322,36.0 143.1044805534184,36.0 143.46153561561368,36.38611101920833" stroke="#4DD2FF" stroke-linecap="round" stroke-linejoin="round" stroke-width="0.5"><title>2025-11-26 10.0km</title><desc>16570876727</desc></polyline><polyline fill="none" points="146.0186066236347,156.19764729039161 146.58723900909536,157.1858823080256 147.39957098849118,158.81646486223326 148.0900531706866,160.64468604972353 148.861768550938,163.1152422275627 149.1460847435519,163.7081734878302 149.95841672294773,165.14108714833856 150.12088311859407,165.73401546906098 150.08026651968248,166.07988992574974 149.91780012403615,166.1293005385669 146.05922322254628,166.57399578456534 145.6124406340532,166.72222742566373 145.44997423817404,166.87045901297824 145.49059083708562,167.16692202643026 145.6124406340532,167.41397437328123 146.4653892123606,168.5010029253608 146.91217180085368,169.24215709854616 147.2777211915236,170.08213020316907 147.64327058196068,171.21856165572535 148.4556025613565,172.65144898268045 148.65868555614725,173.44200535750133 148.61806895700283,173.7878732905956 148.21190296742134,174.13374093093444 148.00881997286342,174.67724663155968 147.96820337395184,174.87488488884992 148.13066976959817,175.3689801141736 147.92758677480742,175.56661803703173 147.23710459237918,175.91248417206225 147.03402159782127,176.159531232086 147.03402159782127,176.5053968653374 147.68388718087226,177.39476429260685 147.68388718087226,177.64181045652367 147.48080418631434,177.88885647128336 147.03402159782127,178.23472064101952 144.80010865465738,179.7169923390029 144.55640906095505,180.0134460333502 144.59702566009946,180.35930840513902 146.0186066236347,183.76850755052874 146.14045642036945,184.31200043845456 146.0186066236347,184.6084507999476 145.49059083708562,184.90490094627603 142.16002972237766,185.99188297675573 140.7384487586096,186.73300543084042 139.07316820137203,187.42471850893344 136.96110505517572,188.06702246179339 135.17397470073774,188.80814115324756 134.40225932048634,189.20340390570345 132.29019617452286,190.53741287335288 130.50306582031772,191.27852708505816 128.02545328368433,192.46430702880025 126.88818851276301,192.90897362059331 120.348916079849,195.8734052038344 119.82090029329993,196.02162621854222 118.7648687204346,196.16984717964078 118.19623633497395,196.81213738964288 117.70883714733645,197.15798554613139 114.05334324063733,198.88722193904687 112.10374649078585,199.6777275679342 110.31661613634787,200.221199300664 103.73672710452229,202.7903286193614 101.58404735964723,203.72904491930967 100.8529485783074,204.2231052639545 100.69048218242824,204.51954118392314 100.73109878133982,205.310035919887 101.05603157309815,206.5945866049442 101.01541497395374,207.13804914109642 100.69048218242824,207.3850773277518 100.081233198056,207.6321053651045 98.00978665077128,208.22497204574756 97.68485385924578,208.4225940813776 97.5630040622782,208.6696214917174 97.60362066142261,209.11427045418532 98.25348624470644,211.28810286315274 98.98458502604626,213.41251882060897 99.26890121866018,214.79585350857815 99.79691700520925,216.5744198000175 99.87815020303242,217.16727351071313 100.04061659914441,217.51310444489354 100.20308299479075,219.68689218905638 100.56863238546066,221.36662934659398 100.97479837504216,222.40411061330815 101.90898015140556,223.93562576622935 102.72131213033572,226.35639607935445 104.67090888065286,230.50625469378429 105.03645827132277,231.00028267511516 105.32077446393669,231.14849095317186 106.33618943812326,231.24729644187028 107.83900359948166,231.14849095317186 109.70736715197563,230.60506033775164 110.76339872484095,230.40744902586448 111.73819710011594,230.60506033775164 114.62197562633082,231.54371276503662 115.02814161591232,231.64251815836178 115.67800719942898,231.59311546458048 116.2466395846568,231.54371276503662 118.19623633497395,230.95087990374304 121.242481257068,230.35804618289694 122.25789623102173,230.01222611533012 126.72572211665101,229.32058510262868 127.86298688757233,229.122973169724 128.18791967933066,229.0241671675176 128.512852471089,228.77715205741697 128.67531886673532,228.4807337281527 128.75655206502415,227.6902837996604 128.512852471089,226.50460604109685 127.98483668477274,224.92369701332063 127.33497110125609,222.55232200794853 126.68510551797226,221.02080167253735 126.68510551797226,220.57616566165234 126.72572211665101,220.47735759356874 126.8475719136186,220.42795355062117 127.17250470537692,220.773781726195 128.9596350598149,227.4432678835874 129.08148485654965,228.43133065247093 128.75655206502415,228.97476415746496 128.512852471089,229.22177914809436 127.98483668477274,229.3699880708882 123.27331120497547,230.20983761834214 121.20186465815641,230.65446315071313 119.0898015119601,231.00028267511516 116.9777383657638,231.54371276503662 115.59677400114015,231.79072620344232 114.82505862112157,231.84012887327117 113.80964364716783,231.64251815836178 111.73819710011594,230.95087990374304 110.76339872484095,230.7532687590865 108.69195217778906,231.29669917738647 105.93002344854176,232.18594739452237 103.6961105056107,233.71742590083159 100.28431619261391,235.94052965263836 98.90335182799026,236.97797393312794 97.92855345294811,237.57079805410467 95.77587370807305,239.20105995438644 89.56153406691737,243.4989919840009 87.97748670750298,244.68462045452907 86.51528914482333,246.1666512073425 85.0124749832321,247.8462795659434 83.0222616342362,249.77290359776816 80.66649889433756,252.4405218840693 79.93540011276491,253.03332358389162 79.52923412341624,253.13212378363824 79.20430133165792,253.08272368684993 78.31073615467176,252.8851232395391 77.9858033626806,252.7369228414318 77.17347138351761,251.50191743462346 76.52360580023378,250.8103127773502 74.57400905014947,248.09328315436142 73.92414346663281,247.45107351415209 73.51797747705132,247.50047429150436 68.40028600790538,251.20551558199804 67.50672083068639,251.99592004492297 65.80082367430441,253.18152387469308 64.33862611162476,254.31772431824356 62.22656296566129,255.79972015190287 60.276966215344146,257.28171061357716 58.083669871557504,258.7142962871585 54.02200997527689,262.02404399294755 53.33152779308148,262.46863492703415 51.99118002736941,262.9626242869708 50.73206545948051,264.0 50.16343307401985,264.0 49.91973348031752,263.9012024264084 49.879116881405935,263.85180363076506 50.000966678140685,263.70360720765893 50.89453185535967,263.6048095624719 51.5443974386435,263.16021986384294 52.43796261586249,262.7650286144926 55.19989134534262,260.98666326643433 56.499622512143105,259.8504813553009 60.64251560624689,256.83711403911 62.673345554154366,255.00932304255548 66.08513986691833,252.78632298012963 67.70980382547714,251.6007180044835 68.88768519531004,250.6127112317772 70.83728194562718,249.2294977386482 72.09639651328325,248.14268385415198 73.35551108117215,247.35227194140316 73.59921067487448,247.30287114623934 73.76167707098648,247.35227194140316 74.04599326336756,247.59927582833916 75.71127382107079,249.62470207142178 76.84853859175928,251.15611525220447 78.22950295661576,252.6875226967677 78.51381914922968,252.8851232395391 78.71690214425325,252.93452336027985 79.65108392038383,252.98392347508343 80.13848310778849,252.8851232395391 85.54049076978117,247.15466872457182 86.92145513440482,245.5738395509252 88.09933650423773,244.33881250582635 92.07976320246235,241.52293689217186 96.01957330177538,238.85524736728985 104.14289309410378,233.0257911569206 105.72694045351818,231.88953153704642 106.539272432914,231.44490734787541 106.458039234858,231.34610190679086 105.3613910630811,231.14849095317186 104.91460847435519,230.95087990374304 103.28994451602921,228.18431518416037 102.7619287292473,226.7022192396107 101.86836355226114,224.72608295481768 101.38096436462365,223.490992925741 100.81233197916299,221.61364893460996 100.4873991876375,220.52676163055003 100.28431619261391,219.14344633673318 100.0,218.05655246469541 99.35013441671617,216.5744198000175 99.30951781757176,215.8827560505888 99.39075101562776,215.53692373706144 99.87815020303242,215.24049580696737 101.54343076073565,214.8452582322643 105.72694045351818,214.05478193648742 107.0266716205515,213.70894807646982 109.74798375088722,213.26430411214824 111.4538809072692,212.96787453384604 114.98752501700073,211.97977438708767 115.23122461070307,212.02917945117224 115.19060801179148,212.12798956141341 114.94690841785632,212.17739460768644 114.78444202197716,212.07858450926142 114.37827603239566,210.44821443935507 114.2970428345725,210.29999865585705 114.09395983954892,210.20118810387794 114.41889263130724,210.00356692788773 115.63739060028456,209.75654032372404 115.84047359507531,209.60832428961294 115.84047359507531,209.50951357040321 114.86567522003315,208.07675545613165 114.70320882415399,207.5826997696131 114.01272664172575,206.14993490156485 113.56594405323267,203.63023277872708 113.56594405323267,203.33379621361382 113.64717725105584,203.0867655785696 114.01272664172575,202.88914096308872 116.12478978792205,202.09864154522074 117.38390435557812,201.50576597859617 121.44556425185874,200.36941873890464 125.87277353880927,199.2330683398759 126.3601727259811,198.98603522626217 126.4414059240371,198.68959529296262 126.31955612730235,198.1955282597628 125.91339013748802,197.4050197644392 124.7761253665667,195.67577710049227 124.53242577286437,195.18170642422047 124.49180917418562,194.88526373170316 124.61365897068754,194.73704230494332 125.01982496050186,194.44059929004288 126.19770633033477,193.9959343642695 127.41620429931208,193.30423240736127 128.1066864815075,192.81015886436217 128.39100267435424,192.2172698241775 128.59408566891216,192.01963995298138 129.7719670389779,191.47615731472615 131.3560143983923,190.4880052115186 131.47786419535987,190.14215141086606 131.2341646014247,189.15399608257576 131.19354800251313,188.21524630763452 131.3560143983923,187.22708632049034 131.64033059123904,186.2883321197878 132.16834637755528,185.64602537159226 133.71177713829093,184.41081724944524 134.5647257163655,183.57087359411526 135.0115083050914,183.323831014015 134.68657551333308,181.4957112800912 133.7930103361141,179.12408430493088 133.58992734132335,178.38294805283658 132.2089629766997,174.33137945103226 131.88403018494137,173.54082479674253 131.43724759621546,172.60203915843158 131.3560143983923,171.86089107880252 130.86861521098763,170.37859088665573 129.08148485654965,166.8210484898882 128.14730308041908,164.49874716321938 127.57867069495842,163.65876258237404 127.41620429931208,162.12702154871658 127.41620429931208,161.92937712624553 127.86298688757233,161.28703209280502 128.63470226805657,160.5458634919196 128.9596350598149,160.3482183047745 131.51848079427145,159.45881377905607 133.3868443465326,158.22352650444373 135.66137388837524,157.13647061397205 137.65158723760396,156.0" stroke="#4DD2FF" stroke-linecap="round" stroke-linejoin="round" stroke-width="0.5"><title>2025-11-20 10.0km</title><desc>16570876284</desc></polyline></svg>