<?xml version="1.0" encoding="utf-8" ?>
<svg baseProfile="full" height="200mm" version="1.1" viewBox="0,0,200,200" width="200mm" xmlns="http://www.w3.org/2000/svg" xmlns:ev="http://www.w3.org/2001/xml-events" xmlns:xlink="http://www.w3.org/1999/xlink"><defs /><rect fill="#1a1a1a" height="200" width="200" x="0" y="0" /><rect fill="#1a1a1a" height="200" width="180" x="10" y="0" /><text alignment-baseline="middle" fill="#e1ed5e" style="dominant-baseline: central; font-size:9.0px; font-family:Arial;" text-anchor="middle" x="100.0" y="100.0">2025</text><line stroke="#e1ed5e" stroke-width="0.3" x1="100.0" x2="100.0" y1="15.0" y2="10.0" /><path d="M 100.0 14.0 a86.0,86.0 0 0,1 42.46469731375804,11.215312516191453" fill="none" id="id1" stroke="none" /><text fill="#e1ed5e" style="font-size:6.75px; font-family:Arial;" text-anchor="middle"><textPath startOffset="22.20632615414155" xlink:href="#id1">January</textPath></text><line stroke="#e1ed5e" stroke-width="0.3" x1="143.23703022742887" x2="145.7803849466894" y1="26.81831364943548" y2="22.513508569990506" /><path d="M 143.74570117128098 25.957352633546492 a86.0,86.0 0 0,1 28.547481713284135,27.462654790039103" fill="none" id="id2" stroke="none" /><text fill="#e1ed5e" style="font-size:6.75px; font-family:Arial;" text-anchor="middle"><textPath startOffset="19.985693538727396" xlink:href="#id2">February</textPath></text><line stroke="#e1ed5e" stroke-width="0.3" x1="172.23445277983987" x2="176.4835382374775" y1="55.19839476539836" y2="52.563006222186495" /><path d="M 173.08426987136738 54.67131705675599 a86.0,86.0 0 0,1 12.851231095245387,41.99856678651699" fill="none" id="id3" stroke="none" /><text fill="#e1ed5e" style="font-size:6.75px; font-family:Arial;" text-anchor="middle"><textPath startOffset="22.20632615414155" xlink:href="#id3">March</textPath></text><line stroke="#e1ed5e" stroke-width="0.3" x1="184.98032266829074" x2="189.97916517819016" y1="98.17113171792111" y2="98.06355123074" /><path d="M 185.9800911702706 98.14961562048488 a86.0,86.0 0 0,1 -9.607161424134198,41.387399972396054" fill="none" id="id4" stroke="none" /><text fill="#e1ed5e" style="font-size:6.75px; font-family:Arial;" text-anchor="middle"><textPath startOffset="21.466115282336823" xlink:href="#id4">April</textPath></text><line stroke="#e1ed5e" stroke-width="0.3" x1="174.80103733775053" x2="179.2010983576182" y1="140.37084112569926" y2="142.7455964860345" /><path d="M 175.68104954172406 140.8457921977663 a86.0,86.0 0 0,1 -30.038265399797805,32.042727171017184" fill="none" id="id5" stroke="none" /><text fill="#e1ed5e" style="font-size:6.75px; font-family:Arial;" text-anchor="middle"><textPath startOffset="22.206326154141568" xlink:href="#id5">May</textPath></text><line stroke="#e1ed5e" stroke-width="0.3" x1="143.8653032363475" x2="146.44561519142675" y1="172.8068346515853" y2="177.08958963109032" /><path d="M 144.38136562736335 173.6633856474863 a86.0,86.0 0 0,1 -40.68145358897372,12.25698825130547" fill="none" id="id6" stroke="none" /><text fill="#e1ed5e" style="font-size:6.75px; font-family:Arial;" text-anchor="middle"><textPath startOffset="21.466115282336833" xlink:href="#id6">June</textPath></text><line stroke="#e1ed5e" stroke-width="0.3" x1="102.19456741930631" x2="102.32365962044197" y1="184.97166512339345" y2="189.96999836594603" /><path d="M 102.22038585953345 185.97133177190398 a86.0,86.0 0 0,1 -42.740103519485714,-10.115201625700543" fill="none" id="id7" stroke="none" /><text fill="#e1ed5e" style="font-size:6.75px; font-family:Arial;" text-anchor="middle"><textPath startOffset="22.20632615414155" xlink:href="#id7">July</textPath></text><line stroke="#e1ed5e" stroke-width="0.3" x1="58.666819895761336" x2="56.23545636021788" y1="174.27360380694188" y2="178.64263932499728" /><path d="M 58.180547188652646 175.14741091055294 a86.0,86.0 0 0,1 -31.652253787137756,-30.449443065178592" fill="none" id="id8" stroke="none" /><text fill="#e1ed5e" style="font-size:6.75px; font-family:Arial;" text-anchor="middle"><textPath startOffset="22.20632615414155" xlink:href="#id8">August</textPath></text><line stroke="#e1ed5e" stroke-width="0.3" x1="26.63291911575756" x2="22.317208475507996" y1="142.92168965132927" y2="145.44649492493687" /><path d="M 25.769776987707644 143.4266507060508 a86.0,86.0 0 0,1 -11.730757126820373,-40.83630448921669" fill="none" id="id9" stroke="none" /><text fill="#e1ed5e" style="font-size:6.75px; font-family:Arial;" text-anchor="middle"><textPath startOffset="21.46611528233685" xlink:href="#id9">September</textPath></text><line stroke="#e1ed5e" stroke-width="0.3" x1="15.007084014347285" x2="10.007500721073583" y1="101.09737516637583" y2="101.16192664675087" /><path d="M 14.007167355692545 101.11028546245083 a86.0,86.0 0 0,1 10.666146001902534,-42.60595125391555" fill="none" id="id10" stroke="none" /><text fill="#e1ed5e" style="font-size:6.75px; font-family:Arial;" text-anchor="middle"><textPath startOffset="22.20632615414155" xlink:href="#id10">October</textPath></text><path d="M 79.3925641242962 95.95851677861259 l -24.15231262693249 -4.736696347289604 a45.612405358182876,45.612405358182876 0 0,0 0.1577335710534245,-0.7691649103940674 l 24.06719975996407 5.151736913847074" fill="red" stroke="none" /><path d="M 79.46518482838121 95.60439243477599 l -19.601274693228543 -4.195777298676177 a41.04531158998253,41.04531158998253 0 0,0 0.15383316235152125,-0.6896039031699958 l 19.526147143874983 4.532559371396132" fill="red" stroke="none" /><path d="M 79.54389044137918 95.25157060432595 l -6.126110387328382 -1.422039834161675 a27.28899242865463,27.28899242865463 0 0,0 0.11015292723242288,-0.4566549977411496 l 6.100724659835144 1.5272800635622215" fill="red" stroke="none" /><path d="M 79.62865764111835 94.90015583598534 l -13.29518650447654 -3.3283707136157195 a34.70547466511357,34.70547466511357 0 0,0 0.15006592398925853,-0.578265220873647 l 13.235924248616973 3.55673236003823" fill="red" stroke="none" /><path d="M 79.71946130924805 94.55025226153421 l -18.495466564872387 -4.970066555961173 a40.15160163075131,40.15160163075131 0 0,0 0.18510505813361952,-0.6659213808388682 l 18.407174736172408 5.287699240218984" fill="red" stroke="none" /><path d="M 79.81627453868168 94.20196356495316 l -20.118064119647837 -5.779174364607515 a41.93168316831684,41.93168316831684 0 0,0 0.20525379780396508,-0.6920137690663517 l 20.015604424732164 6.124617520420406" fill="red" stroke="none" /><path d="M 80.02781315780177 93.51064311812611 l -29.127255166385503 -9.464018900760323 a51.62620850320326,51.62620850320326 0 0,0 0.28188575139428673,-0.8428025175732571 l 28.960032121219445 9.963994521255902" fill="red" stroke="none" /><path d="M 80.14247586403 93.16781622104843 l -20.089324671478497 -6.9119371181800355 a42.245136866627846,42.245136866627846 0 0,0 0.24250100476380582,-0.6855829960037833 l 19.967370585904884 7.25671774061043" fill="red" stroke="none" /><path d="M 80.2630227832202 92.82701384747504 l -5.800395284558586 -2.108030758627894 a27.17157833430402,27.17157833430402 0 0,0 0.1635410868868865,-0.4382088053439808 l 5.763249609170072 2.2075627010012164" fill="red" stroke="none" /><path d="M 80.38941819471856 92.48833698450439 l -14.852091017618338 -5.688964453353059 a36.90436808386721,36.90436808386721 0 0,0 0.23233311896321435,-0.5912624459766739 l 14.751964348773434 5.943775904225496" fill="red" stroke="none" /><path d="M 80.52162464483688 92.15188598940014 l -52.768586467409015 -21.261212766630877 a77.89079790331974,77.89079790331974 0 0,0 0.5117733762756185,-1.2392998241514774 l 52.394791404247194 22.166387161235665" fill="red" stroke="none" /><path d="M 80.65960295795068 91.81776055985345 l -12.745931519291833 -5.3923538049302575 a34.83966220151427,34.83966220151427 0 0,0 0.2384182440143049,-0.5503021787883908 l 12.651222565434848 5.610955128305248" fill="red" stroke="none" /><path d="M 80.95270993114464 91.15688171328213 l -9.618413979108396 -4.4655576851299426 a31.604484566103668,31.604484566103668 0 0,0 0.23333411284900954,-0.49146114927775697 l 9.540121672417635 4.630461250048231" fill="red" stroke="none" /><path d="M 81.10775173730289 90.83032412892265 l -51.182604231255894 -24.842352509464934 a77.89289458357601,77.89289458357601 0 0,0 0.5958435036631825,-1.2011841445215365 l 50.7474007146393 25.719696242485433" fill="red" stroke="none" /><path d="M 81.43458229118936 90.18545643968196 l -19.393825522874636 -10.252478472656723 a42.93704135119395,42.93704135119395 0 0,0 0.3510448687391221,-0.6504328272978465 l 19.21447255491704 10.584792283287042" fill="red" stroke="none" /><path d="M 81.6062741919709 89.86733742301443 l -12.140869088963854 -6.688113716261081 a34.861153174140945,34.861153174140945 0 0,0 0.2940660428825331,-0.5231106775171971 l 12.02394540478889 6.896107903713063" fill="red" stroke="none" /><line stroke="#e1ed5e" stroke-width="0.3" x1="26.266209847984243" x2="21.928928074336255" y1="57.711370442889674" y2="55.22380399835377" /><path d="M 25.398753493254645 57.213857153982495 a86.0,86.0 0 0,1 29.58750427330803,-30.492523968695096" fill="none" id="id11" stroke="none" /><text fill="#e1ed5e" style="font-size:6.75px; font-family:Arial;" text-anchor="middle"><textPath startOffset="21.46611528233685" xlink:href="#id11">November</textPath></text><path d="M 81.78341655067845 89.55222093294921 l -11.978021244832615 -6.869768964888564 a34.808211997670355,34.808211997670355 0 0,0 0.30256677853146124,-0.5171847029725437 l 11.857994791830828 7.074933080215" fill="red" stroke="none" /><path d="M 82.15384107792192 88.93136811851018 l -12.955874837722964 -8.03555599317243 a36.24548631333722,36.24548631333722 0 0,0 0.33341084363721,-0.5273758858467806 l 12.815636397839793 8.257379526733425" fill="red" stroke="none" /><path d="M 82.34701348167596 88.62581576622439 l -39.767468323116276 -25.62300213329019 a68.30739662201515,68.30739662201515 0 0,0 0.6453532057023256,-0.9829172074231385 l 39.32051848205603 26.303737404690995" fill="red" stroke="none" /><path d="M 82.54541684631803 88.32363383020206 l -30.546028806163985 -20.43398081945768 a57.750611531741406,57.750611531741406 0 0,0 0.5598386476443458,-0.8214941349573388 l 30.189765692850898 20.956752977685436" fill="red" stroke="none" /><path d="M 82.7489923806493 88.02491185347247 l -8.403461137347074 -5.833409275338157 a31.229702970297026,31.229702970297026 0 0,0 0.31034499510353947,-0.4389609866353041 l 8.301803522439656 5.9771967623052475" fill="red" stroke="none" /><path d="M 82.95767976084542 87.72973835380427 l -18.02524197888184 -12.977953248919992 a43.21118229470005,43.21118229470005 0 0,0 0.4398021530412538,-0.5998896424886747 l 17.799177213326953 13.286305335080167" fill="red" stroke="none" /><path d="M 83.6137871275137 86.86637796730984 l -28.522562797463298 -22.86096013158369 a57.55352358765289,57.55352358765289 0 0,0 0.6262412821950284,-0.7676977643683913 l 28.124823023191876 23.348542065560164" fill="red" stroke="none" /><path d="M 83.84228863543731 86.58626213691792 l -7.8910503509202155 -6.550957526309941 a31.25591147350029,31.25591147350029 0 0,0 0.34722249583588755,-0.4110019154567494 l 7.777117241597204 6.685818391395806" fill="red" stroke="none" /><path d="M 84.07557802195018 86.31012108654704 l -32.069975999375814 -27.569860230654598 a63.29161327897496,63.29161327897496 0 0,0 0.7173294727466972,-0.8200315902870629 l 31.590654663051275 28.117807377144604" fill="red" stroke="none" /><path d="M 84.5562425177563 85.77008943001954 l -34.59098428933329 -31.872205551708795 a68.03587652882935,68.03587652882935 0 0,0 0.8009853312528514,-0.8544353042933879 l 34.037231636109986 32.46291027288024" fill="red" stroke="none" /><path d="M 85.05521093208273 85.24692304244772 l -18.668987232266975 -18.429501019085265 a47.23313919627257,47.23313919627257 0 0,0 0.5761637765618608,-0.573689546201059 l 18.3489876555378 18.748126415936433" fill="red" stroke="none" /><path d="M 85.57189188830299 84.74124197986013 l -25.34432419570707 -26.803438613878267 a57.888468258590564,57.888468258590564 0 0,0 0.7299242863841188,-0.6783850741715464 l 24.879192025528095 27.23572827412446" fill="red" stroke="none" /><path d="M 86.10567301691215 84.25364557470407 l -34.71593373826632 -39.34335196754844 a73.4699475829936,73.4699475829936 0 0,0 0.9554808713339069,-0.8285835961559053 l 34.03355906828564 39.935100557124024" fill="red" stroke="none" /><path d="M 86.37877921826538 84.01681056812374 l -6.571369213812297 -7.710868258739603 a31.131158998252765,31.131158998252765 0 0,0 0.410846003909206,-0.3440717129754129 l 6.4376656729439805 7.822841129108828" fill="red" stroke="none" /><path d="M 86.93701828274178 83.55741782278169 l -16.332259444649257 -20.557673881109878 a47.255678509027376,47.255678509027376 0 0,0 0.6412538075678654,-0.5005087682060692 l 15.975973081921966 20.835761038539168" fill="red" stroke="none" /><path d="M 87.22198572758235 83.33499621200491 l -19.16957297150641 -25.000833413841477 a52.504193360512524,52.504193360512524 0 0,0 0.7219422750791046,-0.5437519541565877 l 18.73638454266891 25.327101957503917" fill="red" stroke="none" /><path d="M 87.51073957382395 83.11751280151077 l -6.304587807446154 -8.522291898716526 a31.600815375655216,31.600815375655216 0 0,0 0.4400860220785618,-0.3197412110207823 l 6.15695646901381 8.629552344553977" fill="red" stroke="none" /><path d="M 87.80319425747018 82.90503203632743 l -30.472733275610025 -42.71039566495896 a73.4668025626092,73.4668025626092 0 0,0 1.035772976816378,-0.7256251621501892 l 29.733029159209988 43.22860566987309" fill="red" stroke="none" /><path d="M 88.39885842347998 82.49532879139004 l -20.74769433291438 -31.305674983698403 a58.556785090273735,58.556785090273735 0 0,0 0.8449827022102838,-0.5496002542405645 l 20.20574460491981 31.658174162098504" fill="red" stroke="none" /><path d="M 89.00827224532344 82.1063720568725 l -27.486635621156598 -44.74598008525405 a73.51397786837506,73.51397786837506 0 0,0 1.0839388672040535,-0.6530610392156855 l 26.712334687734895 45.21248773392835" fill="red" stroke="none" /><line stroke="#e1ed5e" stroke-width="0.3" x1="56.762969772571076" x2="54.21961505331055" y1="26.818313649435495" y2="22.513508569990535" /><path d="M 56.25429882871897 25.957352633546506 a86.0,86.0 0 0,1 42.265352541879196,-11.944610805530505" fill="none" id="id12" stroke="none" /><text fill="#e1ed5e" style="font-size:6.75px; font-family:Arial;" text-anchor="middle"><textPath startOffset="22.20632615414155" xlink:href="#id12">December</textPath></text><path d="M 89.3179101791058 81.91981866633112 l -5.573368587889632 -9.433314678867143 a31.95672684915551,31.95672684915551 0 0,0 0.4760080275299561,-0.27573457373756355 l 5.4101638278943565 9.527853409994755" fill="red" stroke="none" /><path d="M 89.63071344664047 81.73862282372117 l -18.155094565739343 -31.97298365995703 a57.76790914385556,57.76790914385556 0 0,0 0.8689281392008896,-0.48355756869676325 l 17.602042337466408 32.28075662621398" fill="red" stroke="none" /><path d="M 90.26544431104013 81.39251694778311 l -24.31686989532556 -46.481396677754276 a73.45789167152009,73.45789167152009 0 0,0 1.1254431547215376,-0.5764956962976563 l 23.513166253015257 46.89308489936444" fill="red" stroke="none" /><path d="M 91.23893434514133 80.91482961587045 l -26.251925667746555 -57.187389527504806 a83.92504368083868,83.92504368083868 0 0,0 1.3180942911617923,-0.591390486917923 l 25.263649258117987 57.63080034493925" fill="red" stroke="none" /><path d="M 91.56875222667455 80.76684994638697 l -4.4206703734039685 -10.084321907634456 a32.01071636575422,32.01071636575422 0 0,0 0.5065562368146534,-0.21688094451280365 l 4.2464303787990065 10.158922380110045" fill="red" stroke="none" /><path d="M 91.90106846888425 80.62456947434976 l -18.09958571529041 -43.30043589359102 a67.9310425160163,67.9310425160163 0 0,0 1.0827436040851517,-0.4416783021791725 l 17.35155824161688 43.605575081953766" fill="red" stroke="none" /><path d="M 92.57280143429618 80.3572730644239 l -13.004673072274484 -34.39348494393198 a57.77000582411182,57.77000582411182 0 0,0 0.9331717626552537,-0.3436950355463931 l 12.410718983846662 34.612243247284695" fill="red" stroke="none" /><path d="M 92.91201910852362 80.23233633223022 l -15.863831831167643 -44.24262662695517 a68.000757134537,68.000757134537 0 0,0 1.1052324832066391,-0.38559391158211587 l 15.099917343897719 44.5091413917095" fill="red" stroke="none" /><path d="M 93.25333710446033 80.11325718540243 l -3.1878108481379304 -9.396523208594697 a30.922539312754807,30.922539312754807 0 0,0 0.505535186950149,-0.16666700291705458 l 3.025592838945372 9.450003935770985" fill="red" stroke="none" /><path d="M 93.94186890950719 79.89281104454417 l -18.17439327147842 -60.321566866367455 a84.0,84.0 0 0,0 1.3880391291063148,-0.4052066843252047 l 17.133363924648684 60.625471879611354" fill="red" stroke="none" /></svg>