<?xml version="1.0" encoding="utf-8" ?>
<svg baseProfile="full" height="200mm" version="1.1" viewBox="0,0,200,200" width="200mm" xmlns="http://www.w3.org/2000/svg" xmlns:ev="http://www.w3.org/2001/xml-events" xmlns:xlink="http://www.w3.org/1999/xlink"><defs /><rect fill="#1a1a1a" height="200" width="200" x="0" y="0" /><rect fill="#1a1a1a" height="200" width="180" x="10" y="0" /><text alignment-baseline="middle" fill="#e1ed5e" style="dominant-baseline: central; font-size:9.0px; font-family:Arial;" text-anchor="middle" x="100.0" y="100.0">2026</text><line stroke="#e1ed5e" stroke-width="0.3" x1="100.0" x2="100.0" y1="15.0" y2="10.0" /><path d="M 100.0 14.0 a86.0,86.0 0 0,1 42.46469731375804,11.215312516191453" fill="none" id="id13" stroke="none" /><text fill="#e1ed5e" style="font-size:6.75px; font-family:Arial;" text-anchor="middle"><textPath startOffset="22.20632615414155" xlink:href="#id13">January</textPath></text><path d="M 101.08401301168833 79.027996857942 l 2.168864215013479 -41.960222471054266 a63.01623783495535,63.01623783495535 0 0,0 1.0827928642952867,0.0653170225533411 l -2.8908191281483777 41.916672179120624" fill="red" stroke="none" /><path d="M 101.80526077348638 79.07773832637324 l 3.6171158870865403 -41.92094915312706 a63.0767097720304,63.0767097720304 0 0,0 1.0809391863226185,0.10264820048729886 l -4.338180200499403 41.85247540812458" fill="red" stroke="none" /><path d="M 102.52436894288641 79.15227682838746 l 5.4042057828430385 -44.631109268170526 a65.95710571923743,65.95710571923743 0 0,0 1.1259357595522632,0.14617877616255331 l -6.171656270903148 44.531472168843834" fill="red" stroke="none" /><path d="M 103.59715602781102 79.31037775812273 l 7.202560433662099 -41.42668635851261 a63.048153579522726,63.048153579522726 0 0,0 1.0676300484919945,0.19510256724238076 l -7.914585603256995 41.29656830991949" fill="red" stroke="none" /><path d="M 104.307194497241 79.44645832069477 l 6.209888048278588 -29.63302281934812 a51.2767031062525,51.2767031062525 0 0,0 0.8623209896853554,0.18846996866420188 l -6.719051762117472 29.52173935258805" fill="red" stroke="none" /><path d="M 105.01212808612495 79.60689891045804 l 11.026013594822695 -44.86210367934272 a67.19720037328355,67.19720037328355 0 0,0 1.1208848569529783,0.285738507579736 l -11.796607340460698 44.66566217559411" fill="red" stroke="none" /><path d="M 105.71112130821622 79.79150937346287 l 12.56416232554624 -44.45760173590058 a67.19888014931342,67.19888014931342 0 0,0 1.1104127985639412,0.3241599454246292 l -13.327565341833608 44.23474346155725" fill="red" stroke="none" /><path d="M 106.40334571778207 80.00007090966166 l 12.815100041792663 -40.02612125247242 a63.02757632315691,63.02757632315691 0 0,0 1.0304023630555648,0.3397074587135654 l -13.502185227090646 39.799600069499625" fill="red" stroke="none" /><path d="M 107.4271985657038 80.35727306442388 l 14.861328259251884 -39.303784638856406 a63.01959738701507,63.01959738701507 0 0,0 1.0113650121127178,0.39239391220154535 l -15.53567643636427 39.042148022764316" fill="red" stroke="none" /><path d="M 108.09893153111575 80.62456947434976 l 24.296794593347244 -58.12629157695072 a84.0,84.0 0 0,0 1.329264968838739,0.5691218881488367 l -25.2937433199763 57.69945016083909" fill="red" stroke="none" /><path d="M 108.76106565485865 80.91482961587045 l 8.766379992777544 -19.09674717725685 a42.01273830155979,42.01273830155979 0 0,0 0.6546420654875375,0.30736322753815015 l -9.09380026956468 18.943018967078697" fill="red" stroke="none" /><path d="M 109.73455568895987 81.39251694778311 l 20.063164553045905 -38.350491416679134 a64.28152912944941,64.28152912944941 0 0,0 0.9760230466504572,0.5213577097020197 l -20.720332646224673 37.99945498047536" fill="red" stroke="none" /><path d="M 110.36928655335952 81.73862282372117 l 2.7906250853575347 -4.914577003833366 a26.651606452473004,26.651606452473004 0 0,0 0.3969861706372236,0.22996001371736377 l -2.8748079884600863 4.865812832725953" fill="red" stroke="none" /><line stroke="#e1ed5e" stroke-width="0.3" x1="143.23703022742887" x2="145.7803849466894" y1="26.81831364943548" y2="22.513508569990506" /><path d="M 143.74570117128098 25.957352633546492 a86.0,86.0 0 0,1 28.547481713284135,27.462654790039103" fill="none" id="id14" stroke="none" /><text fill="#e1ed5e" style="font-size:6.75px; font-family:Arial;" text-anchor="middle"><textPath startOffset="19.985693538727396" xlink:href="#id14">February</textPath></text><path d="M 110.99172775467656 82.1063720568725 l 19.78335151643598 -32.205667698838425 a58.79664044794027,58.79664044794027 0 0,0 0.8578173589572958,0.5371651514827429 l -20.33478802776554 31.86035820603274" fill="red" stroke="none" /><path d="M 112.19680574252982 82.90503203632743 l 22.7252295983615 -31.851542129301386 a60.127443007598984,60.127443007598984 0 0,0 0.8373596344401409,0.6083773856557813 l -23.27013454915543 31.45564550882893" fill="red" stroke="none" /><path d="M 115.19652480421416 85.50635884689758 l 12.185988094567145 -11.62235055804706 a37.839754699373415,37.839754699373415 0 0,0 0.4454868519193738,0.4752143129551008 l -12.384242268456982 11.410866828213905" fill="red" stroke="none" /><path d="M 115.9244219780498 86.31012108654704 l 15.933126168172462 -13.697361716218616 a42.011478469537394,42.011478469537394 0 0,0 0.466706287555122,0.5524330377243919 l -16.1665430692147 13.421069728865117" fill="red" stroke="none" /><path d="M 116.60985879189232 87.15038557335679 l 16.616280414408855 -12.854582281840822 a42.008118917477674,42.008118917477674 0 0,0 0.4375326815799493,0.5757417219547634 l -16.835089036212917 12.566655784005025" fill="red" stroke="none" /><path d="M 117.2510076193507 88.02491185347247 l 34.51604418770527 -23.959914732955582 a63.01707772297027,63.01707772297027 0 0,0 0.6108921556880301,0.896408858339434 l -34.92336080906203 23.362227851345743" fill="red" stroke="none" /><line stroke="#e1ed5e" stroke-width="0.3" x1="172.23445277983987" x2="176.4835382374775" y1="55.19839476539836" y2="52.563006222186495" /><path d="M 173.08426987136738 54.67131705675599 a86.0,86.0 0 0,1 12.851231095245387,41.99856678651699" fill="none" id="id15" stroke="none" /><text fill="#e1ed5e" style="font-size:6.75px; font-family:Arial;" text-anchor="middle"><textPath startOffset="22.20632615414155" xlink:href="#id15">March</textPath></text><path d="M 118.03404312379186 89.2402003453031 l 25.281079010746375 -15.083658353424116 a50.43891481135849,50.43891481135849 0 0,0 0.43843504423946705,0.7494276114129471 l -25.536973729456168 14.646251329657275" fill="red" stroke="none" /><path d="M 118.21658344932153 89.55222093294921 l 25.518031008365018 -14.635387087993095 a50.41707772297027,50.41707772297027 0 0,0 0.42528571747569927,0.7565358367336706 l -25.76617436713315 14.19396774132463" fill="red" stroke="none" /><path d="M 118.56541770881063 90.18545643968196 l 37.13442425320022 -19.63098434609436 a63.00405945873883,63.00405945873883 0 0,0 0.49860382641245427,0.9631438902183952 l -37.4668375127728 18.988867733615617" fill="red" stroke="none" /><path d="M 118.89224826269711 90.83032412892265 l 37.81119400994089 -18.352309822975027 a63.029676043194236,63.029676043194236 0 0,0 0.4653445150145631,0.9801342262678483 l -38.12149671879721 17.69873318106664" fill="red" stroke="none" /><path d="M 119.196687751892 91.48605970444005 l 19.196431830178213 -8.513826791489882 a41.99972003732836,41.99972003732836 0 0,0 0.2874166644462189,0.6633972887383341 l -19.340139204467114 8.182130358164944" fill="red" stroke="none" /><path d="M 119.61058180528143 92.48833698450437 l 39.26338610038493 -15.03949898895691 a63.045213971470474,63.045213971470474 0 0,0 0.379458369663195,1.0167597758653366 l -39.516449058549746 14.36141607606224" fill="red" stroke="none" /><path d="M 120.08093135843002 93.85539295169968 l 41.80292536486932 -12.791366359046718 a64.71617117717638,64.71617117717638 0 0,0 0.3167828932630169,1.0680344348709792 l -42.01691415524404 12.06990253742921" fill="red" stroke="none" /><path d="M 120.37134235888165 94.90015583598534 l 50.72969389299772 -12.699876561136783 a73.29520730569257,73.29520730569257 0 0,0 0.2958585465526804,1.226524680752655 l -50.94078523981123 11.82476664872472" fill="red" stroke="none" /><path d="M 120.53481517161879 95.60439243477599 l 41.103166069921 -8.79839366566654 a63.03429542727636,63.03429542727636 0 0,0 0.21798071025861432,1.0629513574945664 l -41.24852607609461 8.08956665200856" fill="red" stroke="none" /><path d="M 120.67395015179393 96.31383870115 l 41.35479070158541 -7.373551154325385 a63.006999066791096,63.006999066791096 0 0,0 0.18118454213526472,1.0693614239511946 l -41.47558710524089 6.660603942058352" fill="red" stroke="none" /><path d="M 120.73433829027371 96.67025291283417 l 20.735720395212407 -3.329969040711169 a42.00139981335822,42.00139981335822 0 0,0 0.10849182891306539,0.714825598765203 l -20.789968117564772 2.9725443295538834" fill="red" stroke="none" /><path d="M 120.83666639777658 97.38593545837742 l 38.36185565746631 -4.8126876300964705 a59.66256499133449,59.66256499133449 0 0,0 0.11906843036606014,1.0201055975113846 l -38.439014440835955 4.151638294260233" fill="red" stroke="none" /><path d="M 120.91429891909075 98.10471618934814 l 41.82720373746701 -3.7904412858944068 a62.99860018664178,62.99860018664178 0 0,0 0.08857458043618444,1.0808342325066236 l -41.88625280172269 3.0698931361800144" fill="red" stroke="none" /><path d="M 120.96714384426684 98.82574320788733 l 38.08090065393643 -2.1327061317834066 a59.140574590054655,59.140574590054655 0 0,0 0.048175325630171364,1.0169049824953702 l -38.111969587800104 1.4768900426650364" fill="red" stroke="none" /><path d="M 120.98425023603335 99.18683210126433 l 32.65301522197105 -1.265348224347766 a53.67752299693374,53.67752299693374 0 0,0 0.027831298631178728,0.9235853081463471 l -32.669958215057875 0.7030927687764198" fill="red" stroke="none" /><line stroke="#e1ed5e" stroke-width="0.3" x1="184.98032266829074" x2="189.97916517819016" y1="98.17113171792111" y2="98.06355123074" /><path d="M 185.9800911702706 98.14961562048488 a86.0,86.0 0 0,1 -9.607161424134198,41.387399972396054" fill="none" id="id16" stroke="none" /><text fill="#e1ed5e" style="font-size:6.75px; font-family:Arial;" text-anchor="middle"><textPath startOffset="21.466115282336823" xlink:href="#id16">April</textPath></text><path d="M 120.99980553446 99.90962569577887 l 42.00996959184726 -0.1807931871551808 a63.010358618850816,63.010358618850816 0 0,0 -0.00466787550917778,1.0846498769381587 l -42.00685741904858 -0.5423661679866627" fill="red" stroke="none" /><path d="M 120.99824983174949 100.27111621757518 l 32.393040663324584 0.41823860230107684 a53.39574056792428,53.39574056792428 0 0,0 -0.019776605858329497,0.9189411635560358 l -32.38104199478125 -0.9757695816472275" fill="red" stroke="none" /><path d="M 120.95626037817324 101.35467743843564 l 41.93082011716198 2.710537804110551 a63.01833755499268,63.01833755499268 0 0,0 -0.07929339740263404,1.0818954086613952 l -41.87795016109501 -3.4319063492687163" fill="red" stroke="none" /><path d="M 120.89721153311464 102.0752229133903 l 39.296146244162834 3.902351419690512 a60.4894347420344,60.4894347420344 0 0,0 -0.11181241143752803,1.0352440634950975 l -39.223151531224254 -4.578191805070401" fill="red" stroke="none" /><path d="M 120.81339534386255 102.79330883721812 l 20.84641486187241 2.797740296378612 a42.03331555792561,42.03331555792561 0 0,0 -0.10241307044951994,0.7162767761942851 l -20.79516774040629 -3.1561625445533066" fill="red" stroke="none" /><path d="M 120.41448212921028 104.9243191809786 l 20.419925265359925 4.925632157696635 a42.00559925343288,42.00559925343288 0 0,0 -0.1756007786051069,0.7014378213146876 l -20.332113172459756 -5.276397818408718" fill="red" stroke="none" /><path d="M 120.32669344350535 105.2749913415812 l 40.68617624718486 10.558491867968856 a63.03387548326889,63.03387548326889 0 0,0 -0.2815871007008734,1.0478903546806044 l -40.49840107014221 -11.257273155825008" fill="red" stroke="none" /><line stroke="#e1ed5e" stroke-width="0.3" x1="174.80103733775053" x2="179.2010983576182" y1="140.37084112569926" y2="142.7455964860345" /><path d="M 175.68104954172406 140.8457921977663 a86.0,86.0 0 0,1 -30.038265399797805,32.042727171017184" fill="none" id="id17" stroke="none" /><text fill="#e1ed5e" style="font-size:6.75px; font-family:Arial;" text-anchor="middle"><textPath startOffset="22.206326154141568" xlink:href="#id17">May</textPath></text><line stroke="#e1ed5e" stroke-width="0.3" x1="143.8653032363475" x2="146.44561519142675" y1="172.8068346515853" y2="177.08958963109032" /><path d="M 144.38136562736335 173.6633856474863 a86.0,86.0 0 0,1 -40.68145358897372,12.25698825130547" fill="none" id="id18" stroke="none" /><text fill="#e1ed5e" style="font-size:6.75px; font-family:Arial;" text-anchor="middle"><textPath startOffset="21.466115282336833" xlink:href="#id18">June</textPath></text><line stroke="#e1ed5e" stroke-width="0.3" x1="102.19456741930631" x2="102.32365962044197" y1="184.97166512339345" y2="189.96999836594603" /><path d="M 102.22038585953345 185.97133177190398 a86.0,86.0 0 0,1 -42.740103519485714,-10.115201625700543" fill="none" id="id19" stroke="none" /><text fill="#e1ed5e" style="font-size:6.75px; font-family:Arial;" text-anchor="middle"><textPath startOffset="22.20632615414155" xlink:href="#id19">July</textPath></text><line stroke="#e1ed5e" stroke-width="0.3" x1="58.666819895761336" x2="56.23545636021788" y1="174.27360380694188" y2="178.64263932499728" /><path d="M 58.180547188652646 175.14741091055294 a86.0,86.0 0 0,1 -31.652253787137756,-30.449443065178592" fill="none" id="id20" stroke="none" /><text fill="#e1ed5e" style="font-size:6.75px; font-family:Arial;" text-anchor="middle"><textPath startOffset="22.20632615414155" xlink:href="#id20">August</textPath></text><line stroke="#e1ed5e" stroke-width="0.3" x1="26.63291911575756" x2="22.317208475507996" y1="142.92168965132927" y2="145.44649492493687" /><path d="M 25.769776987707644 143.4266507060508 a86.0,86.0 0 0,1 -11.730757126820373,-40.83630448921669" fill="none" id="id21" stroke="none" /><text fill="#e1ed5e" style="font-size:6.75px; font-family:Arial;" text-anchor="middle"><textPath startOffset="21.46611528233685" xlink:href="#id21">September</textPath></text><line stroke="#e1ed5e" stroke-width="0.3" x1="15.007084014347285" x2="10.007500721073583" y1="101.09737516637583" y2="101.16192664675087" /><path d="M 14.007167355692545 101.11028546245083 a86.0,86.0 0 0,1 10.666146001902534,-42.60595125391555" fill="none" id="id22" stroke="none" /><text fill="#e1ed5e" style="font-size:6.75px; font-family:Arial;" text-anchor="middle"><textPath startOffset="22.20632615414155" xlink:href="#id22">October</textPath></text><line stroke="#e1ed5e" stroke-width="0.3" x1="26.266209847984243" x2="21.928928074336255" y1="57.711370442889674" y2="55.22380399835377" /><path d="M 25.398753493254645 57.213857153982495 a86.0,86.0 0 0,1 29.58750427330803,-30.492523968695096" fill="none" id="id23" stroke="none" /><text fill="#e1ed5e" style="font-size:6.75px; font-family:Arial;" text-anchor="middle"><textPath startOffset="21.46611528233685" xlink:href="#id23">November</textPath></text><line stroke="#e1ed5e" stroke-width="0.3" x1="56.762969772571076" x2="54.21961505331055" y1="26.818313649435495" y2="22.513508569990535" /><path d="M 56.25429882871897 25.957352633546506 a86.0,86.0 0 0,1 42.265352541879196,-11.944610805530505" fill="none" id="id24" stroke="none" /><text fill="#e1ed5e" style="font-size:6.75px; font-family:Arial;" text-anchor="middle"><textPath startOffset="22.20632615414155" xlink:href="#id24">December</textPath></text></svg>