<?xml version="1.0" encoding="utf-8" ?>
<svg baseProfile="full" height="200mm" version="1.1" viewBox="0,0,200,200" width="200mm" xmlns="http://www.w3.org/2000/svg" xmlns:ev="http://www.w3.org/2001/xml-events" xmlns:xlink="http://www.w3.org/1999/xlink"><defs /><rect fill="#1a1a1a" height="200" width="200" x="0" y="0" /><rect fill="#1a1a1a" height="200" width="180" x="10" y="0" /><text alignment-baseline="middle" fill="#e1ed5e" style="dominant-baseline: central; font-size:9.0px; font-family:Arial;" text-anchor="middle" x="100.0" y="100.0">2025</text><line stroke="#e1ed5e" stroke-width="0.3" x1="100.0" x2="100.0" y1="15.0" y2="10.0" /><path d="M 100.0 14.0 a86.0,86.0 0 0,1 42.46469731375804,11.215312516191453" fill="none" id="id1" stroke="none" /><text fill="#e1ed5e" style="font-size:6.75px; font-family:Arial;" text-anchor="middle"><textPath startOffset="22.20632615414155" xlink:href="#id1">January</textPath></text><line stroke="#e1ed5e" stroke-width="0.3" x1="143.23703022742887" x2="145.7803849466894" y1="26.81831364943548" y2="22.513508569990506" /><path d="M 143.74570117128098 25.957352633546492 a86.0,86.0 0 0,1 28.547481713284135,27.462654790039103" fill="none" id="id2" stroke="none" /><text fill="#e1ed5e" style="font-size:6.75px; font-family:Arial;" text-anchor="middle"><textPath startOffset="19.985693538727396" xlink:href="#id2">February</textPath></text><line stroke="#e1ed5e" stroke-width="0.3" x1="172.23445277983987" x2="176.4835382374775" y1="55.19839476539836" y2="52.563006222186495" /><path d="M 173.08426987136738 54.67131705675599 a86.0,86.0 0 0,1 12.851231095245387,41.99856678651699" fill="none" id="id3" stroke="none" /><text fill="#e1ed5e" style="font-size:6.75px; font-family:Arial;" text-anchor="middle"><textPath startOffset="22.20632615414155" xlink:href="#id3">March</textPath></text><line stroke="#e1ed5e" stroke-width="0.3" x1="184.98032266829074" x2="189.97916517819016" y1="98.17113171792111" y2="98.06355123074" /><path d="M 185.9800911702706 98.14961562048488 a86.0,86.0 0 0,1 -9.607161424134198,41.387399972396054" fill="none" id="id4" stroke="none" /><text fill="#e1ed5e" style="font-size:6.75px; font-family:Arial;" text-anchor="middle"><textPath startOffset="21.466115282336823" xlink:href="#id4">April</textPath></text><line stroke="#e1ed5e" stroke-width="0.3" x1="174.80103733775053" x2="179.2010983576182" y1="140.37084112569926" y2="142.7455964860345" /><path d="M 175.68104954172406 140.8457921977663 a86.0,86.0 0 0,1 -30.038265399797805,32.042727171017184" fill="none" id="id5" stroke="none" /><text fill="#e1ed5e" style="font-size:6.75px; font-family:Arial;" text-anchor="middle"><textPath startOffset="22.206326154141568" xlink:href="#id5">May</textPath></text><line stroke="#e1ed5e" stroke-width="0.3" x1="143.8653032363475" x2="146.44561519142675" y1="172.8068346515853" y2="177.08958963109032" /><path d="M 144.38136562736335 173.6633856474863 a86.0,86.0 0 0,1 -40.68145358897372,12.25698825130547" fill="none" id="id6" stroke="none" /><text fill="#e1ed5e" style="font-size:6.75px; font-family:Arial;" text-anchor="middle"><textPath startOffset="21.466115282336833" xlink:href="#id6">June</textPath></text><line stroke="#e1ed5e" stroke-width="0.3" x1="102.19456741930631" x2="102.32365962044197" y1="184.97166512339345" y2="189.96999836594603" /><path d="M 102.22038585953345 185.97133177190398 a86.0,86.0 0 0,1 -42.740103519485714,-10.115201625700543" fill="none" id="id7" stroke="none" /><text fill="#e1ed5e" style="font-size:6.75px; font-family:Arial;" text-anchor="middle"><textPath startOffset="22.20632615414155" xlink:href="#id7">July</textPath></text><line stroke="#e1ed5e" stroke-width="0.3" x1="58.666819895761336" x2="56.23545636021788" y1="174.27360380694188" y2="178.64263932499728" /><path d="M 58.180547188652646 175.14741091055294 a86.0,86.0 0 0,1 -31.652253787137756,-30.449443065178592" fill="none" id="id8" stroke="none" /><text fill="#e1ed5e" style="font-size:6.75px; font-family:Arial;" text-anchor="middle"><textPath startOffset="22.20632615414155" xlink:href="#id8">August</textPath></text><line stroke="#e1ed5e" stroke-width="0.3" x1="26.63291911575756" x2="22.317208475507996" y1="142.92168965132927" y2="145.44649492493687" /><path d="M 25.769776987707644 143.4266507060508 a86.0,86.0 0 0,1 -11.730757126820373,-40.83630448921669" fill="none" id="id9" stroke="none" /><text fill="#e1ed5e" style="font-size:6.75px; font-family:Arial;" text-anchor="middle"><textPath startOffset="21.46611528233685" xlink:href="#id9">September</textPath></text><line stroke="#e1ed5e" stroke-width="0.3" x1="15.007084014347285" x2="10.007500721073583" y1="101.09737516637583" y2="101.16192664675087" /><path d="M 14.007167355692545 101.11028546245083 a86.0,86.0 0 0,1 10.666146001902534,-42.60595125391555" fill="none" id="id10" stroke="none" /><text fill="#e1ed5e" style="font-size:6.75px; font-family:Arial;" text-anchor="middle"><textPath startOffset="22.20632615414155" xlink:href="#id10">October</textPath></text><path d="M 79.3925641242962 95.95851677861259 l -7.685043771987358 -1.507173218805611 a28.831441048034936,28.831441048034936 0 0,0 0.09970283565207733,-0.4861864353809007 l 7.657961640420286 1.6392353103499142" fill="#ff0000" stroke="none" /><path d="M 79.62865764111835 94.90015583598534 l -7.884678982424371 -1.973882397401985 a29.127999407889867,29.127999407889867 0 0,0 0.1259490091198055,-0.48533290997291634 l 7.849533641434258 2.109311732923765" fill="#ff0500" stroke="none" /><path d="M 80.38941819471856 92.48833698450439 l -8.807997529951141 -3.3738269442109097 a30.43204796092073,30.43204796092073 0 0,0 0.19158633479730716,-0.48756632473864925 l 8.748617645272143 3.524942273845322" fill="#ff1a02" stroke="none" /><path d="M 80.52162464483688 92.15188598940014 l -14.497412669048954 -5.841213417999566 a36.6299311671971,36.6299311671971 0 0,0 0.24067314818687965,-0.5828091183573987 l 14.394717833975875 6.089897106810276" fill="#ff7b0b" stroke="none" /><path d="M 81.10775173730289 90.83032412892265 l -11.239426506961689 -5.4552479203404385 a33.49337576789283,33.49337576789283 0 0,0 0.25620835473813247,-0.5165004091063488 l 11.143858139270144 5.647907917945749" fill="#ff4b07" stroke="none" /><line stroke="#e1ed5e" stroke-width="0.3" x1="26.266209847984243" x2="21.928928074336255" y1="57.711370442889674" y2="55.22380399835377" /><path d="M 25.398753493254645 57.213857153982495 a86.0,86.0 0 0,1 29.58750427330803,-30.492523968695096" fill="none" id="id11" stroke="none" /><text fill="#e1ed5e" style="font-size:6.75px; font-family:Arial;" text-anchor="middle"><textPath startOffset="21.46611528233685" xlink:href="#id11">November</textPath></text><path d="M 82.34701348167596 88.62581576622439 l -13.12940055697836 -8.459544262331748 a36.618740285693136,36.618740285693136 0 0,0 0.34596577531599954,-0.5269296111537977 l 12.98183814630444 8.684291937463215" fill="#ff7b0b" stroke="none" /><path d="M 82.54541684631803 88.32363383020206 l -18.115250300806007 -12.118324104757203 a42.79486344460069,42.79486344460069 0 0,0 0.4148565329698989,-0.6087507715258925 l 17.90396930216737 12.428352899553511" fill="#ffd513" stroke="none" /><path d="M 82.95767976084542 87.72973835380427 l -7.6597730652276015 -5.514942703921858 a30.438575975131375,30.438575975131375 0 0,0 0.30980293846332685,-0.42257085990043664 l 7.563707514250642 5.645976007493795" fill="#ff1a02" stroke="none" /><path d="M 83.6137871275137 86.86637796730984 l -12.144062373975265 -9.733519660849169 a36.56340759381245,36.56340759381245 0 0,0 0.39784732238150594,-0.48771377524280607 l 11.974716559517365 9.941117605700057" fill="#ff7a0b" stroke="none" /><path d="M 84.07557802195018 86.31012108654704 l -19.019023587521176 -16.350240550279405 a46.08094145511065,46.08094145511065 0 0,0 0.5222685238242561,-0.5970432059742153 l 18.734763200119076 16.675199312456563" fill="#fbff18" stroke="none" /><path d="M 84.5562425177563 85.77008943001954 l -16.043401859061483 -14.782424157798667 a42.81538006069129,42.81538006069129 0 0,0 0.5040648130122596,-0.5377011976187628 l 15.786569724078769 15.05639477229548" fill="#ffd614" stroke="none" /><path d="M 85.05521093208273 85.24692304244772 l -11.071598822915487 -10.92957208932898 a36.55750129524091,36.55750129524091 0 0,0 0.4459391936751333,-0.44402418905848323 l 10.88182382907304 11.118532129037572" fill="#ff7a0b" stroke="none" /><path d="M 85.57189188830299 84.74124197986013 l -10.709114009869168 -11.325655312646777 a36.58703278809858,36.58703278809858 0 0,0 0.4613313256013147,-0.428757189442265 l 10.512574800472997 11.50831708816369" fill="#ff7a0b" stroke="none" /><path d="M 86.10567301691215 84.25364557470407 l -20.58820258062433 -23.332482041692682 a52.11717859521872,52.11717859521872 0 0,0 0.6777868891137081,-0.5877701112164908 l 20.183521892863848 23.683417146328853" fill="#acff21" stroke="none" /><path d="M 86.93701828274178 83.55741782278169 l -9.6858079226921 -12.19167998307846 a36.57086818148176,36.57086818148176 0 0,0 0.4962622314894437,-0.38734054325859046 l 9.47451313604323 12.356598915560271" fill="#ff7a0b" stroke="none" /><path d="M 87.22198572758235 83.33499621200491 l -11.368470014286405 -14.826685258972226 a39.68348752868033,39.68348752868033 0 0,0 0.54565522172321,-0.4109762003828235 l 11.111568638804806 15.020178048860904" fill="#ffa90f" stroke="none" /><path d="M 87.80319425747018 82.90503203632743 l -18.071782559374185 -25.32929936087345 a52.115313448301386,52.115313448301386 0 0,0 0.7347486410894731,-0.5147383777755167 l 17.63310277870105 25.636622581412908" fill="#acff20" stroke="none" /><path d="M 88.39885842347998 82.49532879139004 l -8.592624082936217 -12.96519470940727 a36.55408185922582,36.55408185922582 0 0,0 0.527480578358373,-0.34308804099113493 l 8.368176478793556 13.111181674557939" fill="#ff7a0b" stroke="none" /><path d="M 89.00827224532344 82.1063720568725 l -16.30088439201052 -26.536497897745956 a52.14329065206128,52.14329065206128 0 0,0 0.7688352751484202,-0.46321465072031986 l 15.84168705064445 26.813159157924893" fill="#acff21" stroke="none" /><line stroke="#e1ed5e" stroke-width="0.3" x1="56.762969772571076" x2="54.21961505331055" y1="26.818313649435495" y2="22.513508569990535" /><path d="M 56.25429882871897 25.957352633546506 a86.0,86.0 0 0,1 42.265352541879196,-11.944610805530505" fill="none" id="id12" stroke="none" /><text fill="#e1ed5e" style="font-size:6.75px; font-family:Arial;" text-anchor="middle"><textPath startOffset="22.20632615414155" xlink:href="#id12">December</textPath></text><path d="M 89.63071344664047 81.73862282372117 l -10.766835989718063 -18.961502509511927 a42.80512175264599,42.80512175264599 0 0,0 0.6438622298094785,-0.3583086337941319 l 10.43884967083654 19.144026540866243" fill="#ffd614" stroke="none" /><path d="M 90.26544431104013 81.39251694778311 l -14.4210623083373 -27.565682612682437 a52.11002886536895,52.11002886536895 0 0,0 0.7983740608990121,-0.40895820300923413 l 13.944427759849523 27.809833341004175" fill="#acff20" stroke="none" /><path d="M 91.23893434514133 80.91482961587045 l -15.568642567816141 -33.91484640816521 a58.31754866405152,58.31754866405152 0 0,0 0.9159128741232507,-0.4109434083996469 l 14.982547575226116 34.17781014708139" fill="#61ff29" stroke="none" /><path d="M 91.90106846888425 80.62456947434976 l -8.398767631468367 -20.092741631336736 a42.77745540670565,42.77745540670565 0 0,0 0.6818240163137202,-0.27813313583586396 l 8.051659745566266 20.234335653356176" fill="#ffd513" stroke="none" /><path d="M 92.57280143429618 80.3572730644239 l -7.712390677012164 -20.396975084060813 a42.80636518392421,42.80636518392421 0 0,0 0.6914607447533727,-0.2546708277699383 l 7.360147606486222 20.526709179637074" fill="#ffd614" stroke="none" /><path d="M 92.91201910852362 80.23233633223022 l -7.350599737918028 -20.500081137393465 a42.778077122344754,42.778077122344754 0 0,0 0.6952822644488064,-0.24257032984105828 l 6.996635469405937 20.623572320406733" fill="#ffd513" stroke="none" /><path d="M 93.94186890950719 79.89281104454417 l -8.970571671144645 -29.773700327024745 a52.09572940566946,52.09572940566946 0 0,0 0.8608441770762342,-0.25130402119017126 l 8.45673727634499 29.923702677133615" fill="#acff20" stroke="none" /><path d="M 94.63758080256005 79.69619591428918 l -11.915437544349249 -45.11559066689314 a67.66255643549701,67.66255643549701 0 0,0 1.1286472422954377,-0.28771731244024223 l 11.137081413368813 45.31401097550225" fill="#36ff70" stroke="none" /><path d="M 95.33964822691252 79.52364482259891 l -4.832471937011 -21.23260573128482 a42.775590259788316,42.775590259788316 0 0,0 0.7193576632796203,-0.15722372281131008 l 4.4662715495778595 21.312642952191997" fill="#ffd513" stroke="none" /><path d="M 96.40284397218896 79.31037775812273 l -2.6736259538512295 -15.377790280318255 a36.60848197764784,36.60848197764784 0 0,0 0.6217703013818072,-0.10259742726151856 l 2.4085264463305367 15.4215339705194" fill="#ff7b0b" stroke="none" /><path d="M 96.75951476605007 79.25152402106235 l -3.3621323445012785 -21.52736925230877 a42.788335430390056,42.788335430390056 0 0,0 0.7286874297967317,-0.10738958527391412 l 2.991075934275898 21.58205332174365" fill="#ffd513" stroke="none" /><path d="M 97.47563105711357 79.15227682838746 l -3.7406473045474473 -30.892465108002394 a52.11811116867737,52.11811116867737 0 0,0 0.8915505181890933,-0.10017608877319115 l 3.208330082848636 30.952277150246182" fill="#acff21" stroke="none" /><path d="M 98.55514903715128 79.0497635885617 l -2.7810306542558734 -40.32474710003568 a61.4205314188439,61.4205314188439 0 0,0 1.0553742245884379,-0.06366305532916197 l 2.0864943808278125 40.36664342474515" fill="#3eff2d" stroke="none" /><path d="M 99.63851952072746 79.00311137660856 l -1.0844414378176228 -62.990665870174325 a84.0,84.0 0 0,0 1.445921917090143,-0.012445506434235476 l 1.543054966925665e-14 63.0" fill="#4dd2ff" stroke="none" /></svg>